<svg width="274" height="220" viewBox="0 0 274 220" fill="none" xmlns="http://www.w3.org/2000/svg">
<g clip-path="url(#clip0_64_3527)">
<path d="M152.126 167.016L151.838 167.304C152.126 167.304 152.126 167.304 152.126 167.016Z" fill="#329363"/>
<path d="M209.173 202.435L208.885 202.723C208.885 202.723 208.885 202.435 209.173 202.435Z" fill="#329363"/>
<path d="M10.9485 116.335C12.9653 118.351 15.2702 120.079 17.5752 121.518C20.1682 122.958 22.7613 124.11 25.6425 124.686C28.2355 125.262 30.8286 125.838 33.7098 125.838C34.286 130.157 35.4385 134.188 36.8791 138.22C37.4553 140.236 38.3197 142.251 38.8959 144.267C39.7603 146.283 40.6246 148.298 41.489 150.314C42.6414 152.33 43.5058 154.346 44.9464 156.361C46.0988 158.089 47.5394 159.817 48.98 161.832C51.8612 165.288 55.0305 168.168 58.4879 171.047C60.2166 172.487 61.9453 173.639 63.674 174.791C65.6908 175.942 67.7077 177.094 69.7245 178.246C71.7413 179.11 73.47 179.974 75.4869 180.55C76.6393 180.838 77.7918 181.414 78.9443 181.702C80.0967 181.99 80.9611 182.277 82.1136 182.565C83.266 182.853 84.1304 182.853 85.2829 183.141C86.4353 183.429 87.2997 183.429 88.4522 183.717C89.6046 183.717 90.469 184.005 91.6214 184.005C92.7739 184.005 93.9264 184.005 95.0789 184.293C95.9432 184.293 96.8076 184.581 97.6719 184.581C97.96 184.869 97.96 185.445 98.2482 185.733C99.4006 187.749 100.265 189.764 101.706 191.78C102.858 193.508 104.299 195.236 105.739 197.251C108.62 200.707 111.79 203.586 115.247 206.466C116.976 207.906 118.705 209.058 120.433 210.209C122.45 211.361 124.467 212.513 126.484 213.665C128.501 214.529 130.229 215.393 132.246 215.969C133.399 216.257 134.551 216.832 135.703 217.12C136.856 217.408 137.72 217.696 138.873 217.984C140.025 218.272 140.89 218.272 142.042 218.56C143.195 218.848 144.059 218.848 145.211 219.136C146.364 219.136 147.228 219.424 148.381 219.424C149.533 219.424 150.686 219.424 151.838 219.712C152.991 219.712 154.143 220 155.007 220.288C156.16 220.576 157.6 220.576 158.753 220.576C159.329 220.576 160.193 220.576 160.77 220.576C163.075 220.576 165.091 220.288 167.396 220.288C169.701 220 171.718 220 174.023 219.712C174.887 219.712 176.04 219.424 176.904 219.424C178.057 219.136 179.209 219.136 180.362 218.848C181.514 218.56 182.667 218.56 183.819 218.272C184.972 217.984 185.836 217.696 186.988 217.408C189.005 216.544 191.022 215.969 193.039 214.817C193.039 214.817 193.039 214.817 193.327 214.817C193.327 214.817 193.615 214.817 193.615 214.529C193.615 214.529 193.615 214.529 193.903 214.529C193.903 214.529 193.903 214.529 194.191 214.529C196.784 213.089 199.089 211.649 201.394 209.921C203.699 208.194 206.004 206.466 208.021 204.45C208.309 204.162 208.597 203.874 208.885 203.586C209.75 203.01 210.326 202.147 211.19 201.283C214.648 204.45 218.681 207.33 223.003 209.058C224.444 209.633 225.884 210.209 227.325 210.497C228.766 210.785 230.206 211.073 231.359 211.361C232.511 211.361 233.664 211.649 234.816 211.649C236.833 211.649 238.562 211.361 240.578 211.073C243.46 210.497 246.053 209.346 248.358 207.906C250.662 206.466 252.967 204.45 254.408 202.147C256.137 199.843 257.577 197.251 258.154 194.372C258.154 194.084 258.154 193.796 258.154 193.508C259.306 192.932 260.458 192.356 261.323 191.78C263.628 190.34 265.645 188.325 267.373 186.021C268.238 184.869 269.102 183.717 269.678 182.277C270.254 181.126 270.831 179.686 271.407 178.534C271.983 176.518 272.559 174.791 273.136 172.775C273.712 170.759 274 169.031 274 167.016C274 165.576 273.712 164.424 273.712 162.984C273.712 161.832 273.424 160.681 273.136 159.817C272.848 158.953 272.559 157.801 272.271 156.937C271.695 155.785 271.407 154.921 270.831 153.77C270.254 152.906 269.678 152.042 269.102 151.178C268.526 150.314 267.95 149.45 267.373 148.586C266.797 147.723 265.933 146.859 265.068 145.995C264.78 145.707 264.204 145.419 263.916 144.843C263.628 144.555 263.052 144.267 262.475 143.979C262.187 143.691 261.611 143.403 261.323 143.115C260.458 142.539 259.306 142.251 258.442 141.963C257.577 141.675 256.713 141.387 255.56 141.387C254.984 141.387 254.408 141.675 254.12 142.251C253.832 142.827 254.408 143.403 254.984 143.691C255.849 143.979 256.713 144.267 257.577 144.555C257.865 144.555 257.865 144.555 258.154 144.843C258.73 145.131 259.594 145.419 260.17 145.707C260.747 145.995 261.323 146.571 261.899 146.859C263.052 147.723 263.916 148.586 264.78 149.738C265.645 150.89 266.221 151.754 267.085 152.906C267.373 153.482 267.95 154.058 268.238 154.634C268.814 155.497 269.39 156.361 269.678 157.513C269.966 158.377 270.254 158.953 270.543 159.817C270.543 160.105 270.831 160.393 270.831 160.969C270.831 161.832 271.119 162.696 271.119 163.56C271.119 165.288 271.407 166.728 271.119 168.455C270.831 169.895 270.543 171.335 270.254 172.775C269.678 174.503 269.102 176.23 268.526 177.958C268.238 178.822 267.661 179.974 267.085 180.838C266.509 181.702 265.933 182.565 265.356 183.429C264.204 184.869 262.763 186.309 261.323 187.461C260.458 188.037 259.594 188.901 258.442 189.476C258.442 188.037 258.154 186.885 257.577 185.445C257.001 184.005 256.425 182.277 255.56 181.126C255.272 180.55 254.696 179.974 254.12 179.398C253.544 178.822 252.967 178.534 252.391 177.958C251.239 177.094 250.086 176.518 248.646 176.23C247.205 175.942 246.053 175.942 244.612 175.942C243.171 176.23 241.731 176.806 240.578 177.67C239.426 178.534 238.562 179.686 237.985 180.838C237.409 182.277 237.121 183.717 237.121 185.157C237.121 186.597 237.409 188.037 238.273 189.188C238.85 190.34 239.714 191.492 240.866 192.356C242.019 193.22 243.171 193.796 244.612 194.372C247.493 195.236 250.374 195.236 253.256 194.66C253.544 194.66 253.544 194.66 253.832 194.66C253.832 194.948 253.832 194.948 253.544 195.236C252.967 196.675 252.391 197.827 251.527 198.979C250.374 200.419 249.222 201.859 247.781 203.01C246.341 204.162 244.9 205.026 243.46 205.602C241.731 206.178 240.29 206.754 238.273 207.042C236.257 207.33 234.24 207.33 232.223 207.33C229.63 207.042 227.325 206.466 224.732 205.602C221.851 204.45 219.258 203.01 216.953 201.283C215.8 200.419 214.648 199.267 213.495 198.403C213.783 197.827 214.36 197.539 214.936 196.963C215.8 195.812 216.665 194.948 217.529 193.796C218.393 192.644 219.258 191.204 220.122 189.764C222.139 186.885 223.868 184.005 225.596 180.838C226.461 179.398 227.037 177.67 227.901 176.23C228.477 174.503 229.054 173.063 229.63 171.335C230.206 169.319 231.07 167.016 231.647 165C232.223 162.984 232.799 160.681 233.375 158.665C233.952 156.649 234.24 154.634 234.528 152.33C234.816 150.026 235.104 148.01 235.104 145.707C235.392 143.403 235.392 141.099 235.392 139.084C235.392 136.78 235.392 134.764 235.104 132.749C234.816 130.445 234.528 128.141 233.663 125.838C233.375 124.974 233.087 123.822 232.511 122.958C232.223 121.806 231.647 120.942 231.359 119.791C230.494 117.775 229.342 115.471 228.189 113.456C227.037 111.44 225.884 109.712 224.732 107.696C223.579 105.681 222.427 103.953 221.274 101.937C220.122 100.209 218.681 98.4817 217.241 97.0419C216.376 96.178 215.8 95.3141 214.936 94.4503C214.072 93.5864 213.207 92.7225 212.343 92.1466C210.614 90.7068 209.173 89.555 207.445 88.1152C205.716 86.6754 203.699 85.5236 201.682 84.3717C199.954 83.2199 197.937 82.0681 196.208 81.2042C194.191 80.3403 192.175 79.1885 190.158 78.6126C187.853 77.7487 185.548 77.1728 183.531 76.5969C181.514 76.021 179.209 75.733 177.192 75.445C176.616 75.445 175.752 75.445 175.176 75.1571C175.464 75.1571 175.752 75.1571 175.752 74.8691C176.328 74.5812 177.192 74.5812 177.769 74.2932C179.209 74.0052 180.65 73.4293 182.379 72.8534C182.955 72.5654 183.531 72.5655 184.107 72.2775C184.972 71.9895 185.548 71.7016 186.412 71.4136C187.277 71.1257 187.853 70.8377 188.717 70.5497C189.293 70.2618 190.158 69.9738 190.734 69.6859C190.734 69.6859 190.734 69.6859 190.446 69.6859C190.446 69.6859 190.734 69.6859 190.734 69.3979H191.022H191.31C191.31 69.3979 191.31 69.3979 191.022 69.3979C191.598 69.11 192.463 68.822 193.039 68.534C193.327 68.534 193.327 68.2461 193.615 68.2461C193.615 68.2461 193.615 68.2461 193.327 68.2461C193.327 68.2461 193.615 68.2461 193.615 67.9581H193.903C194.768 67.6702 195.632 67.0942 196.496 66.5183C197.361 65.9424 198.225 65.6545 199.089 65.0785C201.106 63.9267 202.835 62.7749 204.564 61.623C205.428 61.0471 206.292 60.1833 207.157 59.6073C207.733 59.0314 208.597 58.4555 209.173 57.8796C209.75 57.3037 210.326 56.7278 210.902 56.1518C211.478 55.5759 212.055 55 212.631 54.4241C213.207 53.8482 214.072 52.9843 214.648 52.4084C215.224 51.5445 216.088 50.9686 216.665 50.1047C219.258 46.9372 221.563 43.1937 222.715 39.1623C223.291 37.1466 223.579 35.1309 223.579 32.8272C223.579 30.8115 223.291 28.7958 222.139 27.0681C221.274 25.3403 219.546 23.9005 217.529 23.0367C215.512 22.1728 213.495 22.4607 211.478 22.7487C209.462 23.3246 207.445 24.1885 205.716 25.3403C203.987 26.4922 202.259 27.644 200.53 29.0838C199.377 29.9477 198.225 31.0995 197.073 32.2513C196.496 32.8272 195.632 33.6911 195.056 34.267C194.479 34.8429 194.191 35.4189 193.615 35.7068C193.327 36.2827 192.751 36.5707 192.463 37.1466C191.886 37.7225 191.31 38.5864 190.734 39.1623C190.158 40.0262 189.581 40.6021 189.005 41.466C187.277 43.7696 185.836 46.3613 184.395 48.6649C183.531 50.1047 182.667 51.5445 181.802 52.6963C181.514 53.2723 180.938 54.1361 180.65 54.712C180.362 55.288 179.785 55.8639 179.497 56.7278C179.209 57.3037 178.633 57.8796 178.057 58.7435C177.481 59.3194 177.192 59.8953 176.616 60.4712C175.752 61.623 175.176 62.4869 174.311 63.6387C173.735 64.5026 172.871 65.3665 172.294 66.2304C172.294 66.2304 172.294 65.9424 172.583 65.9424C172.871 65.3665 173.159 64.5026 173.447 63.9267C173.735 63.3508 174.023 62.7749 174.023 62.199C174.311 61.3351 174.599 60.1833 174.887 59.3194C175.176 57.8796 175.752 56.4398 176.04 55C176.04 54.4241 176.328 53.8482 176.328 53.2723C176.616 52.4084 176.616 51.5445 176.904 50.6806C176.904 50.1047 177.192 49.2408 177.192 48.6649C177.192 47.8011 177.481 46.9372 177.481 46.3613C177.769 44.3456 177.769 42.6178 178.057 40.6021C178.057 39.4503 178.057 38.2984 178.057 37.1466C178.057 36.2827 178.057 35.1309 177.769 34.267C177.769 33.4031 177.481 32.5393 177.481 31.6754C177.481 31.0995 177.192 30.5236 177.192 29.6597C176.904 28.7958 176.904 27.644 176.616 26.7801C176.616 26.2042 176.328 25.6283 176.328 25.0524C176.328 24.4764 176.04 23.9005 176.04 23.3246C176.04 23.0367 176.04 22.7487 175.752 22.4607C175.176 20.445 174.599 18.4293 173.735 16.4136C173.447 12.3822 171.43 8.63875 168.261 5.75917C166.82 4.31938 164.803 3.16755 163.075 2.30368C161.058 1.4398 158.465 0.863885 156.448 1.4398C151.838 2.59163 150.109 7.77488 149.533 11.8063C149.245 12.9581 149.245 14.11 148.957 15.2618C148.669 16.7016 148.669 18.1414 148.669 19.8691C148.669 20.733 148.669 21.3089 148.957 22.1728C148.957 23.0367 149.245 23.9005 149.245 24.7644C149.245 25.6283 149.533 26.2042 149.533 27.0681C149.533 27.9319 149.821 28.7958 149.821 29.3717C149.821 29.9477 150.109 30.8115 150.109 31.3874C150.397 31.9634 150.397 32.8272 150.686 33.4032C151.262 35.1309 151.55 36.5707 152.126 38.0105C152.702 39.4503 152.991 40.8901 153.567 42.3298C154.719 45.2094 155.584 48.089 157.024 50.6806C158.177 53.2723 159.329 56.1518 160.77 58.7435C161.634 60.4712 162.21 62.199 162.787 63.6387C161.922 62.7749 161.346 61.911 160.482 60.7592C159.617 59.8953 159.041 59.0314 158.177 58.1675C157.312 57.3037 156.448 56.4398 155.584 55.8639C153.855 54.4241 152.414 53.2723 150.686 51.8325C148.957 50.3927 146.94 49.2408 144.923 48.089C143.195 46.9372 141.178 45.7854 139.449 44.9215C137.432 44.0576 135.415 42.9058 133.399 42.3298C131.094 41.466 128.789 40.8901 126.772 40.3141C124.755 39.7382 122.45 39.4503 120.433 39.1623C118.128 38.8744 116.111 38.5864 113.807 38.5864C113.807 38.5864 113.807 38.5864 113.518 38.5864H113.23C113.23 38.5864 113.23 38.5864 113.518 38.5864C113.23 38.5864 113.23 38.5864 112.942 38.5864H112.654H112.366C111.79 38.5864 111.213 38.5864 110.637 38.5864C108.332 38.5864 106.315 38.8744 104.011 39.1623C101.706 39.4503 99.6888 39.7382 97.6719 40.0262C96.5195 40.3141 95.0789 40.6021 93.9264 40.8901C93.9264 40.6021 94.2145 40.6021 94.2145 40.3141C94.2145 40.0262 94.5026 40.0262 94.5026 39.7382C94.5026 39.4503 94.5026 39.1623 94.5026 38.8744C94.5026 38.5864 94.5026 38.2984 94.5026 38.2984C94.5026 38.0105 94.5026 37.7225 94.5026 37.4346C94.5026 37.1466 94.5026 36.8586 94.2145 36.5707C93.9264 36.2827 93.9264 35.9948 93.6383 35.7068C93.3502 35.4189 93.062 35.1309 92.7739 34.8429C92.1977 34.267 91.3333 33.9791 90.469 33.9791C90.1809 33.9791 89.8927 33.9791 89.6046 33.9791H89.3165C89.3165 33.6911 89.3165 33.1152 89.6046 32.8272C89.6046 32.5393 89.6046 32.2513 89.8927 31.9634C89.8927 31.6754 90.1809 31.3874 90.1809 30.8115C90.1809 30.2356 90.469 29.6597 90.469 29.0838C90.469 28.5079 90.7571 27.9319 91.0452 27.356C91.0452 27.0681 91.3333 26.7801 91.0452 26.4922C90.7571 26.2042 90.469 25.9162 90.1809 25.9162C89.8927 25.9162 89.8927 25.9162 89.6046 25.9162H89.3165C89.3165 25.9162 89.3165 25.9162 89.0284 25.9162C88.7403 25.9162 88.4522 25.9162 88.4522 25.9162C88.4522 25.9162 88.164 25.9162 88.164 25.6283C87.8759 25.6283 87.8759 25.3403 87.5878 25.3403C87.2997 25.0524 87.0116 25.0524 86.7234 24.7644C86.4353 24.4764 85.8591 24.1885 85.571 23.9005C85.2829 23.6126 84.7066 23.3246 84.4185 23.0367C83.5542 22.4607 82.9779 21.8848 82.4017 21.5969C82.1136 21.3089 81.8254 21.021 81.2492 20.733C80.9611 20.733 80.9611 20.445 80.673 20.445C80.673 20.445 80.0967 20.1571 79.8086 20.1571C79.5205 20.1571 78.9443 20.1571 78.6562 20.445C76.6393 21.3089 74.9106 21.8848 72.8938 22.7487C72.0294 23.0367 70.877 23.6126 70.0126 23.9005C68.8601 24.1885 67.9958 24.7644 66.8433 25.0524C65.6908 25.6283 64.5384 25.9162 63.3859 26.4922C62.8097 26.7801 62.2334 27.0681 61.6572 27.0681C61.081 27.356 60.5047 27.644 59.9285 27.644C58.776 28.2199 57.6236 28.7958 56.4711 29.0838C55.6067 29.3717 54.4543 29.9477 53.3018 30.2356C53.0137 30.2356 52.7255 30.2356 52.7255 30.5236H52.4374C52.1493 30.5236 51.8612 30.8115 51.5731 31.0995C51.285 31.3874 51.285 31.9634 51.285 32.5393C51.285 33.1152 51.285 33.4032 51.285 33.9791C51.285 34.8429 51.285 35.7068 51.285 36.5707C51.285 37.4346 50.9968 38.2984 50.9968 39.1623C50.7087 40.0262 50.4206 40.8901 50.4206 41.466C50.4206 41.7539 50.1325 42.3299 49.8444 42.6178C49.5563 42.9058 49.5563 43.1937 49.5563 43.7696C49.5563 44.0576 49.8444 44.6335 50.1325 44.6335H50.4206C50.7087 44.6335 50.7087 44.6335 50.9968 44.9215C51.285 44.9215 51.8612 45.2094 52.1493 45.4974C52.7256 45.7854 53.5899 46.0733 54.1661 46.6492C54.7424 46.9372 55.3186 47.2251 55.6067 47.8011C55.8948 48.089 56.4711 48.377 56.7592 48.9529C57.0473 49.2408 57.0473 49.2408 57.3354 49.5288C57.3354 49.5288 57.3354 49.8168 57.6236 49.8168C57.6236 50.1047 57.6236 50.1047 57.3354 50.3927C57.3354 50.6806 57.3354 50.9686 57.3354 51.2565C57.6236 52.6963 58.4879 53.8482 59.6404 54.712C60.2166 55 60.5047 55.288 61.081 55.5759C57.6236 58.1675 54.4543 61.0471 51.5731 64.2147C50.1325 65.9424 48.98 67.6702 47.8275 69.3979C46.6751 71.4136 45.2345 73.1414 44.082 75.1571C41.7771 78.9005 40.0484 82.644 38.3197 86.6754C36.8791 90.7068 35.4385 95.0262 34.5741 99.3456C33.9979 101.361 33.7098 103.665 33.4217 105.681C33.1335 107.696 32.8454 110 32.5573 112.016C32.2692 114.319 32.2692 116.623 32.2692 119.215C32.2692 119.791 32.2692 120.366 32.2692 121.23C31.9811 121.23 31.4048 121.23 31.1167 121.23C28.2355 120.942 25.3544 120.079 22.4732 119.215C20.1682 118.351 18.1514 117.199 16.1346 115.759C13.8297 114.031 11.5247 111.728 9.50789 109.424C8.64353 107.12 7.20294 104.529 5.76236 101.649C4.60988 99.3456 4.03365 96.7539 3.45741 94.1623C3.1693 91.5707 2.88118 88.9791 3.1693 86.6754C3.74553 83.5079 4.32177 80.6283 5.47424 77.7487C6.33859 75.445 7.49106 73.1414 9.21977 70.8377C10.3722 69.11 11.8128 67.6702 13.2534 66.5183C13.5415 66.2304 13.8297 66.2304 14.1178 65.9424C14.9821 65.9424 15.5584 65.0785 15.2702 64.2147C15.2702 63.6387 14.4059 63.0628 13.8297 63.3508C12.9653 63.6387 12.3891 64.2147 11.8128 64.5026C11.2366 65.0785 10.6604 65.6545 9.796 66.2304C8.64353 67.6702 7.49106 69.11 6.33859 70.5497C4.32177 73.4293 2.59306 76.8848 1.72871 80.3403C0.576236 83.7958 0 87.5393 0 91.2827C0 95.0262 0.576235 98.4817 2.01682 101.937C3.74553 107.408 6.91483 112.304 10.9485 116.335ZM252.679 190.628C251.239 190.916 250.086 190.916 248.646 190.916C247.781 190.916 246.629 190.628 245.764 190.34C244.9 190.052 244.324 189.476 243.46 189.188C243.171 188.901 242.595 188.613 242.307 188.037C242.019 187.749 241.731 187.173 241.443 186.885C241.155 186.309 241.155 186.021 241.155 185.445C241.155 184.869 241.155 184.293 241.155 183.717C241.155 183.141 241.443 182.565 241.443 181.99C241.731 181.702 241.731 181.126 242.019 180.838C242.307 180.55 242.595 180.262 242.883 179.974C243.171 179.686 243.46 179.398 244.036 179.398C244.612 179.11 244.9 179.11 245.476 179.11C245.764 179.11 246.053 179.11 246.341 179.11C246.629 179.11 246.629 179.11 246.917 179.11C247.493 179.11 248.069 179.398 248.646 179.398C249.222 179.686 250.086 179.974 250.662 180.55C251.239 181.126 251.815 181.702 252.391 182.277C252.967 182.853 253.256 183.717 253.832 184.581C254.408 185.733 254.696 186.885 254.696 188.037C254.696 188.901 254.984 189.764 254.984 190.628C254.12 190.34 253.256 190.628 252.679 190.628ZM95.367 179.686C93.3502 179.398 91.6215 179.398 89.6046 179.11C87.8759 178.822 86.1472 178.534 84.4185 178.246C82.6898 177.958 80.9611 177.382 79.2324 177.094C76.9274 176.23 74.6225 175.654 72.3176 174.503C70.0126 173.351 67.7077 172.199 65.4027 170.759C64.2503 170.183 63.3859 169.319 62.5216 168.455C61.3691 167.592 60.2166 166.728 59.3523 165.864C57.3354 164.136 55.3186 162.12 53.3018 160.393C51.8612 158.665 50.4206 156.937 48.98 154.921C47.5394 153.194 46.387 151.178 45.2345 149.162C45.2345 149.162 45.2345 149.45 45.5226 149.45C45.2345 148.874 44.9464 148.586 44.9464 148.01C44.082 146.571 43.5058 145.131 42.9295 143.691C42.3533 142.251 41.7771 140.524 41.2008 139.084C40.0484 135.916 38.8959 132.749 38.3197 129.581C38.0315 128.141 37.7434 126.99 37.7434 125.55C40.0484 125.262 42.0652 124.974 44.3701 124.686C44.9464 128.141 45.8107 131.597 46.9632 135.052C47.5394 136.78 48.1157 138.508 48.6919 140.236C49.2681 141.963 50.1325 143.691 50.9968 145.419C51.8612 147.147 52.7256 148.874 53.878 150.602C55.0305 152.042 56.183 153.77 57.3354 155.209C59.6404 158.089 62.5216 160.681 65.4027 162.984C66.8433 164.136 68.2839 165.288 69.7245 166.152C71.4532 167.304 73.1819 168.168 74.9106 169.031C76.6393 169.895 78.368 170.471 79.8086 171.047C80.9611 171.335 81.8254 171.623 82.9779 171.911C83.8423 172.199 84.7066 172.487 85.571 172.487C86.4353 172.775 87.2997 172.775 88.164 173.063C89.0284 173.351 89.8927 173.351 90.7571 173.351C91.6215 173.351 92.4858 173.639 93.3502 173.639C94.2145 173.639 95.367 173.639 96.2313 173.927C97.0957 173.927 97.96 174.215 99.1125 174.215C100.265 174.503 101.129 174.503 102.282 174.503C102.858 174.503 103.434 174.503 104.011 174.503C105.739 174.503 107.756 174.215 109.485 174.215C111.502 174.215 113.23 173.927 115.247 173.639C116.111 173.639 116.976 173.639 117.84 173.351C118.705 173.351 119.857 173.063 120.721 172.775C121.586 172.487 122.738 172.487 123.603 172.199C124.467 171.911 125.331 171.623 126.196 171.335C127.924 170.759 129.653 169.895 131.382 169.031C131.382 169.031 131.67 169.031 131.67 168.743C133.687 167.592 135.992 166.152 137.72 164.712C139.737 163.272 141.754 161.832 143.483 160.105C143.771 159.817 144.059 159.817 144.059 159.529L144.347 159.241C146.076 157.513 147.804 155.785 149.533 154.058C150.397 153.194 150.974 152.33 151.838 151.466C152.702 150.314 153.279 149.162 154.143 148.01C155.872 145.419 157.312 143.115 158.753 140.524C159.329 139.372 160.193 137.932 160.482 136.492C161.058 135.052 161.634 133.901 161.922 132.461C162.498 130.733 163.075 128.717 163.651 126.99C164.227 125.262 164.515 123.534 165.091 121.518C165.38 119.791 165.956 118.063 166.244 116.047C166.532 114.319 166.82 112.304 166.82 110.576C167.108 108.56 167.108 106.832 167.108 104.817C167.108 103.089 167.108 101.073 166.82 99.3456C166.532 98.1937 166.532 97.0419 166.244 95.8901C166.532 95.8901 166.532 95.6021 166.82 95.6021C167.396 95.3141 167.685 95.0262 168.261 94.7382C168.837 94.4503 169.125 94.1623 169.701 94.1623C169.989 94.1623 169.989 93.8743 170.278 93.8743C170.566 93.8743 170.854 93.5864 170.854 93.5864C171.142 93.5864 171.43 93.5864 171.43 93.2984C171.718 94.7382 172.294 95.8901 172.583 97.3298C173.159 99.9215 173.447 102.225 173.735 104.817C174.023 107.12 174.023 109.712 173.735 112.304C173.735 114.319 173.447 116.047 173.159 118.063C172.871 120.079 172.294 122.094 172.006 124.11C171.142 127.853 169.989 131.597 168.837 135.628C168.261 137.644 167.396 139.66 166.532 141.675C165.956 142.827 165.668 143.691 165.091 144.843C164.515 145.707 163.939 146.571 163.363 147.435C162.498 148.874 161.346 150.314 160.193 151.754C159.041 153.194 157.889 154.921 156.736 156.361C155.584 157.801 154.143 159.241 152.991 160.393C151.838 161.545 150.397 162.984 148.957 164.136C146.94 165.864 144.635 167.592 142.33 169.319C141.178 170.183 139.737 171.047 138.585 171.911C137.432 172.775 136.28 173.351 135.127 173.927C131.958 175.367 128.789 176.806 125.331 177.67C123.314 177.958 121.586 178.534 119.569 178.822C118.705 178.822 117.552 179.11 116.688 179.11C115.823 179.11 114.671 179.398 113.807 179.398C111.79 179.686 109.485 179.974 107.468 179.974C105.163 179.974 103.146 180.262 100.841 180.262C99.4006 180.55 97.3838 179.974 95.367 179.686ZM45.8107 118.063C46.0988 114.607 46.387 111.152 46.9632 107.984C47.2513 106.257 47.5394 104.529 47.8275 102.801C48.1157 101.073 48.6919 99.3456 49.2681 97.9058C50.1325 95.0262 51.285 92.4346 52.4374 89.8429C53.5899 87.2513 55.0305 84.6597 56.7592 82.356C57.6236 81.2042 58.1998 80.0524 59.0641 78.9005C59.9285 77.7487 60.7928 76.5969 61.6572 75.445C63.3859 73.1414 65.4027 71.4136 67.7077 69.3979C68.8601 68.534 69.7245 67.6702 70.877 66.8063C72.0294 65.9424 73.1819 65.0785 74.6225 64.2147C76.9274 62.7749 79.2324 61.3351 81.5373 60.1833C81.8254 59.8953 82.4017 59.8953 82.6898 59.6073C83.8423 59.0314 85.2829 58.7435 86.4353 58.1675C88.7403 57.3037 91.3333 57.0157 93.9264 56.4398C95.367 56.1518 97.0957 55.8639 98.5363 55.5759C99.9769 55.288 101.706 55 103.146 54.712C104.875 54.4241 106.315 54.4241 108.044 54.1361C109.485 54.1361 110.925 54.1361 112.366 54.1361C114.671 54.4241 117.264 54.4241 119.569 55C121.874 55.5759 124.179 56.1518 126.484 56.7278C128.212 57.3037 129.941 57.8796 131.382 58.7435C132.246 59.0314 133.11 59.6073 133.975 59.8953C134.551 60.1833 135.415 60.7592 135.992 61.0471C138.297 62.4869 140.313 63.9267 142.33 65.6544C143.195 66.5183 144.347 67.3822 145.211 68.2461C145.788 68.822 146.076 69.11 146.652 69.6859C146.94 69.9738 147.516 70.5497 147.804 70.8377C148.669 71.9895 149.533 73.1414 150.397 74.2932C150.686 74.8691 151.262 75.445 151.55 76.0209C148.381 76.5969 144.923 77.4607 141.754 78.3246C139.737 78.9005 137.72 79.7644 135.703 80.6283C133.687 81.4921 131.958 82.644 129.941 83.7958C129.365 84.0838 128.789 84.6597 128.212 84.9476C127.06 85.5236 125.907 86.0995 125.043 86.6754C123.026 87.8272 121.298 88.6911 119.569 90.1309C115.823 92.7225 112.654 95.8901 109.485 99.3456C108.044 101.073 106.892 102.801 105.739 104.529C104.875 105.681 104.011 107.12 103.434 108.272C102.858 108.272 102.282 108.56 101.706 108.56C100.841 108.56 99.9769 108.56 99.1125 108.56C97.3838 108.56 95.6551 108.56 93.9264 108.272C91.6214 107.984 89.6046 107.696 87.2997 107.12C86.1472 106.832 85.2829 106.545 84.1304 106.257C82.9779 105.969 81.8254 105.681 80.673 105.105C80.673 105.105 80.673 105.105 80.3849 105.105H80.0967C79.8086 105.105 79.8086 104.817 79.5205 104.817H79.2324C78.9443 104.817 78.6562 104.529 78.368 104.529C78.0799 104.241 77.5037 104.241 77.2156 103.953C76.9274 103.665 76.3512 103.665 76.0631 103.377C75.775 103.089 75.4869 103.089 75.1987 102.801C74.9106 102.513 74.3344 102.225 74.0463 101.937C73.7581 101.649 73.47 101.649 73.1819 101.361C72.8938 101.073 72.6057 101.073 72.3176 100.785C72.8938 99.6335 73.47 98.4817 73.7581 97.3298C74.6225 94.7382 75.4869 92.1466 75.4869 89.267C75.4869 87.8272 75.4869 86.3874 75.1987 84.6597C74.9106 83.5079 74.6225 82.0681 74.0463 80.9162C72.8938 78.6126 70.5889 76.5969 67.9958 76.5969C66.5552 76.5969 65.4027 76.8848 64.2503 77.7487C63.3859 78.6126 62.5216 79.4764 61.9453 80.6283C60.5047 82.9319 60.2166 85.8115 60.2166 88.4031C60.5047 90.9948 61.081 93.5864 62.5216 95.8901C63.3859 97.0419 64.2503 98.1937 65.1146 99.3456C65.6908 100.209 66.5552 100.785 67.4196 101.649C67.7077 101.937 67.7077 101.937 67.9958 102.225C67.1314 103.665 66.2671 105.105 65.1146 106.545C63.3859 108.848 61.3691 110.864 59.0641 112.88C56.7592 114.895 53.878 116.335 50.9968 117.775C49.5563 118.351 47.8275 118.927 46.0988 119.503C45.8107 118.927 45.8107 118.639 45.8107 118.063ZM90.1809 160.969C90.7571 164.136 91.3333 167.016 92.4858 170.183C91.9096 170.183 91.6215 170.183 91.0452 169.895C89.6046 169.607 88.164 169.319 86.7234 169.031C85.2829 168.743 83.8423 168.455 82.1136 167.88C80.0967 167.304 78.0799 166.44 76.3512 165.864C74.3344 165 72.3176 163.848 70.5889 162.696C69.7245 162.12 68.8601 161.545 67.9958 160.969C67.1314 160.105 65.979 159.529 65.1146 158.665C63.3859 157.225 61.6572 155.497 59.9285 153.77C58.776 152.33 57.3354 150.602 56.183 149.162C55.0305 147.723 53.878 145.995 53.0137 144.267V144.555C52.7256 144.267 52.7256 143.691 52.4374 143.403C51.8612 142.251 51.285 140.812 50.7087 139.66C50.1325 138.508 49.5563 137.068 48.98 135.628C48.1157 133.037 47.2513 130.157 46.387 127.565C46.0988 126.414 45.8107 124.974 45.8107 123.822C47.5394 123.246 49.5563 122.67 51.285 121.806C53.878 120.654 56.183 119.215 58.1998 117.775C60.5047 116.047 62.5216 114.319 64.5384 112.016C66.2671 109.712 67.9958 107.408 69.4364 105.105C69.4364 104.817 69.7245 104.817 69.7245 104.529C69.7245 104.529 70.0126 104.529 70.0126 104.817C70.5889 105.105 70.877 105.393 71.4532 105.681C71.7413 105.969 72.3176 106.257 72.6057 106.545C73.1819 106.832 73.7581 107.12 74.0463 107.408C74.3344 107.696 74.6225 107.696 75.1987 107.984C75.775 108.272 76.0631 108.56 76.6393 108.56C77.5037 108.848 78.6562 109.424 79.5205 109.712C80.0967 110 80.673 110 81.2492 110.288C81.8254 110.576 82.4017 110.576 82.6898 110.864C83.5542 111.152 84.4185 111.44 85.2829 111.44C86.1472 111.728 87.2997 111.728 88.164 112.016C90.1809 112.304 92.4858 112.592 94.5026 112.592C96.5194 112.592 98.5363 112.304 100.553 112.016C98.8244 115.183 97.0957 118.639 95.6551 122.094C94.2145 126.126 92.7739 130.445 91.9096 134.764C91.3333 136.78 91.0452 139.084 90.7571 141.099C90.469 143.115 90.1809 145.419 89.8927 147.435C89.6046 149.738 89.6046 152.042 89.6046 154.634C89.8927 156.649 89.8927 158.953 90.1809 160.969ZM70.3007 81.4921C70.5889 81.7801 70.877 82.0681 70.877 82.644C71.1651 83.5079 71.4532 84.3717 71.7413 85.2356C72.0294 86.6754 72.0294 88.1152 71.7413 89.555C71.4532 91.5707 70.877 93.8743 70.0126 95.8901C69.7245 96.7539 69.1483 97.9058 68.8601 98.7696C67.7077 97.9058 66.5552 96.7539 65.6908 95.6021C64.8265 94.7382 64.2503 93.5864 63.674 92.4346C63.3859 91.5707 63.0978 90.4189 62.8097 89.555C62.5216 88.4031 62.5216 87.2513 62.8097 85.8115C62.8097 84.9476 63.0978 84.0838 63.3859 83.2199C63.674 82.644 63.9621 82.0681 64.2503 81.4921C64.5384 81.2042 64.8265 80.6283 65.4027 80.3403C65.6908 80.3403 65.6908 80.0524 65.979 80.0524C66.2671 80.0524 66.2671 80.0524 66.5552 79.7644C66.8433 79.7644 66.8433 79.7644 66.8433 79.7644C66.8433 79.7644 66.8433 79.7644 67.1314 79.7644C67.4196 79.7644 67.7077 79.7644 67.9958 80.0524C68.2839 80.3403 68.8601 80.3403 69.1483 80.6283C69.7245 80.9162 70.0126 81.2042 70.3007 81.4921ZM78.6562 104.817C78.6562 104.817 78.368 104.817 78.6562 104.817C78.368 104.817 78.6562 104.817 78.6562 104.817C78.6562 105.105 78.6562 105.105 78.6562 104.817C78.6562 105.105 78.6562 105.105 78.6562 104.817ZM103.434 163.272C103.146 161.545 102.858 160.105 102.57 158.377C102.282 156.649 102.282 155.209 102.282 153.482C102.57 150.026 102.858 146.571 103.434 143.403C103.722 141.675 104.011 139.948 104.299 138.22C104.587 136.492 105.163 134.764 105.739 133.325C106.604 130.445 107.756 127.853 108.909 125.262C110.061 122.67 111.502 120.079 113.23 117.775C114.095 116.623 114.671 115.471 115.535 114.319C116.4 113.168 117.264 112.016 118.128 110.864C119.857 108.56 121.874 106.832 124.179 104.817C125.331 103.953 126.196 103.089 127.348 102.225C128.501 101.361 129.653 100.497 131.094 99.6335C133.399 98.1937 135.703 96.7539 138.008 95.6021C138.297 95.3141 138.873 95.3141 139.161 95.0262C140.313 94.4503 141.754 94.1623 142.906 93.5864C145.211 92.7225 147.804 92.4346 150.397 91.8586C151.838 91.5707 153.567 91.2827 155.007 90.9948C156.448 90.7068 157.6 90.4189 159.041 90.4189C159.617 91.5707 159.905 92.4346 160.482 93.5864C161.058 94.7382 161.346 95.8901 161.922 97.3298C162.21 98.4817 162.498 99.6335 162.787 100.785C163.075 102.801 163.651 105.105 163.651 107.12C163.939 109.136 163.651 111.44 163.651 113.456C163.651 115.183 163.363 116.623 163.075 118.351C162.787 120.079 162.498 121.806 162.21 123.534C161.346 126.702 160.482 130.157 159.617 133.325C159.041 135.052 158.465 136.78 157.6 138.508C157.312 139.372 156.736 140.236 156.16 141.099C155.872 141.963 155.295 142.539 154.719 143.403C153.855 144.555 152.991 145.995 152.126 147.147C151.262 148.586 150.109 149.738 149.245 151.178C148.093 152.33 147.228 153.482 146.076 154.634C144.923 155.785 143.771 156.649 142.618 157.801C140.89 159.241 138.873 160.969 137.144 162.408C135.992 163.272 135.127 164.136 133.975 164.712C133.11 165.288 131.958 165.864 131.094 166.44C128.501 167.88 125.619 168.743 122.738 169.607C121.009 169.895 119.569 170.183 117.84 170.471C116.976 170.471 116.111 170.759 115.535 170.759C114.671 170.759 113.807 171.047 112.942 171.047C111.213 171.335 109.485 171.335 107.468 171.623C107.18 171.623 106.892 171.623 106.604 171.623C105.163 168.455 104.299 165.864 103.434 163.272ZM213.495 120.942C213.495 121.23 213.495 121.23 213.495 120.942C213.495 121.23 213.495 121.23 213.495 120.942C213.495 121.23 213.495 121.23 213.495 120.942C213.783 121.23 213.783 121.23 213.783 121.23C214.936 123.534 216.088 125.838 216.953 128.429C217.529 129.581 217.817 130.733 218.393 132.173C218.681 133.325 218.969 134.476 219.258 135.628C219.546 137.644 220.122 139.948 220.122 141.963C220.41 143.979 220.122 146.283 220.122 148.298C220.122 150.026 219.834 151.466 219.546 153.194C219.258 154.921 218.97 156.649 218.681 158.377C217.817 161.544 216.953 165 216.088 168.168C215.512 169.895 214.936 171.623 214.072 173.351C213.783 174.215 213.207 175.079 212.631 175.942C212.343 176.806 211.767 177.382 211.19 178.246C210.326 179.398 209.462 180.838 208.597 181.99C207.733 183.429 206.58 184.581 205.716 186.021C205.428 185.445 205.14 184.869 204.852 184.581C203.699 182.277 202.835 179.974 202.259 177.382C201.682 175.654 201.394 174.215 200.818 172.487C200.242 170.471 199.954 168.456 199.377 166.728C199.089 164.712 198.801 162.696 198.513 160.681C198.513 160.105 198.513 159.529 198.225 158.953C198.225 157.801 197.937 156.649 197.937 155.497C197.649 153.482 197.649 151.466 197.361 149.45C197.073 147.435 197.073 145.419 197.073 143.403C196.784 139.372 196.784 135.34 196.496 131.309C196.496 130.157 196.496 129.005 196.208 127.565C196.208 126.702 195.92 125.838 195.92 124.974C195.92 123.822 195.632 122.67 195.632 121.518C195.632 120.079 195.344 118.927 195.056 117.487C194.768 116.047 194.479 114.607 194.191 113.456C192.751 107.696 190.734 102.225 187.277 97.6178C185.836 95.6021 184.107 93.5864 182.379 91.8586H182.667C184.395 92.4346 186.124 93.0105 187.565 93.8743C188.429 94.1623 189.293 94.7382 190.158 95.0262C190.734 95.3141 191.598 95.8901 192.175 96.178C194.479 97.6178 196.496 99.0576 198.513 100.785C199.378 101.649 200.53 102.513 201.394 103.377C201.971 103.953 202.259 104.241 202.835 104.817C203.123 105.105 203.699 105.681 203.987 105.969C204.852 107.12 205.716 108.272 206.58 109.424C207.445 110.576 208.309 112.016 209.173 113.168C210.038 114.319 210.614 115.759 211.19 116.911C212.055 118.639 212.919 120.079 213.495 120.942C213.495 121.23 213.495 121.23 213.495 120.942ZM136.568 178.534C136.856 178.534 136.856 178.246 136.856 178.246C136.856 178.246 136.856 178.246 137.144 178.246C137.144 178.246 137.144 178.246 137.432 178.246C140.025 176.806 142.33 175.366 144.635 173.639C146.94 171.911 149.245 170.183 151.262 168.168C151.55 167.88 151.838 167.592 152.126 167.304C154.431 165.288 156.448 162.984 158.465 160.969C159.329 159.817 160.193 158.953 161.058 157.801C161.922 156.649 162.787 155.209 163.651 153.77C165.668 150.89 167.396 148.01 169.125 144.843C169.989 143.403 170.566 141.675 171.43 140.236C172.006 138.508 172.583 137.068 173.159 135.34C173.735 133.325 174.599 131.021 175.176 129.005C175.752 126.99 176.328 124.686 176.904 122.67C177.481 120.654 177.769 118.639 178.057 116.335C178.345 114.031 178.633 112.016 178.633 109.712C178.921 107.408 178.921 105.105 178.921 103.089C178.921 100.785 178.921 98.7696 178.633 96.7539C178.633 95.8901 178.345 95.0262 178.057 93.8743C180.074 95.6021 181.802 97.3298 183.531 99.0576C185.26 101.361 186.7 103.665 187.853 106.257C189.581 110 190.446 114.031 191.31 118.063V117.775V118.063C191.31 118.927 191.598 119.791 191.598 120.654C191.886 121.806 191.886 122.958 191.886 124.11C191.886 125.262 192.175 126.126 192.175 127.277C192.175 129.293 192.463 131.597 192.463 133.613C192.463 135.628 192.751 137.932 192.751 139.948C192.751 141.963 193.039 144.267 193.039 146.283C193.039 148.298 193.327 150.314 193.615 152.618C193.903 154.634 193.903 156.649 194.191 158.665C194.479 160.681 194.768 162.696 195.056 164.712C195.056 165.576 195.344 166.44 195.344 167.304C195.632 168.455 195.92 169.607 196.208 171.047C196.496 172.199 196.784 173.351 197.073 174.215C197.937 177.094 198.801 179.974 199.666 182.565C200.53 184.581 201.394 186.597 202.547 188.613C201.394 189.764 200.242 190.628 199.089 191.78C197.361 193.508 195.344 194.948 193.615 196.387C192.463 197.251 191.598 198.115 190.446 198.691C189.581 199.267 188.429 199.843 187.565 200.419C184.972 201.859 182.09 202.723 179.209 203.586C177.481 203.874 176.04 204.162 174.311 204.45C173.447 204.45 172.583 204.738 172.006 204.738C171.142 204.738 170.278 205.026 169.413 205.026C167.685 205.314 165.956 205.314 163.939 205.602C162.21 205.602 160.193 205.89 158.465 205.89C156.736 205.89 155.007 205.314 152.991 205.026C151.262 204.738 149.821 204.738 148.093 204.45C146.652 204.162 145.211 203.874 143.771 203.586C142.33 203.298 140.89 203.01 139.161 202.435C137.144 201.859 135.127 200.995 133.399 200.419C131.382 199.555 129.365 198.403 127.636 197.251C126.772 196.675 125.907 196.099 125.043 195.524C124.179 194.66 123.026 194.084 122.162 193.22C120.433 191.78 118.705 190.052 116.976 188.325C115.823 186.885 114.383 185.157 113.23 183.717C112.942 183.429 112.942 183.141 112.654 183.141C114.383 182.853 115.823 182.853 117.552 182.565C118.416 182.565 119.569 182.277 120.433 182.277C121.586 181.99 122.738 181.99 123.891 181.702C125.043 181.414 126.196 181.414 127.348 181.126C128.501 180.838 129.365 180.55 130.517 180.262C132.534 180.262 134.551 179.398 136.568 178.534C136.28 178.534 136.28 178.534 136.568 178.534C136.28 178.534 136.568 178.534 136.568 178.534ZM206.292 199.555C204.275 201.283 201.971 203.01 199.666 204.738C198.513 205.602 197.073 206.466 195.92 207.33C194.768 208.194 193.615 208.77 192.463 209.346C189.293 210.785 186.124 212.225 182.667 213.089C180.65 213.377 178.921 213.953 176.904 214.241C176.04 214.241 174.887 214.529 174.023 214.529C173.159 214.529 172.006 214.817 171.142 214.817C169.125 215.105 166.82 215.393 164.803 215.393C162.498 215.393 160.482 215.681 158.177 215.681C156.16 215.393 154.143 215.105 151.838 214.817C149.821 214.529 148.093 214.529 146.076 214.241C144.347 213.953 142.618 213.665 140.89 213.377C139.161 213.089 137.432 212.513 135.703 212.225C133.399 211.361 131.094 210.785 128.789 209.634C126.484 208.482 124.179 207.33 121.874 205.89C120.721 205.314 119.857 204.45 118.993 203.586C117.84 202.723 116.688 201.859 115.823 200.995C113.807 199.267 111.79 197.251 109.773 195.524C108.62 194.084 107.468 192.644 106.315 191.204C106.315 191.204 106.315 190.916 106.604 190.916C106.604 190.628 106.892 190.34 106.892 190.34C106.892 190.052 107.18 189.764 107.18 189.188C107.18 188.901 107.468 188.613 107.756 188.613C108.332 187.749 108.909 186.885 109.773 186.309C109.773 186.309 110.061 186.021 110.349 186.021C111.502 187.461 112.654 188.901 113.807 190.628C116.111 193.508 118.993 196.099 121.874 198.403C123.314 199.555 124.755 200.707 126.196 201.571C127.924 202.723 129.653 203.586 131.382 204.45C133.11 205.314 134.839 205.89 136.28 206.466C137.432 206.754 138.297 207.042 139.449 207.33C140.313 207.618 141.178 207.906 142.042 207.906C142.906 208.194 143.771 208.194 144.635 208.482C145.499 208.77 146.364 208.77 147.228 208.77C148.093 208.77 148.957 209.058 149.821 209.058C150.686 209.058 151.838 209.058 152.702 209.346C153.567 209.346 154.431 209.634 155.584 209.634C156.736 209.921 157.6 209.921 158.753 209.921C159.329 209.921 159.905 209.921 160.482 209.921C162.21 209.921 164.227 209.634 165.956 209.634C167.973 209.634 169.701 209.346 171.718 209.058C172.583 209.058 173.447 209.058 174.311 208.77C175.176 208.77 176.328 208.482 177.192 208.194C178.057 207.906 179.209 207.906 180.074 207.618C180.938 207.33 181.802 207.042 182.667 206.754C184.395 206.178 186.124 205.314 187.853 204.45C188.141 204.45 188.141 204.162 188.429 204.162C190.446 203.01 192.751 201.571 194.479 200.131C196.496 198.691 198.513 197.251 200.242 195.524C200.53 195.236 200.818 195.236 200.818 194.948C200.818 194.948 200.818 194.948 201.106 194.66C201.971 193.796 202.835 192.932 203.987 191.78C205.14 193.796 206.58 195.524 208.021 197.251C207.445 198.403 206.869 198.979 206.292 199.555ZM178.921 79.7644C181.802 80.3403 184.395 81.2042 187.277 81.7801C189.293 82.356 191.31 83.2199 193.039 84.0838C193.903 84.6597 195.056 84.9476 195.92 85.5236C196.784 86.0995 197.649 86.3874 198.513 86.9634C201.106 88.6911 203.699 90.4188 206.004 92.4346C207.157 93.2984 208.309 94.4503 209.462 95.3141C210.038 95.8901 210.614 96.466 211.19 96.7539C211.478 97.3298 212.055 97.6178 212.343 98.1937C213.495 99.3456 214.648 100.785 215.512 102.225C216.665 103.665 217.529 105.105 218.393 106.545C219.258 107.984 220.122 109.424 220.986 110.864C221.851 112.304 222.715 113.743 223.291 115.471C223.291 115.471 223.291 115.471 223.291 115.759C224.732 118.351 225.884 121.23 227.037 124.11C227.613 125.55 228.189 126.99 228.766 128.429C229.054 129.869 229.63 131.021 229.918 132.461C230.494 135.052 230.782 137.356 231.07 139.948C231.359 142.251 231.359 144.843 231.07 147.435C231.07 149.45 230.782 151.178 230.494 153.194C230.206 155.209 229.63 157.225 229.342 159.241C228.477 162.984 227.325 166.728 226.172 170.759C225.596 172.775 224.732 174.791 223.867 176.806C223.291 177.958 223.003 178.822 222.427 179.974C221.851 180.838 221.274 181.702 220.698 182.565C219.834 184.005 218.681 185.445 217.529 186.885C216.376 188.325 215.224 190.052 214.072 191.492C213.207 192.644 212.055 193.508 211.19 194.66C210.902 194.372 210.614 194.084 210.614 193.796C209.462 192.356 208.309 190.916 207.445 189.188V188.901C208.021 188.325 208.597 187.461 209.173 186.885C210.038 185.733 210.614 184.581 211.478 183.429C213.207 180.838 214.648 178.534 216.088 175.942C216.665 174.791 217.529 173.351 217.817 171.911C218.393 170.471 218.969 169.319 219.258 167.88C219.834 166.152 220.41 164.136 220.986 162.408C221.563 160.681 221.851 158.953 222.427 156.937C222.715 155.209 223.291 153.482 223.579 151.466C223.867 149.738 224.156 147.723 224.156 145.995C224.444 143.979 224.444 142.251 224.444 140.236C224.444 138.508 224.444 136.492 224.156 134.764C223.868 132.749 223.579 130.733 223.003 129.005C222.715 128.141 222.427 127.277 222.139 126.702C221.851 125.838 221.563 124.974 220.986 124.11C220.122 122.382 219.258 120.366 218.105 118.639C217.241 116.911 216.088 115.471 215.224 113.743C214.36 112.016 213.207 110.576 212.343 108.848C211.19 107.408 210.038 105.969 208.885 104.529C208.309 103.665 207.445 103.089 206.869 102.225C206.292 101.649 205.428 100.785 204.564 100.209C203.123 99.0576 201.682 97.9058 200.242 96.7539C198.801 95.6021 197.073 94.4503 195.344 93.5864C193.903 92.7225 192.175 91.5707 190.446 90.9948C188.717 90.1309 186.988 89.267 185.26 88.6911C183.243 88.1152 181.514 87.5393 179.497 86.9634C178.057 86.6754 176.904 86.3874 175.464 86.0995C175.176 85.8115 174.887 85.8115 174.599 85.5236C173.735 84.9476 172.871 85.2356 172.006 85.5236C170.854 85.5236 169.413 85.2356 168.261 85.2356H167.973C167.973 85.2356 167.973 85.2356 168.261 85.2356H167.973H167.685C167.108 85.2356 166.532 85.2356 166.244 85.2356C164.515 85.2356 162.498 85.5236 160.77 85.5236C159.041 85.8115 157.024 86.0995 155.295 86.3874C151.55 87.2513 147.804 87.8272 144.059 88.9791C142.33 89.555 140.601 90.1309 138.873 90.9948C137.144 91.8586 135.703 92.7225 133.975 93.5864C133.399 93.8744 133.11 94.1623 132.534 94.4503C131.67 95.0262 130.805 95.3141 129.653 95.8901C127.924 96.7539 126.484 97.6178 125.043 98.7696C121.874 101.073 118.993 103.665 116.4 106.545C115.247 107.984 114.095 109.424 113.23 110.864C112.078 112.592 111.213 114.031 110.061 115.759C108.044 118.927 106.604 122.094 105.163 125.55C103.722 129.005 102.858 132.749 101.994 136.492C101.706 138.22 101.129 139.948 101.129 141.963C100.841 143.691 100.553 145.419 100.553 147.435C100.265 149.45 100.265 151.466 100.265 153.482C100.265 155.209 100.553 157.225 100.841 158.953C101.417 162.696 102.57 166.152 103.722 169.607C103.722 169.895 104.011 170.183 104.011 170.471C103.434 170.471 102.858 170.471 102.282 170.471C100.553 170.471 98.8244 169.895 96.8076 169.607C96.2313 167.88 95.6551 165.864 95.0789 164.136C94.7907 162.12 94.2145 160.393 93.9264 158.377C93.6383 156.361 93.6383 154.634 93.6383 152.618C93.9264 148.586 94.2145 144.555 95.0789 140.812C95.367 138.796 95.6551 136.78 96.2313 134.764C96.8076 132.749 97.3838 131.021 97.96 129.005C99.1125 125.838 100.265 122.67 101.706 119.503C103.146 116.335 104.875 113.456 106.604 110.576C107.468 109.136 108.332 107.984 109.197 106.545C110.061 105.105 111.213 103.665 112.078 102.513C114.095 99.9215 116.688 97.6178 118.993 95.3141C120.145 94.1623 121.586 93.2984 122.738 92.1466C124.179 90.9948 125.619 90.1309 127.06 88.9791C129.653 87.2513 132.246 85.8115 135.127 84.3717C135.415 84.0838 135.992 84.0838 136.28 83.7958C137.72 83.2199 139.161 82.644 140.601 82.356C143.483 81.4921 146.364 80.9162 149.245 80.0524C150.974 79.7644 152.991 79.1885 154.719 78.9005C156.448 78.6126 158.465 78.3246 160.193 78.0367C162.21 77.7487 163.939 77.7487 165.956 77.4607C167.685 77.1728 169.413 77.1728 171.142 77.4607C173.447 78.9005 176.04 79.1885 178.921 79.7644ZM174.887 70.8377C175.752 69.6859 176.904 68.822 177.769 67.6702C179.785 65.0785 181.802 62.4869 183.819 59.8953L183.531 60.1833C183.819 59.8953 183.819 59.6073 184.107 59.6073C184.107 59.6073 184.107 59.6073 184.107 59.3194C184.107 59.3194 184.107 59.3194 184.107 59.0314C184.107 59.0314 184.107 59.0314 184.107 58.7435C185.26 57.3037 186.124 55.8639 186.988 54.4241C188.717 51.8325 190.158 48.9529 191.886 46.0733C192.463 44.9215 193.327 43.7696 194.191 42.3298C194.479 41.7539 194.768 41.178 195.344 40.6021C195.92 40.0262 196.208 39.1623 196.784 38.5864C197.649 37.4346 198.513 36.2827 199.377 35.4189C199.954 34.555 200.53 33.9791 201.394 33.1152C202.835 31.6754 204.275 30.2356 205.716 29.0838C207.733 27.356 209.75 25.9162 212.055 25.0524C212.919 24.7644 214.071 24.1885 215.224 24.1885C215.8 24.1885 216.665 24.1885 217.241 24.1885C217.817 24.1885 218.393 24.4764 218.969 24.4764C218.969 25.3403 219.546 25.6283 219.834 25.9162C220.41 26.2042 220.698 26.7801 220.986 27.0681C221.274 27.644 221.563 28.2199 221.851 28.7958C222.139 29.6597 222.427 30.5236 222.715 31.3874C223.003 32.8272 223.003 33.9791 222.715 35.4189C222.427 37.1466 222.139 38.5864 221.563 40.0262C220.698 42.6178 219.258 44.9215 217.529 46.9372C215.8 49.5288 213.495 51.8325 211.478 53.8482C210.614 54.4241 210.038 55.288 209.173 55.8639C208.309 56.7278 207.445 57.3037 206.58 58.1675C205.14 59.3194 203.411 60.4712 201.682 61.623C200.818 62.199 199.954 62.7749 199.089 63.3508C198.513 63.6387 197.937 63.9267 197.361 64.2147C195.92 64.7906 194.768 65.3665 193.615 66.2304C193.039 66.5183 192.175 66.8063 191.598 67.0942C191.022 67.3822 190.446 67.6702 189.581 67.9581C188.717 68.2461 188.141 68.534 187.277 68.822C186.7 69.1099 186.124 69.3979 185.548 69.3979C184.107 69.9738 182.667 70.2618 181.226 70.8377C180.362 71.1257 179.209 71.4136 178.345 71.7016C177.769 71.9895 177.192 71.9895 176.328 72.2775C175.752 72.5655 175.176 72.5654 174.311 72.8534C173.447 73.1414 172.583 73.1414 172.006 73.4293C173.159 72.2775 174.023 71.4136 174.887 70.8377ZM160.482 48.089C159.617 45.7853 158.753 43.7696 157.889 41.466C156.736 38.5864 155.584 35.7068 154.719 32.5393C154.143 31.0995 153.855 29.9477 153.567 28.5079C153.279 27.9319 153.279 27.0681 152.991 26.4922C152.991 25.9162 152.702 25.0524 152.702 24.4764C152.702 23.6126 152.414 22.4607 152.414 21.5969C152.414 21.021 152.414 20.1571 152.126 19.5812C152.126 18.4293 152.126 17.2775 152.126 16.1257C152.414 13.822 152.702 11.2304 153.567 8.92671C153.855 8.06284 154.431 7.19896 154.719 6.62305C155.295 6.33509 155.584 6.04713 155.872 5.75917C156.16 5.47121 156.448 5.47121 156.736 5.18326C157.024 5.18326 157.312 4.8953 157.6 4.8953C157.889 4.8953 158.177 4.8953 158.177 4.8953C158.465 4.8953 158.753 4.8953 158.753 4.8953C159.617 4.8953 160.482 5.18326 161.346 5.47121C162.498 6.04713 163.651 6.62305 164.803 7.48692C165.956 8.3508 167.108 9.50263 168.261 10.9424C169.701 12.9581 170.854 14.9738 172.006 16.9895C172.294 17.8534 172.871 19.0052 173.159 19.8691C173.447 20.445 173.447 21.021 173.735 21.5969C174.023 22.1728 174.023 22.4607 174.311 23.0367C174.311 23.3246 174.599 23.9005 174.599 24.1885C174.887 25.0524 175.176 26.2042 175.464 27.0681C175.752 28.2199 176.04 29.0838 176.04 30.2356C176.04 31.0995 176.328 31.9634 176.616 33.1152C176.904 34.8429 176.904 36.5707 177.192 38.2984C177.192 38.8744 177.192 39.7382 177.192 40.3141C177.192 40.8901 177.192 41.466 177.192 42.0419C177.192 42.3299 177.192 42.9058 177.192 43.1937C177.192 44.0576 176.904 44.9215 176.904 45.7853C176.904 46.3613 176.904 46.6492 176.616 47.2251C176.616 48.089 176.328 48.9529 176.328 49.8168C176.328 50.3927 176.04 51.2565 176.04 51.8325C176.04 52.4084 175.752 53.2723 175.752 53.8482C175.464 54.712 175.464 55.5759 175.176 56.4398C175.176 57.0157 174.887 57.5916 174.887 58.1675C174.599 59.0314 174.311 60.1833 174.023 61.0471C173.735 62.199 173.159 63.6387 172.583 64.7906C172.294 65.6545 171.718 66.5183 171.43 67.3822C171.142 67.9581 170.854 68.822 170.278 69.3979C169.989 69.9738 169.701 70.8377 169.125 71.4136C169.125 70.8377 168.837 70.2618 168.837 69.3979C168.549 68.534 168.549 67.9581 168.261 67.0942C167.973 65.6544 167.396 64.5026 167.108 63.0628C166.532 61.623 165.956 60.1833 165.38 58.7435C164.803 57.3037 164.227 55.8639 163.363 54.4241C162.21 52.6963 161.346 50.3927 160.482 48.089ZM85.8591 35.1309C85.2829 35.4189 84.7066 35.7068 84.4185 36.2827C84.1304 36.5707 83.5542 37.1466 83.266 37.4346C82.9779 37.7225 82.6898 38.2984 82.4017 38.5864C82.1136 38.2984 82.1136 37.7225 81.8254 37.4346C81.5373 36.8586 81.2492 35.9948 80.9611 35.4189C80.673 34.555 80.3849 33.4032 80.0967 32.5393C80.3849 32.5393 80.673 32.2513 80.9611 32.2513C81.8254 31.9634 82.6898 31.3874 83.5542 31.0995C84.4185 30.8115 85.2829 30.2356 86.1472 29.9477C86.7234 29.6597 87.0116 29.6597 87.5878 29.3717H87.8759C87.8759 30.2356 87.5878 31.3874 87.5878 32.2513C87.5878 33.1152 87.5878 33.6911 87.5878 34.555V34.8429C87.0116 34.555 86.7234 34.555 86.4353 34.555C86.1472 34.8429 86.1472 34.8429 85.8591 35.1309ZM69.1483 42.3298C68.8601 42.9058 68.572 43.1937 68.2839 43.7696C68.2839 44.0576 67.9958 44.3456 67.9958 44.6335C67.9958 44.9215 67.7077 45.2094 67.7077 45.2094V45.4974C67.7077 45.4974 67.7077 45.4974 67.7077 45.7853C67.4196 45.4974 67.4196 45.2094 67.1314 44.9215C66.8433 44.3456 66.2671 43.7696 65.979 43.1937C65.6908 42.9058 65.6908 42.6178 65.4027 42.3298C65.1146 42.0419 65.1146 41.7539 64.8265 41.466C64.5384 41.178 64.2503 40.8901 64.2503 40.6021C64.2503 40.3141 63.9621 40.3141 63.9621 40.0262C63.9621 40.0262 64.2503 40.0262 64.2503 39.7382C64.8265 39.4503 65.4027 39.1623 65.6908 39.1623C66.2671 38.8744 66.5552 38.8744 67.1314 38.5864C69.1483 37.7225 70.877 36.8586 72.8938 35.9948C73.47 35.7068 73.7581 35.7068 74.3344 35.4189C74.9106 35.1309 75.1987 35.1309 75.775 34.8429C76.6393 34.555 77.5037 33.9791 78.6562 33.6911C79.2324 33.4031 79.5205 33.4032 80.0967 33.1152C80.3849 33.6911 80.3849 34.267 80.673 34.8429C80.9611 35.4189 80.9611 35.7068 81.2492 36.2827C81.5373 36.8587 81.5373 37.4346 81.8254 37.7225C81.8254 38.0105 81.8254 38.0105 82.1136 38.2984C81.8254 38.2984 81.2492 38.0105 80.9611 38.0105C80.3849 38.0105 80.0967 38.0105 79.5205 37.7225C79.2324 37.7225 78.6562 37.7225 78.368 37.7225C77.7918 37.7225 77.2156 38.0105 76.6393 38.0105C76.0631 38.2984 75.775 38.2984 75.1987 38.5864C74.6225 38.8744 74.3344 39.1623 73.7581 39.1623C73.47 39.4503 72.8938 39.7382 72.6057 40.0262C70.5889 40.6021 69.7245 41.466 69.1483 42.3298ZM62.8097 45.7853C61.6572 46.0733 60.5047 46.6492 59.6404 47.2251L59.3523 46.9372C59.0641 46.6492 58.4879 46.0733 58.1998 45.7853C57.9117 45.4974 57.3354 45.2094 56.7592 44.9215C55.8948 44.6335 55.3186 44.3456 54.4543 44.0576C54.4543 44.0576 54.4543 44.0576 54.1661 44.0576C53.878 43.7696 53.3018 43.7696 53.0137 43.4817H53.3018C53.878 43.1937 54.4543 43.1937 54.7424 42.9058C55.6067 42.6178 56.7592 42.3299 57.6236 42.0419C57.9117 41.7539 58.4879 41.7539 58.776 41.466C59.3523 41.178 59.9285 41.178 60.2166 40.8901C60.7928 40.6021 61.3691 40.3141 61.9453 40.0262C62.2334 40.3141 62.5216 40.8901 62.8097 41.178C63.0978 41.466 63.3859 42.0419 63.674 42.3298C63.9621 42.6178 64.2503 43.1937 64.5384 43.4817C64.8265 43.7696 65.1146 44.3456 65.4027 44.6335C65.6908 44.9215 65.6908 45.2094 65.979 45.4974C65.6908 45.4974 65.4027 45.4974 65.1146 45.4974C64.5384 45.4974 63.9621 45.4974 63.674 45.4974C63.674 45.7854 63.0978 45.7853 62.8097 45.7853C62.5216 45.7853 62.5216 45.7853 62.8097 45.7853ZM79.2324 31.6754C79.2324 31.6754 79.2324 31.3874 79.2324 31.6754C78.9443 31.3874 78.9443 31.3874 78.6562 31.0995C78.368 30.8115 78.0799 30.5236 78.0799 30.2356C77.5037 29.6597 77.2156 29.0838 76.6393 28.5079C76.3512 28.2199 76.0631 27.9319 75.775 27.644C75.4869 27.356 75.1987 27.0681 74.9106 26.7801C74.9106 26.2042 74.6225 25.9162 74.0463 25.3403C74.9106 25.0524 75.4869 24.7644 76.3512 24.4764C76.9274 24.1885 77.5037 23.9005 78.0799 23.9005C78.368 23.6126 78.9443 23.6126 79.2324 23.3246C79.5205 23.3246 79.5205 23.6126 79.8086 23.6126C80.3849 23.9005 80.673 24.1885 81.2492 24.4764C82.4017 25.0524 83.5542 25.9162 84.7066 26.4922C85.2829 26.7801 85.8591 27.356 86.4353 27.644C86.7234 27.644 87.0116 27.9319 87.2997 27.9319C87.0116 27.9319 86.7234 28.2199 86.4353 28.2199C85.8591 28.5079 85.571 28.5079 84.9947 28.7958C84.4185 29.0838 84.1304 29.0838 83.5542 29.3717C82.6898 29.6597 81.8254 30.2356 80.9611 30.5236C80.3849 31.0995 79.8086 31.3874 79.2324 31.6754ZM54.1661 35.9948C54.1661 35.4189 54.1661 34.8429 54.1661 34.267C54.1661 33.9791 54.1661 33.6911 54.1661 33.4032C54.4543 33.1152 54.7424 33.1152 55.0305 33.1152C55.3186 32.8272 55.6067 32.8272 55.8948 32.5393C57.6236 31.6754 59.0641 31.0995 60.7929 30.5236V30.8115C60.7929 31.0995 60.7929 31.6754 60.7929 31.9634C60.7929 32.8272 61.081 33.6911 61.081 34.8429C61.081 35.7068 61.3691 36.5707 61.3691 37.4346C61.3691 37.7225 61.3691 37.7225 61.3691 38.0105V38.2984C61.3691 38.5864 61.3691 38.5864 61.3691 38.8744C61.3691 39.1623 61.3691 39.1623 61.3691 39.4503C59.9285 40.0262 58.776 40.6021 57.3354 41.178C56.4711 41.466 55.3186 41.7539 54.4543 42.0419C53.5899 42.3299 52.7256 42.6178 52.1493 42.6178C52.1493 42.3299 52.4374 41.7539 52.4374 41.466C52.7256 40.6021 53.0137 39.7382 53.0137 38.8744C53.878 38.0105 54.1661 37.1466 54.1661 35.9948ZM63.0978 39.1623C63.0978 38.8744 63.0978 38.8744 63.0978 39.1623C63.0978 38.8744 63.0978 38.8744 63.0978 38.8744V38.5864V38.2984C63.0978 38.0105 63.0978 38.0105 63.0978 37.7225C63.0978 37.4346 63.0978 37.4346 63.0978 37.1466C63.0978 36.5707 62.8097 36.2827 62.8097 35.7068C62.8097 35.1309 62.5216 34.8429 62.5216 34.267C62.5216 33.6911 62.5216 33.4031 62.2334 32.8272C62.2334 31.9634 62.2334 31.3874 61.9453 30.5236C63.9621 29.6597 65.6908 28.7958 67.7077 28.2199C69.4364 27.644 71.1651 26.7801 73.1819 26.2042C73.7581 26.7801 74.0463 27.0681 74.6225 27.644C74.9106 27.9319 75.1987 28.2199 75.4869 28.7958C75.775 29.0838 76.0631 29.3717 76.3512 29.6597C76.9274 30.2356 77.5037 30.8115 77.7918 31.6754C78.0799 31.9634 78.0799 32.2513 78.368 32.5393C78.0799 32.5393 78.0799 32.8272 77.7918 32.8272C76.9274 33.4031 76.0631 33.6911 74.9106 34.267C74.0463 34.8429 73.1819 35.1309 72.0294 35.4189C71.1651 35.7068 70.3007 36.2827 69.1483 36.5707C68.2839 36.8586 67.1314 37.4346 66.2671 37.7225C65.4027 38.0105 64.2503 38.5864 63.3859 38.8744C63.674 38.8744 63.3859 38.8744 63.0978 39.1623ZM60.5047 52.6963C60.2166 52.4084 59.9285 51.8325 59.6404 51.5445C59.6404 51.2565 59.3523 50.9686 59.3523 50.6806C59.6404 50.6806 59.6404 50.6806 59.9285 50.6806C60.7928 50.3927 61.081 49.2408 60.5047 48.6649C60.5047 48.6649 60.5047 48.377 60.7929 48.377C61.081 48.089 61.3691 47.8011 61.6572 47.8011C62.2334 47.5131 62.8097 47.5131 63.3859 47.2251C63.674 47.2251 63.9621 47.2251 64.2503 46.9372C64.5384 46.9372 64.8265 46.9372 65.1146 46.9372C65.6908 46.9372 65.979 46.9372 66.5552 46.9372C66.8433 46.9372 67.1314 46.9372 67.4196 46.9372C67.4196 46.9372 67.7077 47.2251 67.9958 47.2251H68.2839C68.572 46.9372 68.572 46.6492 68.572 46.3613V46.0733C68.8601 45.4974 69.1483 44.9215 69.4364 44.0576C70.0126 43.4817 70.5889 42.6178 71.1651 42.0419C71.4532 41.7539 71.7413 41.466 72.0294 41.178C72.3176 40.8901 72.6057 40.6021 73.1819 40.6021C73.47 40.3141 74.0463 40.3141 74.3344 40.0262C74.6225 40.0262 75.1987 39.7382 75.4869 39.7382C76.0631 39.7382 76.3512 39.4503 76.9274 39.4503C77.5037 39.4503 77.7918 39.4503 78.368 39.4503C78.6562 39.4503 79.2324 39.4503 79.5205 39.7382C79.8086 39.7382 80.0967 40.0262 80.3849 40.0262C80.673 40.0262 80.9611 40.3141 81.2492 40.3141C81.2492 40.3141 81.2492 40.3141 81.5373 40.3141L81.8254 40.6021C82.1136 40.6021 82.1136 40.3141 82.1136 40.3141C82.6898 39.4503 83.5542 38.8744 84.1304 38.2984C84.7066 37.7225 85.2829 37.4346 85.8591 37.1466C86.4353 36.8586 86.7234 36.8586 87.2997 36.5707C87.5878 36.5707 88.164 36.2827 88.4522 36.2827H88.7403C89.0284 36.2827 89.3165 36.2827 89.6046 36.5707C89.8927 36.5707 90.1809 36.8587 90.1809 36.8587C90.469 37.1466 90.469 37.1466 90.7571 37.4346C91.0452 37.7225 91.3333 38.0105 91.3333 38.2984C91.6215 38.5864 91.6214 38.8744 91.6214 39.4503C91.6214 39.7382 91.9096 40.0262 91.9096 40.3141C91.9096 40.6021 91.9096 40.6021 91.9096 40.8901C91.9096 41.178 91.9096 41.466 91.6214 41.7539C91.6214 41.7539 91.6214 41.7539 91.6214 42.0419C89.0284 42.6178 86.4353 43.1937 83.8423 44.0576C81.8254 44.6335 79.8086 45.4974 77.7918 46.3613C75.775 47.2251 74.0463 48.377 72.0294 49.5288C71.4532 49.8168 70.877 50.3927 70.3007 50.6806C69.1483 51.2565 67.9958 51.8325 67.1314 52.4084C65.6908 53.2723 64.5384 53.8482 63.0978 54.712H62.8097H62.5216C61.9453 54.4241 61.6572 54.4241 61.3691 54.1361C61.3691 53.2723 61.081 52.9843 60.5047 52.6963ZM37.7434 106.545C38.0315 104.529 38.3197 102.513 38.8959 100.497C39.4721 98.4817 40.0484 96.7539 40.6246 94.7382C41.7771 91.5707 42.9295 88.4031 44.3701 85.2356C45.8107 82.0681 47.5394 79.1885 49.2681 76.3089C50.1325 74.8691 50.9968 73.7173 51.8612 72.2775C52.7256 70.8377 53.878 69.3979 54.7424 68.2461C56.7592 65.6545 59.3523 63.3508 61.6572 61.0471C62.8097 59.8953 64.2503 59.0314 65.4027 57.8796C66.8433 56.7278 68.2839 55.8639 69.7245 54.712C72.3176 52.9843 74.9106 51.5445 77.7918 50.1047C78.0799 49.8168 78.6562 49.8168 78.9443 49.5288C80.3849 48.9529 81.8254 48.377 83.266 48.089C86.1472 47.2251 89.0284 46.6492 91.9096 45.7853C93.6383 45.4974 95.6551 44.9215 97.3838 44.6335C99.1125 44.3456 101.129 44.0576 102.858 43.7696C104.875 43.4817 106.604 43.4817 108.62 43.1937C110.349 42.9058 112.078 42.9058 113.807 43.1937C116.688 43.4817 119.569 43.7696 122.45 44.3456C125.331 44.9215 127.924 45.4974 130.805 46.3613C132.822 46.9372 134.839 47.8011 136.568 48.6649C137.432 49.2408 138.585 49.5288 139.449 50.1047C140.313 50.6806 141.178 50.9686 142.042 51.5445C144.635 53.2723 147.228 55 149.533 57.0157C150.686 57.8796 151.838 59.0314 152.991 59.8953C153.567 60.4712 154.143 61.0471 154.719 61.3351C155.007 61.911 155.584 62.199 155.872 62.7749C157.024 63.9267 158.177 65.3665 159.041 66.8063C160.193 68.2461 161.058 69.6859 161.922 71.1257C162.498 71.9895 162.787 72.8534 163.363 73.7173C162.787 73.7173 161.922 73.7173 161.346 74.0052C159.617 74.2932 158.177 74.5812 156.448 74.8691C156.16 74.2932 155.872 73.7173 155.584 73.1414C154.431 71.7016 153.279 70.2618 152.126 68.822C151.55 67.9581 150.686 67.3822 150.109 66.5183C149.533 65.9424 148.669 65.0785 147.804 64.5026C146.364 63.3508 144.923 62.199 143.483 61.0471C142.042 59.8953 140.313 58.7435 138.585 57.8796C137.144 57.0157 135.415 55.8639 133.687 55.288C131.958 54.4241 130.229 53.5602 128.501 52.9843C126.484 52.4084 124.755 51.8325 122.738 51.2565C121.009 50.9686 119.281 50.3927 117.264 50.1047C115.247 49.8168 113.518 49.8168 111.502 49.5288H111.213C111.213 49.5288 111.213 49.5288 111.502 49.5288H111.213H110.925C110.349 49.5288 109.773 49.5288 109.485 49.5288C107.756 49.5288 105.739 49.8168 104.011 49.8168C102.282 50.1047 100.265 50.3927 98.5363 50.6806C94.7907 51.5445 91.0452 52.1204 87.2997 53.2723C85.571 53.8482 83.8423 54.4241 82.1136 55.288C80.3849 56.1518 78.9443 57.0157 77.2156 57.8796C76.6393 58.1675 76.3512 58.4555 75.775 58.7435C74.9106 59.3194 74.0463 59.6073 72.8938 60.1833C71.1651 61.0471 69.7245 61.911 68.2839 63.0628C65.1146 65.3665 62.2334 67.9581 59.6404 70.8377C58.4879 72.2775 57.3354 73.7173 56.4711 75.1571C55.3186 76.8848 54.4543 78.3246 53.3018 80.0524C51.285 83.2199 49.8444 86.3874 48.4038 89.8429C46.9632 93.2984 46.0988 97.0419 45.2345 100.785C44.9464 102.513 44.3701 104.241 44.3701 106.257C44.082 107.984 43.7939 109.712 43.7939 111.728C43.5058 113.743 43.5058 115.759 43.5058 117.775C43.5058 118.063 43.5058 118.639 43.5058 118.927C42.6414 119.215 41.489 119.503 40.6246 119.503C39.4721 119.791 38.0315 119.791 36.8791 119.791C36.8791 118.927 36.8791 117.775 36.8791 116.911C36.591 114.319 36.8791 110.288 37.7434 106.545Z" fill="#329363"/>
<path d="M56.183 4.03141C56.183 4.31937 56.4711 4.31937 56.4711 4.60733C57.3354 6.91099 58.4879 9.21466 59.3523 11.5183C59.6404 12.0942 60.2166 12.6702 60.7929 12.6702C61.081 12.6702 61.3691 12.6702 61.6572 12.3822C61.9453 12.0942 62.2334 11.8063 62.5216 11.5183C62.5216 10.9424 62.5216 10.6544 62.2334 10.3665C62.2334 10.0785 61.9453 9.79058 61.9453 9.79058C61.081 7.77487 60.2166 5.4712 59.3523 3.4555C59.3523 3.16754 59.3523 2.59162 59.0641 2.30366C58.776 2.01571 58.776 1.72775 58.4879 1.72775C57.9117 1.43979 57.3354 1.43979 56.7592 1.72775C56.183 2.01571 55.8949 2.59162 55.8949 3.4555C55.8949 3.74346 55.8949 4.03141 56.183 4.31937C56.183 3.74345 56.183 3.74345 56.183 4.03141Z" fill="#329363"/>
<path d="M84.1304 9.79058H84.4185C84.7066 9.79058 84.9947 9.79057 85.2829 9.50262C85.571 9.21466 85.8591 8.9267 86.1472 8.35078C86.4353 6.33508 86.4353 4.03141 86.4353 1.72775C86.4353 1.43979 86.7235 1.15183 86.4353 0.863874C86.4353 0.287958 85.8591 0 85.2829 0C84.7066 0 84.1304 0.575916 84.1304 0.863874C84.1304 1.15183 84.1304 1.15183 84.1304 1.43979C83.8423 3.4555 83.266 5.4712 82.9779 7.77487C82.6898 8.63874 83.266 9.50262 84.1304 9.79058Z" fill="#329363"/>
<path d="M33.7098 30.5236C34.5741 30.8115 35.1504 31.0995 36.0147 31.3874C37.7434 32.2513 39.4721 33.1152 41.2008 33.9791C41.489 34.267 42.0652 34.267 42.3533 34.267C43.2177 34.267 44.082 33.9791 44.3701 33.1152C44.6583 32.5393 44.6583 31.9634 44.6583 31.0995C44.3701 30.5236 44.082 29.9477 43.5058 29.6597C40.9127 28.5079 38.0316 27.644 35.4385 26.2042C33.9979 25.3403 32.2692 26.2042 31.693 27.9319C31.4048 28.7958 32.2692 30.2356 33.7098 30.5236Z" fill="#329363"/>
<path d="M116.4 13.2461V13.534C116.4 13.822 116.4 13.822 116.4 14.11C116.4 14.11 116.4 14.3979 116.688 14.3979V14.6859C116.976 15.5497 117.264 16.7016 117.552 17.5654C117.84 18.4293 118.416 19.2932 118.993 19.8691C119.281 20.445 119.857 21.0209 120.433 21.0209H120.721C121.298 21.0209 121.874 20.733 122.45 20.1571C122.45 19.8691 122.45 19.8691 122.738 19.5812V19.2932C122.738 19.0052 122.738 19.0052 122.738 18.7173V18.4293C123.603 17.5655 124.179 16.4136 124.755 15.2618C125.043 14.3979 125.619 13.822 125.907 12.9581C126.772 12.9581 126.772 12.3822 127.06 12.0942C127.06 11.8063 127.348 11.5183 127.348 11.2304C127.636 10.6545 127.636 10.3665 127.924 9.79058C127.924 9.50262 127.924 9.50262 127.924 9.21466C127.924 8.92671 127.924 8.92671 127.924 8.63875C127.924 8.35079 127.924 8.06283 127.924 8.06283C127.924 7.77487 127.348 7.19896 127.06 7.19896C126.772 7.19896 126.484 7.19896 126.484 7.19896C126.196 7.19896 125.907 7.19896 125.907 7.48692C125.619 7.77487 125.331 8.06283 125.043 8.35079C124.179 9.50262 123.314 10.9424 122.738 12.3822C122.45 12.6702 122.45 12.9581 122.162 13.534C122.162 13.534 122.162 13.534 122.162 13.2461C121.874 12.3822 121.586 11.8063 121.298 10.9424C121.009 10.3665 120.721 9.50262 120.433 8.92671C120.433 8.63875 120.145 8.35079 119.857 8.06283C119.857 7.77487 119.569 7.77487 119.281 7.48692C118.993 7.19896 118.416 6.911 118.128 7.19896C117.552 7.19896 117.264 7.48692 116.976 7.77487C116.688 8.06283 116.4 8.63875 116.4 8.92671C115.823 10.3665 116.111 11.8063 116.4 13.2461ZM118.128 9.50262C118.128 9.50262 118.128 9.79058 118.416 9.79058C118.705 10.3665 118.993 11.2304 119.281 11.8063C119.281 12.0942 119.281 12.0942 119.569 12.3822C119.569 12.0942 119.281 12.0942 119.281 11.8063C118.993 11.5183 118.993 11.5183 118.705 11.5183V11.2304C118.128 10.6545 118.128 10.0785 118.128 9.50262Z" fill="#329363"/>
<path d="M223.291 78.3246C223.291 78.6126 223.003 79.1885 223.003 79.4764C222.715 81.2042 221.851 83.2199 223.291 84.3717C223.868 84.9476 224.444 84.9476 225.308 84.9476C225.884 84.9476 226.461 84.6597 227.037 84.6597C227.901 84.3717 229.054 83.7958 229.918 83.2199C230.782 82.644 231.359 82.356 232.223 81.7801C232.799 81.2042 233.664 80.9162 234.24 80.3403C234.528 80.0524 234.816 79.7644 235.104 79.7644C235.392 79.4764 235.68 79.1885 236.257 78.9005C236.545 78.6126 236.833 78.3246 236.833 77.7487C236.833 77.1728 236.833 76.3089 235.968 76.0209C235.68 75.733 235.392 75.733 234.816 75.733C234.528 75.733 233.952 75.733 233.664 76.0209C232.799 76.3089 232.223 76.5969 231.647 76.8848C230.782 77.4607 229.63 78.0366 228.766 78.6126C228.477 78.6126 228.189 78.9005 228.189 78.9005V78.6126C228.189 78.0366 228.477 77.7487 228.477 77.1728C228.477 76.5969 228.766 75.733 228.477 75.1571C228.477 74.5812 227.901 74.0052 227.325 73.7173C226.749 73.4293 225.884 73.4293 225.308 73.7173C224.732 74.0052 224.444 74.2932 224.156 74.8691C223.868 75.445 223.579 76.0209 223.291 76.5969C223.579 77.1728 223.579 77.7487 223.291 78.3246Z" fill="#329363"/>
<path d="M42.0652 183.717C42.3533 183.717 42.3533 183.717 42.6414 183.717C42.9295 183.717 43.2177 183.717 43.2177 183.717H43.5058C43.7939 183.717 43.7939 183.717 44.082 183.717C45.2345 183.429 45.8107 182.565 46.0988 181.414C46.387 179.974 45.5226 178.534 44.082 178.246C43.5058 177.958 42.9295 178.246 42.3533 178.534C42.0652 178.534 41.7771 178.822 41.7771 178.822C40.9127 179.398 40.3365 180.262 40.3365 181.126V181.414V181.702C40.3365 182.565 40.9127 183.429 42.0652 183.717Z" fill="#329363"/>
<path d="M48.98 188.037C48.6919 188.325 48.6919 188.325 48.6919 188.325C48.4038 188.613 48.4038 188.9 48.6919 189.188C48.6919 189.476 48.98 189.476 49.2681 189.476C49.5563 189.476 49.8444 189.188 49.8444 189.188C49.8444 189.188 49.8444 189.188 49.8444 188.901C49.8444 188.613 50.1325 188.613 50.1325 188.325C50.1325 188.037 50.1325 188.037 50.1325 187.749C50.1325 187.461 50.1325 187.173 49.8444 187.173C49.8444 187.173 49.5563 186.885 49.2681 186.885C49.2681 187.461 48.98 187.749 48.98 188.037Z" fill="#329363"/>
<path d="M203.411 11.8063C203.699 12.0942 203.699 12.3822 203.987 12.6701C204.564 13.2461 205.14 13.534 206.004 13.822C206.292 13.822 206.58 13.822 206.869 13.822C207.733 13.822 208.597 13.534 209.174 13.2461C209.75 12.9581 210.326 12.3822 210.614 11.5183C211.19 10.3665 211.19 8.63874 210.614 7.4869C210.326 6.33507 209.462 5.75915 208.309 5.18324C207.157 4.60732 205.716 4.60732 204.276 5.4712C202.835 6.33507 201.971 8.35078 202.547 10.0785C202.835 10.9424 203.123 11.2304 203.411 11.8063Z" fill="#329363"/>
<path d="M220.41 13.822C222.715 13.822 224.444 11.8063 224.156 9.79058C224.156 7.48691 222.139 6.04712 220.122 6.04712C217.817 6.04712 216.088 8.06283 216.376 10.0785C216.376 12.0942 218.393 13.822 220.41 13.822Z" fill="#329363"/>
</g>
<defs>
<clipPath id="clip0_64_3527">
<rect width="274" height="220" fill="white"/>
</clipPath>
</defs>
</svg>
