<svg width="203" height="203" viewBox="0 0 203 203" fill="none" xmlns="http://www.w3.org/2000/svg">
<g clip-path="url(#clip0_66_3550)">
<path d="M87.4945 8.90667C58.5116 21.5185 47.9242 57.0792 50.9271 90.9296C52.4071 107.686 58.9185 126.286 74.3909 138.656C81.1045 143.957 89.1175 147.779 96.6569 147.894C101.305 148.03 106.359 146.813 107.417 142.156C108.994 135.087 100.265 130.836 95.2152 133.377C85.7454 138.214 94.9975 155.615 100.511 163.815C106.943 173.381 115.442 181.657 124.192 189.304C126.617 191.455 123.828 194.221 121.403 192.07C110.966 182.869 100.905 172.725 94.0035 160.777C89.0041 152.068 84.5233 140.945 88.5907 133.304C91.5182 127.742 100.577 126.16 107.144 131.607C113.996 137.34 112.919 146.381 107.829 149.911C93.6326 159.816 69.5347 142.714 59.0692 127.466C44.5487 106.369 44.6508 80.639 48.0398 60.5715C52.28 36.8121 64.2142 15.6723 86.2478 6.91595C87.2664 6.47511 88.5865 8.39303 87.4945 8.90667Z" fill="#5E5E5E"/>
<path d="M118.726 168.528C114.703 170.05 123.568 184.418 124.784 186.818C125.884 188.955 127.268 191.378 125.559 192.884C123.703 194.535 119.543 192.396 117.217 191.666C111.439 189.804 105.683 188.11 99.9564 186.006C97.1774 184.966 97.787 181.324 100.523 182.027C105.153 183.319 109.921 185.044 114.573 186.505C115.605 186.811 120.964 189.278 121.508 188.359C121.655 188.214 119.278 184.496 119.256 184.328C116.729 179.431 113.011 170.399 115.722 166.381C116.068 165.849 116.625 165.676 117.393 165.863C117.656 165.982 117.993 166.028 118.256 166.146C119.14 166.598 119.597 168.233 118.726 168.528Z" fill="#5E5E5E"/>
<path d="M85.2517 4.29717C86.4992 3.05972 89.2479 4.5098 89.4329 6.60439C89.4759 6.94136 89.3722 7.42391 88.9622 7.4509C87.3653 7.89583 85.5874 7.57115 83.9435 6.35415C83.5638 5.97138 83.0677 5.32444 83.1714 4.84189C84.0138 1.72822 88.3075 2.97465 90.9309 4.7388C92.2901 5.66872 93.5455 7.0812 93.571 8.57464C93.6395 10.4051 92.0642 11.0185 90.4761 10.8852C87.4681 10.6415 82.8036 8.43402 82.8348 4.79609C82.866 1.15816 87.7468 1.82226 90.2449 3.90048C93.0063 6.09729 94.0368 9.63134 92.0338 11.4282C90.1777 13.0795 86.4535 12.4073 84.9827 9.30996C83.3221 6.02127 85.5843 3.01801 89.058 4.31842C90.4475 4.83859 91.8497 6.10547 92.4535 7.59483C93.1737 9.34836 92.5475 10.9187 90.7177 10.8353C89.6345 10.7707 88.34 10.3462 87.3086 10.0403C86.3722 9.83013 85.3409 9.52424 84.5815 8.75871C83.2742 7.58751 82.9855 5.97548 83.5814 4.8149C84.1557 3.48584 85.5628 2.84953 87.194 3.3198C89.33 3.85877 91.0386 5.58122 92.4838 7.18507C92.98 7.83201 93.3508 8.79302 92.7637 9.37535C90.3508 11.1992 86.1217 10.4583 83.5678 7.29635C82.9767 6.55372 82.6058 5.59271 83.2878 5.10607C85.6274 3.35498 89.6187 5.47081 90.386 8.88627C90.886 10.8582 87.7617 10.3503 87.3565 8.47408C87.197 7.87293 86.1226 7.23009 85.7557 7.59405C85.5746 6.82442 85.4885 6.15049 85.4758 5.40376C86.7528 6.98472 89.0268 7.95635 90.3693 6.81458C90.382 7.56131 90.5631 8.33093 90.6492 9.00486C89.7949 8.14364 87.6206 5.3645 86.4983 6.28789C86.058 6.72464 86.2263 6.74754 86.7528 6.98472C87.6373 7.43618 88.9838 7.61938 89.8253 7.73388C90.0885 7.85247 90.0885 7.85247 89.7734 7.97516C89.6785 7.87947 89.4887 7.68808 89.3937 7.59239C89.0356 7.37811 88.7509 7.09103 88.3193 6.94954C87.4778 6.83504 87.2273 7.46318 87.2401 8.2099C87.6022 9.74915 89.1687 9.71397 89.8077 8.89036C90.7617 7.94407 89.8213 6.40892 88.4837 5.64748C87.8408 5.14612 86.9778 4.86314 86.2527 5.01281C85.2859 5.21238 85.7302 6.1006 86.468 6.69765C87.2273 7.46318 88.3321 7.69627 89.2685 7.90646C89.8683 8.07085 91.4564 8.20416 90.339 7.22434C89.3164 6.34022 86.1147 4.58016 85.5619 6.0777C85.4239 5.64504 85.2644 5.0439 85.1264 4.61124C86.0541 5.39967 86.969 5.44138 87.8623 5.3146C87.5688 5.60577 87.4436 5.91984 87.15 6.211C87.2019 5.96973 87.1069 5.87404 86.7703 5.82824C85.9631 6.62895 84.4444 5.09788 85.2517 4.29717Z" fill="#5E5E5E"/>
</g>
<defs>
<clipPath id="clip0_66_3550">
<rect width="121.866" height="164.434" fill="white" transform="matrix(-0.709974 0.704228 0.704228 0.709974 86.5216 0)"/>
</clipPath>
</defs>
</svg>
