<svg width="180" height="212" viewBox="0 0 180 212" fill="none" xmlns="http://www.w3.org/2000/svg">
<path d="M54.882 9.11792C89.4696 6.22384 118.218 35.0941 132.937 69.3857C140.229 86.3574 143.616 107.731 135.096 127.745C131.364 136.365 125.607 144.231 118.377 148.268C113.954 150.819 108.434 152.274 104.987 148.322C99.7814 142.308 106.009 133.654 112.214 133.482C123.888 133.229 124.001 154.869 122.939 165.667C121.701 178.265 117.791 190.691 113.312 202.639C112.087 205.981 116.223 207.204 117.448 203.862C122.749 189.533 127.196 174.488 127.649 159.343C127.949 148.319 126.491 135.233 118.581 129.962C112.855 126.109 103.273 129.295 99.7588 137.98C96.119 147.09 101.867 155.271 108.625 156.034C127.508 158.22 141.904 129.14 144.084 108.95C147.141 80.9926 133.648 56.169 119.925 38.5309C103.456 17.7664 80.9127 3.54003 55.051 6.54421C53.8367 6.64825 53.5588 9.18978 54.882 9.11792Z" fill="#329363"/>
<path d="M107.782 179.706C112.463 179.084 111.372 197.59 111.446 200.544C111.494 203.182 111.417 206.246 113.854 206.812C116.508 207.442 119.417 203.209 121.285 201.292C125.902 196.484 130.586 191.849 135.028 186.834C137.173 184.382 134.688 181.178 132.409 183.282C128.604 186.942 124.892 191.092 121.155 194.926C120.317 195.759 116.42 200.934 115.415 200.329C115.198 200.264 115.561 195.433 115.494 195.259C115.388 189.209 114.281 178.541 109.568 176.067C108.957 175.732 108.328 175.855 107.683 176.436C107.49 176.688 107.189 176.908 106.996 177.159C106.376 178.056 106.785 179.875 107.782 179.706Z" fill="#329363"/>
<path d="M54.6509 3.49364C52.8005 2.94666 50.8978 5.77957 51.8093 7.90103C51.9431 8.24924 52.2946 8.66181 52.7051 8.47447C54.4806 8.07334 56.0306 6.83386 56.9865 4.80141C57.1543 4.23369 57.2972 3.34992 56.9457 2.93736C54.5103 0.365435 51.0078 3.80575 49.3898 6.87712C48.5598 8.48377 48.0812 10.503 48.8341 11.9602C49.7207 13.7656 51.5631 13.5386 53.0292 12.583C55.8106 10.7815 59.1714 6.21894 57.2473 2.71785C55.3233 -0.783244 50.9501 2.39967 49.6166 5.70949C48.0903 9.27101 48.9338 13.2243 51.8058 13.919C54.4601 14.5493 57.7108 11.9605 57.5204 8.20026C57.414 4.15611 53.6633 2.43005 50.9817 5.4957C49.9091 6.72196 49.2129 8.67682 49.4044 10.4311C49.6209 12.5015 51.0438 13.6938 52.7696 12.6606C53.7832 12.0342 54.8139 10.9499 55.6518 10.1172C56.4478 9.42651 57.2857 8.59387 57.6214 7.45842C58.2756 5.64549 57.7156 3.9366 56.5353 3.12469C55.2881 2.13868 53.5964 2.25595 52.2641 3.55979C50.4794 5.19289 49.7242 7.74766 49.1618 10.0507C49.0189 10.9345 49.1606 12.0567 50.0314 12.3141C53.3138 12.8214 57.017 9.90343 57.8403 5.51679C58.0251 4.49109 57.8834 3.36887 56.9707 3.2534C53.7971 2.77827 51.0395 6.90179 52.0757 10.6034C52.6188 12.7703 55.3752 10.6528 54.7902 8.62784C54.6315 7.96359 55.3356 6.78273 55.8798 6.94361C55.6542 6.10525 55.3867 5.40882 55.0102 4.68022C54.5986 6.87354 52.9057 8.99679 51.0134 8.59174C51.3898 9.32034 51.6154 10.1587 51.883 10.8551C52.2606 9.57775 52.916 5.75883 54.4818 6.06736C55.1349 6.26041 54.9841 6.37017 54.5986 6.87354C53.9784 7.77053 52.7719 8.64858 52.0179 9.19736C51.8252 9.44904 51.8252 9.44904 52.1937 9.40364C52.2356 9.26171 52.3195 8.97784 52.3615 8.83591C52.5962 8.4423 52.7221 8.0165 53.0656 7.65506C53.8197 7.10628 54.3888 7.5832 54.7652 8.3118C55.2165 9.98852 53.6835 10.77 52.637 10.3064C51.222 9.88807 51.332 7.91425 52.2289 6.48171C52.5895 5.6623 53.2766 4.93942 54.0556 4.70668C55.0942 4.39636 55.127 5.4864 54.7245 6.44775C54.3888 7.5832 53.4421 8.38366 52.6461 9.07437C52.1517 9.54557 50.6856 10.5012 51.256 8.97213C51.7844 7.58499 53.9637 4.21653 55.2778 5.37665C55.186 4.8865 55.0273 4.22225 54.9354 3.7321C54.449 4.97731 53.5861 5.49391 52.6564 5.83641C53.0918 5.96511 53.3763 6.20357 53.8117 6.33227C53.636 6.12599 53.678 5.98406 53.9796 5.76455C55.1769 6.11848 55.8482 3.84758 54.6509 3.49364Z" fill="#329363"/>
</svg>
