<svg width="238" height="190" viewBox="0 0 238 190" fill="none" xmlns="http://www.w3.org/2000/svg">
    <g clip-path="url(#clip0_0_1)">
        <rect x="106.188" y="78.7214" width="38.0374" height="89.2274" transform="rotate(-6.69167 106.188 78.7214)" fill="#54B58B"/>
        <rect x="179.778" y="70.29" width="24.0926" height="89.2274" transform="rotate(-3.90662 179.778 70.29)" fill="#54B58B"/>
        <rect x="175.204" y="44.4316" width="35.5889" height="17.3017" transform="rotate(-3.90662 175.204 44.4316)" fill="#54B58B"/>
        <rect x="97.0006" y="50.3196" width="43.0449" height="19.1551" transform="rotate(-3.90662 97.0006 50.3196)" fill="#54B58B"/>
        <path d="M101.281 71.651C110.051 102.877 105.644 135.389 112.423 166.79C112.602 167.402 113.473 167.325 113.419 166.702C108.392 135.272 111.851 101.965 101.892 71.4717C101.848 70.9736 101.248 71.2774 101.281 71.651Z" fill="#1D262D"/>
        <path d="M98.9167 71.8594C117.667 71.2109 136.501 68.6727 155.276 66.8926C164.234 66.1032 173.181 65.1893 182.139 64.3999C191.843 63.5447 201.851 63.2901 211.456 61.3143C211.954 61.2704 211.888 60.5233 211.39 60.5672C202.107 60.5069 192.582 61.9737 183.251 62.796C173.92 63.6183 164.475 64.5761 155.144 65.3984C136.493 67.1675 117.528 68.2115 98.8289 70.8632C98.3532 71.1561 98.4191 71.9032 98.9167 71.8594Z" fill="#1D262D"/>
        <path d="M112.591 167.277C129.757 167.145 146.856 166.265 163.912 164.888C180.097 163.587 196.893 162.107 212.712 158.078C213.323 157.898 213.111 156.913 212.499 157.092C179.241 162.408 146.271 165.313 112.617 166.146C111.735 166.098 111.845 167.343 112.591 167.277Z" fill="#1D262D"/>
        <path d="M213.268 157.276C209.258 126.007 207.65 93.5229 209.769 62.0905C209.828 61.3324 208.675 61.0575 208.617 61.8156C207.383 79.1157 207.54 96.5442 208.194 113.929C208.823 128.179 208.793 143.49 212.284 157.488C212.338 158.111 213.323 157.898 213.268 157.276Z" fill="#1D262D"/>
        <path d="M102.686 74.7898C99.1471 74.4742 98.3348 73.7929 97.2701 70.2476C96.5749 68.0502 96.5933 65.4134 96.2714 63.183C95.6275 58.7223 95.2325 54.2397 94.102 49.9474C94.069 49.5738 93.5824 49.7422 93.4909 50.1267C93.5162 57.5281 94.6686 66.3359 96.3113 73.5947C97.1052 76.9129 99.1544 75.9794 102.649 75.7969C103.125 75.504 103.194 74.8704 102.686 74.7898Z" fill="#1D262D"/>
        <path d="M93.9556 49.7094C103.883 49.9639 114.008 48.1932 123.837 47.327C133.541 46.4718 143.245 45.6166 152.836 44.8969C172.516 43.4136 192.272 42.802 211.805 41.0806C212.924 40.9819 212.657 39.3742 211.662 39.4619C191.624 39.7219 171.48 41.6226 151.563 43.2524C141.848 43.983 132.143 44.8382 122.439 45.6934C112.984 46.5267 102.976 46.7813 93.7544 48.8487C93.1323 48.9036 93.4579 49.7533 93.9556 49.7094Z" fill="#1D262D"/>
        <path d="M211.775 39.3265C211.263 44.893 212.514 50.555 212.873 56.0447C213.015 57.6635 212.909 59.3041 212.814 61.0693C212.591 64.2261 212.184 63.8854 209.085 64.284C208.339 64.3498 208.437 65.4705 209.184 65.4047C213.944 65.3616 214.069 65.3506 214.274 60.5642C214.563 53.888 214.11 45.897 212.408 39.3962C212.376 39.0227 211.753 39.0775 211.775 39.3265Z" fill="#1D262D"/>
        <path d="M153.484 43.7105C150.052 33.2213 136.374 27.3995 126.589 24.4973C120.274 22.5442 113.797 21.6091 107.283 21.6812C103.02 21.6804 99.8443 21.2074 97.6742 25.0377C96.1519 27.6815 92.9096 34.9944 94.0658 38.1551C95.5257 41.9165 102.467 42.4341 105.735 42.5226C113.152 42.7473 120.507 40.8443 127.881 40.571C136.747 40.1661 145.496 41.2773 154.073 43.2821C154.842 43.4654 154.992 42.3228 154.223 42.1395C144.845 39.5779 135.225 38.5434 125.509 39.2741C120.522 39.5882 115.725 40.6384 110.737 40.9524C108.124 41.1827 105.376 41.2993 102.709 40.907C96.854 39.9171 95.0282 37.6938 96.3567 31.428C97.0667 28.1029 98.5927 24.0784 102.259 23.0023C103.844 22.4863 106.76 22.8567 108.388 22.8386C113.793 22.9898 119.128 23.7745 124.394 25.1927C134.167 27.9704 148.592 33.7264 152.262 44.0692C152.587 44.9188 153.81 44.5602 153.484 43.7105Z" fill="#1D262D"/>
        <path d="M153.927 43.0441C150.114 35.3491 137.373 34.4642 129.879 33.3679C117.818 31.6701 105.706 32.2355 94.611 37.2288C93.8865 37.5436 94.2451 38.7668 95.094 38.4411C105.011 34.3045 115.586 33.3726 126.337 34.4329C134.431 35.2254 148.178 36.1471 152.964 43.5054C153.268 44.1061 154.23 43.6448 153.927 43.0441Z" fill="#1D262D"/>
        <path d="M153.689 43.1904C155.46 31.9916 161.795 22.775 170.859 16.0784C178.042 10.8025 197.535 -1.33058 204.143 9.63164C205.325 11.6607 206.569 15.8176 206.167 18.3627C205.592 21.8015 201.011 22.4562 198.08 23.3419C192.715 25.0695 187.486 26.9106 182.268 28.8763C171.832 32.8076 161.158 36.8854 151.215 42.1535C150.74 42.4464 151.179 43.1606 151.665 42.9923C167.66 36.6888 183.34 29.6602 199.807 24.4445C203.224 23.3904 207.612 23.3802 207.872 19.2163C208.234 14.7924 206.017 6.70586 202.746 3.73155C199.328 0.519165 193.451 3.54675 189.682 4.88278C183.355 7.07164 177.208 9.87213 171.646 13.6249C161.597 20.5337 153.971 30.7426 152.412 42.9265C152.353 43.6845 153.63 43.9485 153.689 43.1904Z" fill="#1D262D"/>
        <path d="M207.224 16.1363C186.301 13.4627 162.644 26.7157 151.244 43.9077C150.915 44.4387 151.592 45.0065 152.057 44.5891C158.933 35.8266 166.947 28.5952 177.057 23.8142C186.806 19.1905 196.612 18.0753 207.188 17.1434C207.685 17.0995 207.733 16.217 207.224 16.1363Z" fill="#1D262D"/>
        <path d="M153.125 42.4872C152.734 40.8905 152.105 39.4401 151.589 37.8543C151.274 37.1291 150.824 36.2904 150.758 35.5433C150.184 34.7155 150.367 33.9465 151.431 33.2252C151.794 33.0678 152.032 32.9213 152.405 32.8884C153.616 32.4053 153.503 32.5407 153.737 33.7749C153.938 34.6356 154.004 35.3827 154.081 36.2543C154.212 37.7485 154.231 39.3782 154.735 40.8395C154.893 41.2021 155.39 41.1583 155.482 40.7738C155.859 39.3602 155.614 38.0015 155.358 36.5182C155.237 35.1485 155.219 33.5189 154.736 32.3066C154.085 30.6072 152.895 31.3394 151.56 31.8336C150.111 32.4632 148.65 32.9683 149.064 34.8142C149.309 36.1729 150.176 37.4768 150.659 38.6891C151.289 40.1394 151.782 41.4762 152.536 42.9156C152.694 43.2782 153.158 42.8608 153.125 42.4872Z" fill="#1D262D"/>
        <path d="M151.351 42.2671C137.534 37.7125 115.443 44.5532 107.798 57.3989C100.596 69.5781 105.367 86.7255 118.764 92.1956C128.512 96.1049 149.779 92.7249 146.607 78.0718C143.424 63.2942 124.689 66.953 118.848 77.5064C113.769 86.738 116.524 96.6594 116.893 106.54C117.361 121.808 102.361 140.823 85.6243 133.012C84.9693 132.694 84.5484 133.609 85.2144 134.052C97.9372 141.841 113.632 129.289 117.566 117.022C120.04 109.525 117.969 101.677 117.549 94.0594C117.26 87.9362 117.798 81.2381 121.735 76.1226C126.013 70.6008 134.119 67.2513 140.372 71.3432C146.885 75.5376 146.625 83.968 140.62 88.3872C136.734 91.2393 131.948 92.414 127.165 92.2081C116.967 91.7265 108.708 84.7997 106.813 74.677C104.83 63.5582 110.51 54.0228 120.079 48.7875C128.81 44.0026 141.302 40.643 151.054 43.1717C151.563 43.2523 151.87 42.4723 151.351 42.2671Z" fill="#1D262D"/>
        <path d="M150.915 44.4388C168.469 38.7509 176.251 71.5694 177.553 83.5012C178.844 95.3084 181.08 105.025 191.826 111.732C200.846 117.337 215.187 120.716 224.207 113.522C232.411 107.026 234.376 95.183 229.572 86.195C229.133 85.4808 227.911 85.8395 228.237 86.6892C231.112 93.7138 231.522 101.207 227.197 107.611C221.894 115.733 212.677 116.42 203.851 114.437C196.686 112.81 189.605 109.293 185.065 103.293C180.524 97.2936 180.056 90.5587 179.295 83.3477C178.124 72.9101 167.975 33.1476 150.363 43.8601C150.125 44.0065 150.428 44.6072 150.915 44.4388Z" fill="#1D262D"/>
        <path d="M141.156 44.6714C141.068 52.2082 142.381 59.998 144.511 67.0884C144.701 67.8246 145.788 67.3523 145.608 66.7407C143.83 59.3683 142.821 52.1792 142.027 44.5946C141.983 44.0965 141.112 44.1733 141.156 44.6714Z" fill="#1D262D"/>
        <path d="M171.828 42.7214C171.399 50.6646 173.99 58.7183 174.919 66.4165C174.974 67.0391 175.845 66.9623 175.914 66.3288C176.094 58.4074 172.903 50.6576 172.709 42.7691C172.79 42.2601 171.784 42.2233 171.828 42.7214Z" fill="#1D262D"/>
        <path d="M145.188 67.6562C148.436 83.181 149.581 99.0166 151.224 114.808C152.921 131.223 154.732 147.502 156.429 163.916C156.495 164.663 157.615 164.564 157.549 163.817C155.851 147.403 154.041 131.124 152.343 114.71C150.712 99.0424 149.681 83.0713 146.307 67.5575C146.242 66.8104 144.986 66.7956 145.188 67.6562Z" fill="#1D262D"/>
        <path d="M173.949 65.3727C174.618 81.5012 176.791 97.6227 178.331 113.674C179.871 129.726 181.411 145.778 182.962 161.954C183.039 162.826 184.407 162.705 184.331 161.834C182.791 145.782 181.251 129.73 179.7 113.554C178.16 97.5021 177.231 81.2709 174.82 65.2959C174.765 64.6733 173.894 64.7501 173.949 65.3727Z" fill="#1D262D"/>
        <path d="M153.974 37.8949C156.8 34.3833 159.229 30.6556 162.314 27.2466C165.41 23.9622 169.058 21.2565 172.165 18.0965C172.403 17.9501 172.11 17.4739 171.872 17.6204C164.32 21.5486 156.902 29.8568 153.184 37.4626C153.093 37.8471 153.759 38.2903 153.974 37.8949Z" fill="#1D262D"/>
        <path d="M149.858 38.1323C140.527 30.4216 128.057 25.4973 115.82 26.0737C115.571 26.0957 115.48 26.4802 115.864 26.5718C128.265 27.8631 138.976 31.3112 149.177 38.9451C149.708 39.2748 150.275 38.5974 149.858 38.1323Z" fill="#1D262D"/>
        <path d="M98.4564 49.5638C97.7535 58.6606 114.132 56.7153 112.57 48.9474C112.526 48.4493 111.644 48.4016 111.699 49.0242C112.665 55.7152 99.0124 57.2948 99.3493 49.736C99.2944 49.1135 98.5369 49.0547 98.4564 49.5638Z" fill="#1D262D"/>
        <path d="M101.447 35.1205C100.652 36.0689 99.8583 37.0172 99.0643 37.9656C98.4971 38.643 97.5676 39.4778 97.531 40.4849C97.5529 40.734 97.8127 40.8366 98.0615 40.8146C98.9215 40.6134 99.5582 39.3024 100.125 38.625C100.795 37.6876 101.465 36.7502 102.134 35.8128C102.577 35.1463 101.9 34.5786 101.447 35.1205Z" fill="#1D262D"/>
        <path d="M104.626 34.2128C103.843 35.2857 103.049 36.2341 102.277 37.4315C101.721 38.2334 100.927 39.1818 101.015 40.1779C101.037 40.427 101.296 40.5296 101.41 40.3941C102.383 40.0573 102.895 38.7573 103.338 38.0909C103.997 37.029 104.656 35.967 105.314 34.9051C105.768 34.3632 105.08 33.6709 104.626 34.2128Z" fill="#1D262D"/>
        <path d="M108.619 33.9865C107.587 35.0813 106.679 36.1652 105.772 37.249C105.091 38.0619 104.183 39.1458 104.147 40.1529C104.158 40.2774 104.429 40.5045 104.542 40.369C105.504 39.9078 106.141 38.5968 106.811 37.6594C107.594 36.5865 108.501 35.5027 109.409 34.4188C109.76 34.1369 108.959 33.5801 108.619 33.9865Z" fill="#1D262D"/>
        <path d="M111.48 33.7344C110.562 34.6938 109.79 35.8912 109.006 36.9641C108.337 37.9015 107.283 38.7473 106.997 39.7763C106.895 40.0363 107.166 40.2634 107.404 40.117C108.49 39.6447 109.262 38.4473 110.057 37.4989C110.851 36.5506 111.872 35.3312 112.271 34.1667C112.475 33.6467 111.82 33.328 111.48 33.7344Z" fill="#1D262D"/>
        <path d="M149.064 39.0807C148.475 39.509 147.885 39.9374 147.296 40.3658C146.821 40.6587 146.096 40.9735 145.891 41.4935C145.778 41.629 145.924 41.867 146.048 41.8561C146.568 42.0613 147.395 41.4864 147.871 41.1936C148.584 40.7542 149.049 40.3368 149.492 39.6704C149.832 39.2639 149.415 38.7987 149.064 39.0807Z" fill="#1D262D"/>
        <path d="M147.37 38.3515C146.645 38.6664 145.92 38.9812 145.331 39.4096C144.731 39.7134 143.893 40.1637 143.439 40.7056C143.326 40.8411 143.472 41.0792 143.597 41.0682C144.343 41.0024 144.932 40.5741 145.533 40.2702C146.246 39.8309 146.96 39.3915 147.673 38.9522C147.9 38.6812 147.607 38.2051 147.37 38.3515Z" fill="#1D262D"/>
        <path d="M145.123 37.0437C144.241 36.996 143.436 37.8198 142.722 38.2591C142.009 38.6985 140.922 39.1707 140.355 39.8481C140.128 40.1191 140.399 40.3462 140.648 40.3243C141.529 40.372 142.232 39.8082 142.946 39.3688C143.784 38.9185 144.611 38.3437 145.313 37.7799C145.675 37.6225 145.496 37.0108 145.123 37.0437Z" fill="#1D262D"/>
        <path d="M142.174 36.2999C141.156 36.1386 140.476 36.9515 139.649 37.5263C138.459 38.2585 137.146 39.0017 136.103 39.972C135.865 40.1185 136.022 40.4811 136.396 40.4482C137.504 40.225 138.456 39.6392 139.407 39.0534C139.883 38.7605 140.483 38.4567 140.948 38.0393C141.299 37.7573 141.753 37.2154 142.25 37.1716C142.613 37.0141 142.682 36.3806 142.174 36.2999Z" fill="#1D262D"/>
        <path d="M138.445 35.248C137.753 35.9364 136.937 36.6358 136.246 37.3241C135.667 37.877 134.84 38.4518 134.657 39.2209C134.668 39.3454 134.679 39.4699 134.804 39.4589C135.675 39.3822 136.344 38.4448 136.923 37.8919C137.614 37.2035 138.306 36.5152 138.986 35.7023C139.338 35.4203 138.796 34.9661 138.445 35.248Z" fill="#1D262D"/>
        <path d="M135.415 35.0131C134.453 35.4744 133.648 36.2982 132.956 36.9866C132.275 37.7995 131.086 38.5317 130.801 39.5607C130.812 39.6853 130.947 39.7988 131.071 39.7879C131.92 39.4621 132.59 38.5247 133.293 37.9608C134.098 37.137 134.892 36.1886 135.843 35.6028C135.957 35.4673 135.653 34.8667 135.415 35.0131Z" fill="#1D262D"/>
        <path d="M132.872 34.6099C131.899 34.9466 131.229 35.884 130.402 36.4588C129.71 37.1472 128.386 37.7659 128.089 38.6704C127.987 38.9304 128.133 39.1685 128.382 39.1465C129.377 39.0588 130.171 38.1105 130.874 37.5466C131.69 36.8473 132.371 36.0344 133.187 35.335C133.527 34.9286 133.234 34.4525 132.872 34.6099Z" fill="#1D262D"/>
        <path d="M111.012 39.7989C112.611 38.0267 114.334 36.2435 115.809 34.4823C116.149 34.0758 115.597 33.4971 115.132 33.9145C113.398 35.5732 111.934 37.459 110.47 39.3447C110.13 39.7512 110.66 40.0809 111.012 39.7989Z" fill="#1D262D"/>
        <path d="M113.804 40.1803C114.824 38.9609 115.721 37.7526 116.753 36.6578C117.785 35.5629 118.952 34.5817 120.109 33.4759C120.335 33.2049 120.043 32.7288 119.68 32.8862C116.918 34.259 114.931 37.3203 113.386 39.7151C113.17 40.1106 113.588 40.5758 113.804 40.1803Z" fill="#1D262D"/>
        <path d="M116.826 38.9101C116.95 38.8992 117.075 38.8882 117.199 38.8772C117.221 39.1263 117.232 39.2508 117.379 39.4889C118.048 38.5515 119.102 37.7057 119.918 37.0063C120.723 36.1825 121.788 35.4612 122.198 34.4212C122.311 34.2857 122.165 34.0477 121.916 34.0696C120.829 34.5418 119.797 35.6367 118.992 36.4605C118.528 36.8779 118.074 37.4198 117.62 37.9618C117.28 38.3682 116.804 38.6611 116.724 39.1701C116.746 39.4192 116.892 39.6572 117.141 39.6353C117.39 39.6134 117.503 39.4779 117.481 39.2289C117.437 38.7308 117.053 38.6392 116.826 38.9101Z" fill="#1D262D"/>
        <path d="M120.035 39.7567C121.316 38.6399 122.337 37.4206 123.753 36.4174C124.818 35.6961 126.143 35.0775 126.801 34.0155C126.904 33.7555 126.757 33.5175 126.509 33.5394C125.275 33.7736 123.995 34.8903 122.93 35.6116C121.638 36.6038 120.357 37.7205 119.472 39.0534C119.256 39.4489 119.684 40.0386 120.035 39.7567Z" fill="#1D262D"/>
        <path d="M122.941 40.0025C124.357 38.9993 125.648 38.0071 127.065 37.0039C128.243 36.1471 129.805 35.382 130.713 34.2982C130.815 34.0382 130.669 33.8001 130.42 33.822C129.052 33.9426 127.647 35.0703 126.457 35.8026C124.917 36.8167 123.647 38.058 122.242 39.1857C121.766 39.4786 122.351 40.4309 122.941 40.0025Z" fill="#1D262D"/>
        <path d="M159.083 34.6842C158.775 35.4642 158.468 36.2442 158.296 37.1377C158.102 37.7823 157.93 38.6758 158.358 39.2655C158.505 39.5036 158.867 39.3462 158.98 39.2107C159.31 38.6797 159.244 37.9326 159.313 37.2991C159.496 36.53 159.679 35.761 159.862 34.992C160.067 34.472 159.288 34.1642 159.083 34.6842Z" fill="#1D262D"/>
        <path d="M161.439 32.9708C161.154 33.9998 161.117 35.0069 160.956 36.025C160.898 36.783 160.737 37.8011 161.165 38.3908C161.3 38.5043 161.425 38.4934 161.538 38.3579C161.981 37.6915 161.802 37.0798 161.736 36.3327C161.761 35.2011 161.922 34.183 162.072 33.0405C162.288 32.645 161.531 32.5862 161.439 32.9708Z" fill="#1D262D"/>
        <path d="M163.401 31.0411C163.079 33.0772 162.574 35.8824 163.247 37.8308C163.393 38.0689 163.767 38.036 163.869 37.776C164.041 36.8825 163.953 35.8863 163.99 34.8792C164.005 33.6231 164.019 32.3669 164.169 31.2243C164.25 30.7153 163.481 30.5321 163.401 31.0411Z" fill="#1D262D"/>
        <path d="M166.595 28.8773C166.284 31.038 165.552 34.1141 166.237 36.1871C166.383 36.4251 166.756 36.3922 166.859 36.1323C167.144 35.1032 167.045 33.9826 167.082 32.9755C167.086 31.5948 167.1 30.3387 167.228 28.947C167.196 28.5735 166.687 28.4928 166.595 28.8773Z" fill="#1D262D"/>
        <path d="M168.692 27.0612C168.608 28.9509 168.103 31.756 169.014 33.558C169.16 33.7961 169.409 33.7742 169.523 33.6387C169.819 32.7342 169.731 31.738 169.643 30.7419C169.534 29.4967 169.548 28.2406 169.439 26.9954C169.519 26.4864 168.648 26.5631 168.692 27.0612Z" fill="#1D262D"/>
        <path d="M171.363 26.073C171.451 27.0691 171.404 27.9517 171.491 28.9479C171.557 29.695 171.499 30.453 171.938 31.1672C172.084 31.4053 172.333 31.3834 172.435 31.1234C172.754 30.4679 172.553 29.6072 172.487 28.8601C172.399 27.864 172.322 26.9924 172.11 26.0072C172.066 25.5091 171.32 25.5749 171.363 26.073Z" fill="#1D262D"/>
        <path d="M173.482 24.5058C173.435 25.3884 173.522 26.3845 173.475 27.2671C173.541 28.0142 173.358 28.7833 173.921 29.4865C174.068 29.7246 174.441 29.6917 174.543 29.4317C174.862 28.7762 174.66 27.9156 174.595 27.1684C174.518 26.2968 174.43 25.3007 174.229 24.44C174.185 23.942 173.563 23.9968 173.482 24.5058Z" fill="#1D262D"/>
        <path d="M175.996 23.1549C176.073 24.0265 176.15 24.8981 176.113 25.9052C176.179 26.6523 175.996 27.4213 176.549 28.0001C176.684 28.1136 176.944 28.2162 177.057 28.0807C177.511 27.5388 177.321 26.8027 177.255 26.0556C177.167 25.0594 176.966 24.1988 176.878 23.2026C176.699 22.591 175.952 22.6568 175.996 23.1549Z" fill="#1D262D"/>
        <path d="M178.305 22.3241C178.371 23.0712 178.448 23.9429 178.514 24.69C178.569 25.3126 178.623 25.9351 179.04 26.4003C179.176 26.5139 179.425 26.4919 179.527 26.2319C179.857 25.701 179.666 24.9648 179.611 24.3423C179.546 23.5952 179.355 22.859 179.289 22.1119C179.246 21.6138 178.25 21.7015 178.305 22.3241Z" fill="#1D262D"/>
        <path d="M181.803 20.761C181.474 21.292 181.642 21.7791 181.686 22.2771C181.752 23.0242 181.807 23.6468 181.873 24.3939C181.895 24.643 182.041 24.881 182.425 24.9727C182.55 24.9617 182.674 24.9507 182.799 24.9398C183.047 24.9178 183.15 24.6578 183.139 24.5333C183.197 23.7752 183.143 23.1527 183.077 22.4056C183.022 21.783 182.967 21.1604 182.436 20.8307C182.166 20.6036 181.917 20.6255 181.803 20.761Z" fill="#1D262D"/>
        <path d="M184.892 20.2378C184.822 20.8713 184.888 21.6184 184.943 22.241C184.987 22.7391 184.917 23.3727 185.323 23.7133C185.459 23.8269 185.708 23.8049 185.821 23.6695C186.286 23.252 185.982 22.6514 185.938 22.1533C185.883 21.5307 185.693 20.7946 185.638 20.172C185.594 19.6739 184.972 19.7288 184.892 20.2378Z" fill="#1D262D"/>
        <path d="M187.45 19.385C187.413 20.3921 187.252 21.4101 187.34 22.4063C187.362 22.6553 187.497 22.7689 187.632 22.8824C188.163 23.2121 188.357 22.5676 188.438 22.0586C188.485 21.176 188.408 20.3044 188.321 19.3082C188.163 18.9456 187.53 18.8759 187.45 19.385Z" fill="#1D262D"/>
        <path d="M189.792 18.9277C189.857 19.6748 189.923 20.4219 189.865 21.18C189.876 21.3045 190.022 21.5426 190.157 21.6561C190.293 21.7697 190.417 21.7587 190.531 21.6232C190.655 21.6123 190.882 21.3413 190.871 21.2168C191.043 20.3232 190.842 19.4626 190.651 18.7264C190.608 18.2284 189.748 18.4296 189.792 18.9277Z" fill="#1D262D"/>
        <path d="M192.847 18.0308C192.902 18.6534 192.832 19.287 192.763 19.9205C192.774 20.045 192.796 20.2941 192.931 20.4076C192.931 20.4076 193.056 20.3967 193.066 20.5212C193.202 20.6347 193.326 20.6238 193.564 20.4773L193.689 20.4664C193.802 20.3309 193.915 20.1954 193.893 19.9464C193.839 19.3238 193.773 18.5767 193.718 17.9541C193.674 17.456 192.803 17.5328 192.847 18.0308Z" fill="#1D262D"/>
        <path d="M195.709 17.7788C195.639 18.4124 195.683 18.9104 195.613 19.544C195.635 19.793 195.657 20.042 195.793 20.1556L195.928 20.2691C196.063 20.3827 196.188 20.3717 196.426 20.2253L196.55 20.2143C196.788 20.0679 196.766 19.8188 196.755 19.6943C196.7 19.0717 196.781 18.5627 196.726 17.9401C196.784 17.1821 195.778 17.1452 195.709 17.7788Z" fill="#1D262D"/>
        <path d="M198.127 18.1931C198.138 18.3176 198.149 18.4421 198.171 18.6912C198.193 18.9402 198.339 19.1783 198.599 19.2809C198.724 19.2699 198.848 19.2589 199.097 19.237C199.21 19.1015 199.437 18.8306 199.302 18.717C199.291 18.5925 199.28 18.468 199.258 18.2189C199.192 17.4718 198.061 17.446 198.127 18.1931Z" fill="#1D262D"/>
        <path d="M123.046 55.4279C118.897 55.2916 115.303 58.62 115.687 62.9781C116.152 66.8271 120.726 68.9337 124.154 68.0042C127.956 67.0417 129.991 63.0978 129.278 59.2707C128.853 57.3003 125.831 54.3041 123.69 55.6221C123.339 55.904 123.632 56.3802 124.005 56.3473C125.351 55.9777 127.529 57.919 128.001 59.0068C129.021 62.0539 127.111 65.9868 123.909 66.6454C120.843 67.4176 116.924 65.6297 116.865 62.1213C116.807 58.6129 119.731 56.222 123.112 56.175C123.756 56.3692 123.679 55.4976 123.046 55.4279Z" fill="#1D262D"/>
        <path d="M135.228 45.6958C134.028 46.3035 134.013 47.5597 134.112 48.6803C134.119 50.1855 134.035 52.0752 135.14 53.2327C136.933 55.0824 141.185 54.9586 142.773 53.0619C143 52.7909 142.583 52.3258 142.356 52.5967C140.826 53.7354 138.452 53.8192 136.757 53.0901C135.458 52.5772 135.235 51.4675 135.25 50.2113C135.162 49.2152 134.851 47.1094 135.803 46.5236C136.018 46.1281 135.579 45.4139 135.228 45.6958Z" fill="#1D262D"/>
        <path d="M175.204 61.121C178.106 58.4811 181.97 59.6464 183.522 63.0232C183.69 63.5103 184.561 63.4336 184.506 62.811C183.602 58.2477 177.726 57.0088 174.776 60.5313C174.425 60.8133 174.853 61.4029 175.204 61.121Z" fill="#1D262D"/>
        <path d="M180.365 42.8475C178.619 52.9146 197.402 48.3732 193.552 41.6853C193.395 41.3227 192.795 41.6266 192.828 42.0001C193.135 45.4866 190.248 46.8704 187.284 47.3826C183.947 47.9276 181.554 46.3818 181.371 42.8843C181.316 42.2617 180.434 42.2139 180.365 42.8475Z" fill="#1D262D"/>
        <path d="M199.477 46.3081C196.275 46.9667 194.163 50.0389 194.449 53.2764C194.745 56.6384 199.301 57.1153 201.869 56.387C204.687 55.6367 206.312 52.7329 205.562 49.9128C204.834 47.3418 201.368 45.012 198.741 46.4984C198.503 46.6448 198.536 47.0184 198.92 47.11C200.955 47.4327 202.945 47.2572 204.241 49.1508C205.829 51.5206 204.61 54.7651 201.917 55.5044C199.586 56.0862 195.425 55.8255 195.524 52.6796C195.532 49.9183 197.087 47.648 199.791 47.0333C200.04 47.0113 199.974 46.2642 199.477 46.3081Z" fill="#1D262D"/>
        <path d="M108.817 103.111C111.05 101.409 112.967 98.9808 112.331 96.0253C111.749 93.6924 109.334 91.8975 106.981 92.2303C106.732 92.2522 106.641 92.6367 106.776 92.7503C108.379 93.8639 110.516 93.9265 110.973 96.2704C111.566 98.7279 109.864 100.76 108.108 102.17C107.643 102.587 108.353 103.528 108.817 103.111Z" fill="#1D262D"/>
        <path d="M124.304 83.9275C123.426 86.7656 125.885 89.0586 128.644 89.0664C131.787 89.1659 134.824 86.6395 134.912 83.3691C134.865 79.9852 131.443 78.1535 128.446 78.2921C126.072 78.3759 122.332 81.4662 124.304 83.9275C124.586 84.2792 125.186 83.9753 125.028 83.6127C123.872 80.452 128.047 79.4566 130.093 79.9038C132.263 80.34 134.25 81.5452 133.847 84.0904C133.269 88.9098 123.905 89.3585 124.937 83.9972C124.904 83.6237 124.395 83.543 124.304 83.9275Z" fill="#1D262D"/>
        <path d="M149.256 93.9004C142.859 96.7228 144.498 105.362 150.452 107.473C150.587 107.586 150.69 107.326 150.554 107.213C145.79 104.37 144.18 97.4848 149.559 94.5011C149.933 94.4682 149.618 93.743 149.256 93.9004Z" fill="#1D262D"/>
        <path d="M127.655 107.725C124.493 110.263 122.865 114.547 125.444 118.21C128.159 121.986 133.216 121.038 136.378 118.501C139.415 115.975 140.579 112.108 137.67 108.976C135.325 106.547 129.631 104.539 127.293 107.883C126.963 108.414 127.629 108.857 127.97 108.45C130.282 106.239 134.135 107.28 136.302 109.096C139.686 111.935 138.42 116.062 135.236 118.351C132.166 120.504 127.406 120.547 125.686 116.683C124.281 113.544 125.748 110.277 128.083 108.315C128.299 107.919 128.006 107.443 127.655 107.725Z" fill="#1D262D"/>
        <path d="M109.749 135.027C112.293 135.431 113.921 135.413 114.839 138.72C115.04 139.58 115.004 140.587 115.081 141.459C115.15 145.092 113.855 147.465 110.481 149.017C109.756 149.332 110.228 150.42 110.953 150.105C115.176 148.227 116.552 145.345 116.281 140.851C116.021 136.482 114.547 133.977 109.899 133.885C109.164 134.075 109.116 134.958 109.749 135.027Z" fill="#1D262D"/>
        <path d="M137.537 145.88C133.574 147.86 133.662 153.123 135.96 156.434C138.967 160.686 144.778 161.178 148.474 157.59C152.17 154.002 152.683 148.435 148.259 145.186C144.501 142.38 137.874 142.588 135.77 147.165C135.565 147.685 136.242 148.253 136.695 147.711C139.045 144.492 143.355 143.61 146.912 145.556C151.779 148.138 151.592 154.554 147.354 157.689C140.069 163.225 130.343 151.031 137.976 146.594C138.192 146.199 137.888 145.598 137.537 145.88Z" fill="#1D262D"/>
        <path d="M152.175 122.756C148.779 124.059 147.864 127.904 148.285 131.255C148.64 133.859 150.143 138.118 153.492 137.698C153.74 137.676 153.843 137.416 153.583 137.313C151.179 135.643 149.928 134.247 149.54 131.27C149.152 128.292 150.041 125.579 152.647 123.843C153.236 123.415 152.786 122.576 152.175 122.756Z" fill="#1D262D"/>
        <path d="M118.541 166.502C121.359 161.485 128.967 162.446 132.757 165.626C133.164 165.966 133.731 165.289 133.325 164.948C129.128 161.428 120.898 160.522 118.011 166.172C117.795 166.568 118.325 166.898 118.541 166.502Z" fill="#1D262D"/>
        <path d="M185.568 151.686C184.733 155.022 185.516 158.216 189.337 158.883C192.897 159.448 195.221 157.361 196.179 154.013C197.047 151.051 194.95 148.6 191.931 148.49C189.67 148.438 185.096 150.598 185.337 153.338C185.37 153.711 185.879 153.792 186.106 153.521C186.845 151.95 188.726 150.529 190.435 150.002C193.366 149.117 196.165 151.003 195.06 154.112C194.262 156.441 192.776 158.078 190.131 157.935C186.728 157.733 185.864 155.048 186.347 151.994C186.417 151.36 185.659 151.301 185.568 151.686Z" fill="#1D262D"/>
        <path d="M199.569 134.139C197.695 137.065 197.596 140.211 200.904 142.178C203.681 143.815 207.37 142.988 208.859 139.971C212.065 133.665 200.546 128.155 198.968 134.443C198.774 135.087 199.667 135.26 199.872 134.74C202.339 130.005 210.704 135.291 207.231 139.989C205.767 141.875 203.279 142.094 201.303 141.013C198.536 139.5 198.804 136.842 200.099 134.469C200.428 133.938 199.784 133.744 199.569 134.139Z" fill="#1D262D"/>
        <path d="M181.416 114.532C180.208 117.901 179.564 121.973 183.37 123.897C186.655 125.615 190.629 123.759 192.232 120.606C193.733 117.713 192.046 114.222 189.302 112.959C185.902 111.376 182.488 111.049 180.567 114.858C180.238 115.389 181.028 115.821 181.368 115.414C182.298 114.58 182.934 113.269 184.303 113.148C185.298 113.06 186.586 113.449 187.49 113.746C189.038 114.237 190.461 114.739 191.102 116.313C191.596 117.65 191.49 119.291 190.842 120.477C189.309 122.997 185.653 124.197 183.113 122.413C180.563 120.505 181.171 117.44 181.935 114.737C182.162 114.466 181.643 114.261 181.416 114.532Z" fill="#1D262D"/>
        <path d="M207.792 90.8751C203.705 88.6001 200.137 95.0632 200.049 98.3336C200.049 102.6 204.268 106.369 208.421 105.125C208.67 105.103 208.626 104.605 208.366 104.502C205.293 103.769 202.062 102.674 201.495 99.0846C200.949 95.7446 203.833 91.4749 207.372 91.7905C208.14 91.9738 208.323 91.2047 207.792 90.8751Z" fill="#1D262D"/>
        <path d="M180.825 73.6762C179.661 77.5433 180.927 81.9492 184.948 83.4771C188.574 84.7888 192.435 83.0683 193.869 79.4283C195.293 75.6638 193.617 72.2979 189.98 70.8616C186.343 69.4254 181.524 70.2265 180.133 74.3646C180.052 74.8736 180.707 75.1924 181.048 74.7859C182.921 71.8601 185.852 70.9744 189.072 71.9455C190.745 72.4255 192.45 73.2791 192.977 74.9895C193.493 76.5753 193.149 78.3624 192.263 79.6953C190.741 82.3392 187.561 83.2468 184.692 81.9938C181.563 80.6382 180.726 76.822 181.333 73.7569C181.673 73.3504 181.04 73.2807 180.825 73.6762Z" fill="#1D262D"/>
        <path d="M205.327 61.4781C202.769 62.3309 202.432 65.6232 202.89 67.9671C203.391 70.8091 205.33 72.8969 208.144 73.5273C208.653 73.608 208.949 72.7035 208.441 72.6228C206.373 71.9266 204.873 70.553 204.189 68.4801C203.516 66.5316 203.625 63.5103 205.653 62.3278C206.117 61.9104 205.689 61.3207 205.327 61.4781Z" fill="#1D262D"/>
        <path d="M99.7657 71.5336C99.4363 72.0646 99.1179 72.7201 98.924 73.3646C98.719 73.8846 98.5141 74.4046 98.6824 74.8917C98.6934 75.0162 98.9532 75.1188 99.0666 74.9833C99.4179 74.7014 99.4985 74.1924 99.7034 73.6724C99.8973 73.0278 100.091 72.3833 100.421 71.8524C100.501 71.3433 99.9816 71.1382 99.7657 71.5336Z" fill="#1D262D"/>
        <path d="M101.449 72.1382C101.244 72.6582 101.039 73.1782 100.845 73.8227C100.629 74.2182 100.424 74.7382 100.468 75.2362C100.479 75.3608 100.739 75.4633 100.852 75.3279C101.193 74.9214 101.273 74.4124 101.365 74.0279C101.57 73.5079 101.639 72.8743 101.844 72.3543C101.822 72.1053 101.562 72.0027 101.449 72.1382Z" fill="#1D262D"/>
        <path d="M105.342 70.7914C104.775 71.4688 104.208 72.1462 103.641 72.8236C103.311 73.3546 102.744 74.032 102.81 74.7791C102.832 75.0281 103.092 75.1307 103.33 74.9843C103.919 74.5559 104.102 73.7869 104.431 73.2559C104.863 72.4649 105.306 71.7985 105.873 71.1211C106.1 70.8501 105.694 70.5095 105.342 70.7914Z" fill="#1D262D"/>
        <path d="M109.572 70.4186C108.519 71.2644 107.589 72.0992 106.795 73.0475C106.114 73.8604 105.071 74.8307 104.797 75.9843C104.808 76.1088 104.954 76.3469 105.192 76.2004C106.019 75.6256 106.656 74.3146 107.337 73.5018C108.131 72.5534 109.049 71.5941 109.979 70.7592C110.092 70.6238 109.81 70.2721 109.572 70.4186Z" fill="#1D262D"/>
        <path d="M112.412 69.9172C111.482 70.752 110.677 71.5759 110.019 72.6378C109.452 73.3152 108.409 74.2855 108.361 75.1681C108.372 75.2926 108.529 75.6552 108.767 75.5088C109.605 75.0585 110.128 73.883 110.685 73.0811C111.479 72.1327 112.148 71.1953 112.943 70.2469C113.056 70.1114 112.65 69.7708 112.412 69.9172Z" fill="#1D262D"/>
        <path d="M115.771 69.6213C114.706 70.3426 113.777 71.1774 112.869 72.2612C112.189 73.0741 111.032 74.1799 110.882 75.3225C110.904 75.5715 111.175 75.7986 111.413 75.6522C112.24 75.0774 112.877 73.7664 113.557 72.9535C114.351 72.0052 115.27 71.0458 116.313 70.0755C116.415 69.8155 116.122 69.3394 115.771 69.6213Z" fill="#1D262D"/>
        <path d="M118.303 69.8999C117.498 70.7238 116.693 71.5476 116.024 72.485C115.581 73.1515 114.662 74.1108 114.739 74.9824C114.761 75.2315 114.896 75.345 115.134 75.1986C115.983 74.8728 116.506 73.6973 116.949 73.0309C117.619 72.0935 118.3 71.2806 118.969 70.3432C119.321 70.0612 118.768 69.4825 118.303 69.8999Z" fill="#1D262D"/>
        <path d="M122.116 69.062C121.073 70.0323 120.279 70.9807 119.496 72.0535C118.94 72.8555 117.919 74.0748 118.018 75.1955C118.04 75.4445 118.299 75.5471 118.537 75.4006C119.5 74.9394 119.866 73.4013 120.546 72.5884C121.205 71.5265 121.999 70.5781 122.782 69.5052C122.896 69.3698 122.468 68.7801 122.116 69.062Z" fill="#1D262D"/>
        <path d="M125.735 68.8686C125.179 69.6705 124.623 70.4725 124.077 71.3989C123.646 72.1899 122.965 73.0028 122.68 74.0318C122.691 74.1563 122.837 74.3944 123.075 74.2479C123.777 73.6841 124.312 72.6331 124.743 71.8422C125.3 71.0402 125.721 70.1248 126.277 69.3228C126.493 68.9273 125.962 68.5976 125.735 68.8686Z" fill="#1D262D"/>
        <path d="M130.679 68.0566C129.522 69.1624 128.491 70.2572 127.594 71.4656C126.924 72.403 125.779 73.6333 125.64 74.9004C125.662 75.1494 125.933 75.3765 126.046 75.241C127.111 74.5198 127.726 72.9598 128.52 72.0114C129.416 70.8031 130.324 69.7192 131.356 68.6244C131.572 68.2289 131.019 67.6502 130.679 68.0566Z" fill="#1D262D"/>
        <path d="M133.778 67.658C132.86 68.6173 132.077 69.6902 131.418 70.7521C130.862 71.554 130.068 72.5024 130.155 73.4985C130.177 73.7476 130.426 73.7257 130.551 73.7147C131.378 73.1399 131.776 71.9754 132.333 71.1734C132.991 70.1115 133.661 69.1741 134.444 68.1012C134.795 67.8193 134.129 67.376 133.778 67.658Z" fill="#1D262D"/>
        <path d="M136.819 68.0174C136.127 68.7058 135.728 69.8703 135.297 70.6613C134.751 71.5877 133.979 72.7851 133.943 73.7922C133.965 74.0413 134.235 74.2684 134.349 74.1329C135.289 73.4226 135.904 71.8626 136.563 70.8007C136.995 70.0097 138.016 68.7904 137.441 67.9626C137.306 67.8491 137.046 67.7465 136.819 68.0174Z" fill="#1D262D"/>
        <path d="M142.813 67.74C141.741 66.9561 141.001 68.5271 140.445 69.329C139.673 70.5264 138.561 72.1303 138.433 73.5219C138.454 73.7709 138.714 73.8735 138.952 73.7271C139.644 73.0387 140.178 71.9877 140.61 71.1968C140.939 70.6658 141.986 68.3149 142.494 68.3955C142.868 68.3626 143.084 67.9671 142.813 67.74Z" fill="#1D262D"/>
        <path d="M146.344 66.5506C145.55 67.499 144.767 68.5719 143.984 69.6448C143.427 70.4467 142.509 71.4061 142.348 72.4241C142.37 72.6732 142.505 72.7867 142.743 72.6403C143.57 72.0655 144.093 70.89 144.639 69.9635C145.297 68.9016 145.967 67.9642 146.626 66.9023C146.977 66.6203 146.56 66.1552 146.344 66.5506Z" fill="#1D262D"/>
        <path d="M149.476 66.5254C148.807 67.4628 148.261 68.3892 147.716 69.3156C147.284 70.1066 146.501 71.1795 146.578 72.0511C146.6 72.3002 146.86 72.4027 147.098 72.2563C147.811 71.817 148.086 70.6634 148.517 69.8725C149.052 68.8215 149.597 67.895 150.007 66.855C150.234 66.5841 149.703 66.2544 149.476 66.5254Z" fill="#1D262D"/>
        <path d="M153.355 66.4345C152.674 67.2474 152.005 68.1848 151.459 69.1113C151.028 69.9022 150.109 70.8616 150.197 71.8577C150.219 72.1067 150.479 72.2093 150.717 72.0629C151.43 71.6235 151.84 70.5836 152.147 69.8036C152.693 68.8771 153.351 67.8152 154.021 66.8778C154.361 66.4713 153.684 65.9036 153.355 66.4345Z" fill="#1D262D"/>
        <path d="M158.083 66.0181C157.164 66.9774 156.381 68.0503 155.598 69.1232C154.928 70.0606 154.134 71.009 153.611 72.1844C153.498 72.3199 153.768 72.547 153.882 72.4116C154.811 71.5767 155.594 70.5039 156.388 69.5555C157.183 68.6071 158.101 67.6478 158.76 66.5859C159.213 66.0439 158.434 65.7362 158.083 66.0181Z" fill="#1D262D"/>
        <path d="M160.706 65.9123C160.286 66.8278 159.876 67.8678 159.455 68.7833C159.137 69.4388 158.342 70.3871 158.544 71.2478C158.555 71.3723 158.69 71.4859 158.814 71.4749C159.674 71.2736 160.073 70.1091 160.381 69.3291C160.791 68.2891 161.211 67.3737 161.497 66.3446C161.815 65.6891 160.911 65.3923 160.706 65.9123Z" fill="#1D262D"/>
        <path d="M165.65 65.1001C164.958 65.7885 164.673 66.8175 164.117 67.6194C163.685 68.4104 162.891 69.3587 162.843 70.2413C162.865 70.4904 163.136 70.7175 163.374 70.571C164.087 70.1317 164.611 68.9562 165.054 68.2898C165.474 67.3743 166.144 66.4369 166.305 65.4188C166.272 65.0453 165.877 64.8291 165.65 65.1001Z" fill="#1D262D"/>
        <path d="M169.833 65.6098C169.152 66.4227 168.731 67.3382 168.321 68.3782C167.889 69.1692 167.231 70.2311 167.432 71.0917C167.454 71.3408 167.714 71.4434 167.951 71.2969C168.665 70.8576 168.815 69.715 169.247 68.924C169.657 67.884 170.202 66.9576 170.612 65.9176C170.579 65.5441 170.173 65.2034 169.833 65.6098Z" fill="#1D262D"/>
        <path d="M173.737 64.3875C172.954 65.4604 172.16 66.4088 171.512 67.5952C170.967 68.5217 170.07 69.73 170.293 70.8397C170.315 71.0888 170.575 71.1913 170.689 71.0559C171.516 70.481 171.768 69.0785 172.313 68.152C172.961 66.9656 173.609 65.7791 174.268 64.7172C174.619 64.4353 173.953 63.992 173.737 64.3875Z" fill="#1D262D"/>
        <path d="M178.205 63.8683C177.286 64.8277 176.514 66.0251 175.731 67.098C175.175 67.8999 174.245 68.7347 174.209 69.7418C174.231 69.9908 174.491 70.0934 174.604 69.9579C175.566 69.4967 176.203 68.1857 176.759 67.3838C177.418 66.3219 178.212 65.3735 178.735 64.198C178.962 63.9271 178.432 63.5974 178.205 63.8683Z" fill="#1D262D"/>
        <path d="M183.555 63.3969C182.614 64.1072 181.82 65.0555 181.161 66.1175C180.492 67.0549 179.584 68.1387 179.174 69.1787C178.969 69.6987 179.635 70.142 179.976 69.7355C180.781 68.9117 181.304 67.7362 181.974 66.7988C182.643 65.8614 183.573 65.0266 184.107 63.9756C184.437 63.4446 183.906 63.1149 183.555 63.3969Z" fill="#1D262D"/>
        <path d="M187.536 63.0459C186.866 63.9833 186.208 65.0452 185.662 65.9717C185.117 66.8981 184.21 67.982 184.048 69C184.07 69.2491 184.206 69.3626 184.444 69.2162C185.282 68.7659 185.918 67.4549 186.475 66.653C187.133 65.5911 187.792 64.5291 188.202 63.4891C188.531 62.9582 187.865 62.5149 187.536 63.0459Z" fill="#1D262D"/>
        <path d="M191.653 62.8087C190.983 63.7461 190.438 64.6725 189.892 65.5989C189.461 66.3899 188.791 67.3273 189.127 68.3015C189.149 68.5506 189.523 68.5177 189.647 68.5067C190.361 68.0674 190.635 66.9138 190.943 66.1338C191.363 65.2183 191.773 64.1783 192.319 63.2519C192.534 62.8564 191.868 62.4132 191.653 62.8087Z" fill="#1D262D"/>
        <path d="M196.278 62.652C195.597 63.4648 194.927 64.4023 194.247 65.2151C193.804 65.8816 193.01 66.83 192.962 67.7125C192.984 67.9616 193.244 68.0642 193.482 67.9177C194.196 67.4784 194.605 66.4384 195.037 65.6474C195.582 64.721 196.139 63.9191 196.808 62.9817C197.046 62.8352 196.505 62.381 196.278 62.652Z" fill="#1D262D"/>
        <path d="M200.497 62.1547C199.545 62.7404 198.898 63.9269 198.228 64.8643C197.672 65.6662 196.764 66.7501 196.614 67.8927C196.636 68.1417 196.907 68.3688 197.145 68.2223C198.096 67.6366 198.62 66.4611 199.165 65.5346C199.834 64.5972 200.764 63.7624 201.038 62.6089C201.265 62.3379 200.859 61.9973 200.497 62.1547Z" fill="#1D262D"/>
        <path d="M204.57 61.4193C203.776 62.3676 202.992 63.4405 202.209 64.5134C201.54 65.4508 200.621 66.4102 199.962 67.4721C199.747 67.8676 200.288 68.3218 200.639 68.0399C201.58 67.3296 202.239 66.2676 202.908 65.3302C203.68 64.1328 204.339 63.0709 205.122 61.998C205.587 61.5806 204.91 61.0128 204.57 61.4193Z" fill="#1D262D"/>
        <path d="M208.064 61.2369C206.897 62.2182 206.147 63.6646 205.386 64.9865C204.613 66.1839 203.841 67.3813 203.329 68.6813C203.248 69.1904 203.892 69.3846 204.119 69.1136C205.027 68.0298 205.664 66.7188 206.436 65.5214C207.197 64.1995 208.229 63.1047 208.855 61.6692C209.07 61.2737 208.415 60.955 208.064 61.2369Z" fill="#1D262D"/>
        <path d="M103.911 77.3171C138.056 74.9355 171.947 69.69 206.168 68.1801C207.039 68.1033 206.919 66.7336 206.048 66.8104C188.688 67.5873 171.428 69.4848 154.156 71.2579C137.382 72.9871 120.554 74.0937 103.824 76.3209C103.201 76.3758 103.289 77.3719 103.911 77.3171Z" fill="#1D262D"/>
    </g>
    <g clip-path="url(#clip1_0_1)">
        <rect x="22.4321" y="124.673" width="26.7665" height="62.7884" transform="rotate(-6.69167 22.4321 124.673)" fill="#54B58B"/>
        <rect x="74.2165" y="118.74" width="16.9537" height="62.7884" transform="rotate(-3.90662 74.2165 118.74)" fill="#54B58B"/>
        <rect x="70.9975" y="100.543" width="25.0436" height="12.1751" transform="rotate(-3.90662 70.9975 100.543)" fill="#54B58B"/>
        <rect x="15.9668" y="104.686" width="30.2903" height="13.4793" transform="rotate(-3.90662 15.9668 104.686)" fill="#54B58B"/>
        <path d="M18.9785 119.697C25.1499 141.67 22.0489 164.549 26.8195 186.646C26.9456 187.076 27.5585 187.022 27.5199 186.584C23.9827 164.467 26.4168 141.029 19.4086 119.571C19.3777 119.221 18.9554 119.434 18.9785 119.697Z" fill="#1D262D"/>
        <path d="M17.3151 119.844C30.5092 119.387 43.7625 117.601 56.9747 116.349C63.2782 115.793 69.574 115.15 75.8775 114.595C82.7063 113.993 89.7488 113.814 96.5081 112.423C96.8583 112.392 96.812 111.867 96.4618 111.897C89.9291 111.855 83.2265 112.887 76.6603 113.466C70.0942 114.045 63.4482 114.719 56.882 115.297C43.7574 116.542 30.4114 117.277 17.2533 119.143C16.9186 119.349 16.9649 119.875 17.3151 119.844Z" fill="#1D262D"/>
        <path d="M26.9379 186.988C39.017 186.895 51.0498 186.276 63.0517 185.307C74.4408 184.392 86.2598 183.35 97.3915 180.515C97.8215 180.388 97.6722 179.695 97.2422 179.821C73.8383 183.562 50.6379 185.606 26.956 186.192C26.3354 186.158 26.4126 187.035 26.9379 186.988Z" fill="#1D262D"/>
        <path d="M97.7829 179.95C94.9615 157.947 93.8294 135.088 95.321 112.969C95.3623 112.436 94.5512 112.242 94.5099 112.776C93.6417 124.95 93.752 137.214 94.2125 149.448C94.6551 159.475 94.6341 170.25 97.0902 180.1C97.1288 180.538 97.8215 180.388 97.7829 179.95Z" fill="#1D262D"/>
        <path d="M19.9673 121.906C17.4773 121.684 16.9057 121.204 16.1564 118.71C15.6672 117.163 15.6802 115.308 15.4536 113.738C15.0006 110.599 14.7226 107.445 13.927 104.425C13.9039 104.162 13.5614 104.28 13.497 104.551C13.5148 109.759 14.3257 115.957 15.4817 121.065C16.0404 123.4 17.4824 122.743 19.9415 122.615C20.2762 122.408 20.3252 121.963 19.9673 121.906Z" fill="#1D262D"/>
        <path d="M13.824 104.257C20.8099 104.436 27.9348 103.19 34.8512 102.581C41.68 101.979 48.5088 101.377 55.2577 100.871C69.1059 99.8268 83.0081 99.3964 96.7532 98.1851C97.5411 98.1157 97.3532 96.9843 96.6528 97.046C82.5524 97.229 68.3772 98.5665 54.3617 99.7133C47.5252 100.228 40.6964 100.829 33.8676 101.431C27.2139 102.017 20.1714 102.197 13.6824 103.651C13.2447 103.69 13.4738 104.288 13.824 104.257Z" fill="#1D262D"/>
        <path d="M96.7327 96.9506C96.372 100.868 97.2525 104.852 97.5047 108.715C97.6051 109.854 97.5304 111.009 97.4634 112.251C97.3063 114.472 97.0205 114.232 94.8395 114.513C94.3142 114.559 94.3837 115.348 94.909 115.302C98.259 115.271 98.3465 115.264 98.4908 111.895C98.6944 107.197 98.3753 101.574 97.1781 96.9996C97.155 96.7368 96.7172 96.7753 96.7327 96.9506Z" fill="#1D262D"/>
        <path d="M55.7135 100.036C53.2985 92.6546 43.6735 88.5579 36.7881 86.5156C32.3438 85.1412 27.7861 84.4832 23.2027 84.5339C20.2029 84.5334 17.9678 84.2005 16.4408 86.8959C15.3696 88.7563 13.088 93.9023 13.9016 96.1265C14.9289 98.7733 19.8136 99.1376 22.113 99.1998C27.3324 99.358 32.5081 98.0188 37.6967 97.8265C43.9358 97.5416 50.0925 98.3235 56.1281 99.7343C56.6689 99.8632 56.7745 99.0592 56.2337 98.9303C49.6342 97.1277 42.8646 96.3997 36.0281 96.9139C32.5185 97.1349 29.1427 97.8739 25.633 98.0949C23.7945 98.2569 21.8607 98.339 19.9835 98.063C15.8636 97.3664 14.5788 95.8019 15.5137 91.3927C16.0133 89.0528 17.0871 86.2208 19.6673 85.4636C20.7822 85.1005 22.8345 85.3611 23.9803 85.3484C27.7835 85.4548 31.5378 86.007 35.2431 87.005C42.1207 88.9596 52.2711 93.01 54.8535 100.288C55.0826 100.886 55.9427 100.634 55.7135 100.036Z" fill="#1D262D"/>
        <path d="M56.0251 99.5667C53.3422 94.1518 44.3763 93.5291 39.1028 92.7576C30.6158 91.5629 22.0927 91.9608 14.2853 95.4745C13.7754 95.6961 14.0277 96.5568 14.6251 96.3276C21.6034 93.4168 29.045 92.761 36.6102 93.5071C42.306 94.0648 51.9801 94.7134 55.3479 99.8913C55.5616 100.314 56.2389 99.9894 56.0251 99.5667Z" fill="#1D262D"/>
        <path d="M55.8577 99.6698C57.1043 91.7894 61.5618 85.3037 67.9401 80.5914C72.9949 76.8788 86.712 68.3409 91.362 76.0549C92.1937 77.4827 93.0691 80.4078 92.7858 82.1989C92.3814 84.6186 89.1576 85.0794 87.095 85.7026C83.3201 86.9183 79.6404 88.2139 75.9685 89.5971C68.6246 92.3636 61.1134 95.2331 54.1171 98.9402C53.7823 99.1463 54.0913 99.6489 54.4338 99.5304C65.6891 95.0947 76.7229 90.1488 88.3104 86.4786C90.7154 85.7368 93.8028 85.7296 93.9857 82.7995C94.2407 79.6865 92.6805 73.996 90.3786 71.903C87.9736 69.6425 83.8382 71.773 81.1859 72.7131C76.7338 74.2534 72.4078 76.2241 68.4938 78.8649C61.4228 83.7265 56.0563 90.9104 54.9591 99.4841C54.9179 100.018 55.8165 100.203 55.8577 99.6698Z" fill="#1D262D"/>
        <path d="M93.53 80.632C78.8065 78.7507 62.1591 88.0767 54.1376 100.175C53.9059 100.548 54.3822 100.948 54.7093 100.654C59.5478 94.4879 65.1871 89.3992 72.3019 86.0349C79.1617 82.7813 86.0626 81.9965 93.5042 81.3407C93.8544 81.3099 93.8879 80.6888 93.53 80.632Z" fill="#1D262D"/>
        <path d="M55.4612 99.1749C55.1857 98.0512 54.7429 97.0306 54.3798 95.9147C54.1584 95.4044 53.8417 94.8142 53.7954 94.2885C53.3911 93.706 53.5199 93.1648 54.2692 92.6573C54.5241 92.5465 54.6915 92.4435 54.9542 92.4203C55.8065 92.0803 55.7267 92.1756 55.8914 93.0441C56.033 93.6498 56.0794 94.1755 56.1334 94.7888C56.2261 95.8403 56.2389 96.9871 56.5942 98.0154C56.7049 98.2706 57.0551 98.2397 57.1195 97.9691C57.3848 96.9744 57.2123 96.0183 57.0321 94.9746C56.9471 94.0107 56.9343 92.8639 56.5944 92.0108C56.1361 90.815 55.2993 91.3303 54.3594 91.678C53.3397 92.1211 52.3123 92.4765 52.6032 93.7754C52.7757 94.7315 53.3859 95.6491 53.7258 96.5022C54.1686 97.5228 54.5162 98.4634 55.0466 99.4763C55.1573 99.7315 55.4844 99.4378 55.4612 99.1749Z" fill="#1D262D"/>
        <path d="M54.2124 99.0201C44.4895 95.8151 28.9443 100.629 23.5649 109.668C18.4971 118.239 21.8544 130.305 31.2812 134.154C38.1407 136.905 53.1065 134.527 50.8743 124.215C48.6345 113.817 35.4506 116.391 31.3408 123.818C27.7665 130.314 29.7052 137.295 29.965 144.248C30.2942 154.992 19.739 168.373 7.96137 162.877C7.50046 162.652 7.20432 163.297 7.67295 163.608C16.6259 169.089 27.6702 160.257 30.4385 151.624C32.1794 146.349 30.7222 140.826 30.4262 135.466C30.223 131.157 30.6017 126.444 33.3724 122.844C36.3827 118.958 42.0863 116.601 46.4868 119.481C51.0701 122.432 50.8871 128.365 46.6615 131.474C43.9268 133.481 40.5587 134.308 37.1933 134.163C30.0169 133.824 24.2054 128.95 22.8718 121.827C21.4765 114.002 25.473 107.292 32.2067 103.608C38.3506 100.241 47.1416 97.8772 54.0038 99.6566C54.3617 99.7134 54.578 99.1645 54.2124 99.0201Z" fill="#1D262D"/>
        <path d="M53.9059 100.548C66.2581 96.5456 71.7342 119.64 72.6506 128.036C73.5593 136.345 75.1323 143.182 82.6948 147.902C89.0419 151.846 99.1331 154.224 105.481 149.161C111.254 144.59 112.637 136.256 109.256 129.932C108.947 129.429 108.087 129.681 108.316 130.279C110.34 135.223 110.628 140.495 107.584 145.002C103.853 150.717 97.3667 151.201 91.156 149.805C86.1143 148.66 81.1318 146.185 77.9365 141.963C74.7411 137.742 74.4117 133.002 73.8763 127.928C73.0525 120.583 65.9106 92.6027 53.5171 100.141C53.3497 100.244 53.5634 100.667 53.9059 100.548Z" fill="#1D262D"/>
        <path d="M47.0385 100.712C46.9765 106.015 47.9007 111.497 49.3992 116.486C49.5331 117.004 50.2978 116.672 50.1717 116.242C48.9204 111.054 48.2099 105.995 47.6513 100.658C47.6205 100.307 47.0076 100.361 47.0385 100.712Z" fill="#1D262D"/>
        <path d="M68.6218 99.3395C68.3203 104.929 70.1432 110.596 70.797 116.014C70.8357 116.452 71.4485 116.398 71.4974 115.952C71.6238 110.378 69.3786 104.924 69.2424 99.3732C69.299 99.015 68.5909 98.9891 68.6218 99.3395Z" fill="#1D262D"/>
        <path d="M49.8755 116.886C52.1617 127.811 52.9673 138.954 54.123 150.067C55.3174 161.617 56.5916 173.072 57.786 184.623C57.8323 185.149 58.6202 185.079 58.5739 184.554C57.3795 173.003 56.1053 161.548 54.911 149.997C53.7629 138.972 53.0372 127.733 50.6635 116.817C50.6171 116.291 49.7339 116.28 49.8755 116.886Z" fill="#1D262D"/>
        <path d="M70.1147 115.279C70.5855 126.628 72.1146 137.973 73.1983 149.268C74.282 160.564 75.3656 171.859 76.457 183.243C76.511 183.856 77.4741 183.771 77.42 183.158C76.3364 171.862 75.2527 160.567 74.1613 149.184C73.0777 137.888 72.424 126.466 70.7276 115.225C70.6889 114.787 70.0761 114.841 70.1147 115.279Z" fill="#1D262D"/>
        <path d="M56.0587 95.9434C58.0467 93.4724 59.7565 90.8492 61.9273 88.4504C64.1058 86.1391 66.6731 84.2351 68.8593 82.0115C69.0267 81.9085 68.8207 81.5734 68.6533 81.6765C63.3385 84.4407 58.1189 90.2871 55.5025 95.6392C55.4382 95.9098 55.9068 96.2217 56.0587 95.9434Z" fill="#1D262D"/>
        <path d="M53.1619 96.1103C46.596 90.6843 37.8206 87.2192 29.21 87.6248C29.0349 87.6402 28.9705 87.9108 29.2409 87.9753C37.9674 88.884 45.5042 91.3104 52.6829 96.6823C53.0563 96.9143 53.4554 96.4376 53.1619 96.1103Z" fill="#1D262D"/>
        <path d="M16.9912 104.155C16.4966 110.556 28.0221 109.187 26.9228 103.721C26.8919 103.37 26.2714 103.337 26.31 103.775C26.9896 108.483 17.3824 109.595 17.6195 104.276C17.5809 103.838 17.0479 103.796 16.9912 104.155Z" fill="#1D262D"/>
        <path d="M19.0953 93.9911C18.5365 94.6585 17.9778 95.3258 17.419 95.9932C17.0198 96.4699 16.3658 97.0573 16.34 97.766C16.3554 97.9413 16.5383 98.0135 16.7134 97.998C17.3185 97.8564 17.7665 96.9339 18.1657 96.4572C18.6369 95.7976 19.1082 95.1379 19.5794 94.4783C19.891 94.0093 19.4146 93.6098 19.0953 93.9911Z" fill="#1D262D"/>
        <path d="M21.333 93.3524C20.7819 94.1074 20.2231 94.7748 19.6798 95.6174C19.2884 96.1817 18.7296 96.849 18.7914 97.55C18.8068 97.7253 18.9896 97.7975 19.0694 97.7021C19.7544 97.4651 20.1149 96.5504 20.4265 96.0814C20.89 95.3341 21.3535 94.5869 21.8171 93.8396C22.1364 93.4582 21.6523 92.9711 21.333 93.3524Z" fill="#1D262D"/>
        <path d="M24.1423 93.193C23.4161 93.9634 22.7775 94.7261 22.1389 95.4888C21.6599 96.0609 21.0213 96.8236 20.9955 97.5322C21.0032 97.6199 21.1938 97.7797 21.2736 97.6843C21.9508 97.3598 22.3989 96.4372 22.8701 95.7776C23.4212 95.0226 24.0598 94.2599 24.6984 93.4972C24.9456 93.2988 24.3817 92.907 24.1423 93.193Z" fill="#1D262D"/>
        <path d="M26.1559 93.0156C25.5095 93.6907 24.9662 94.5333 24.4151 95.2883C23.9439 95.9479 23.2023 96.5431 23.0014 97.2672C22.9293 97.4502 23.1198 97.61 23.2872 97.5069C24.052 97.1746 24.5953 96.332 25.1541 95.6646C25.7129 94.9973 26.4313 94.1393 26.712 93.3198C26.8563 92.9539 26.3953 92.7296 26.1559 93.0156Z" fill="#1D262D"/>
        <path d="M52.6031 96.7778C52.1885 97.0792 51.7739 97.3807 51.3594 97.6821C51.0246 97.8882 50.5148 98.1098 50.3705 98.4757C50.2907 98.571 50.3937 98.7385 50.4813 98.7308C50.8469 98.8752 51.4288 98.4707 51.7636 98.2646C52.2657 97.9555 52.5928 97.6617 52.9043 97.1928C53.1438 96.9068 52.8503 96.5794 52.6031 96.7778Z" fill="#1D262D"/>
        <path d="M51.4109 96.2648C50.9011 96.4864 50.3912 96.7079 49.9766 97.0093C49.5543 97.2232 48.9647 97.54 48.6453 97.9214C48.5655 98.0167 48.6685 98.1842 48.7561 98.1765C49.2814 98.1302 49.6959 97.8288 50.1182 97.615C50.6204 97.3058 51.1225 96.9967 51.6246 96.6875C51.7843 96.4968 51.5783 96.1618 51.4109 96.2648Z" fill="#1D262D"/>
        <path d="M49.8299 95.3444C49.2093 95.3108 48.6428 95.8905 48.1407 96.1997C47.6386 96.5088 46.8738 96.8411 46.4747 97.3178C46.315 97.5085 46.5056 97.6683 46.6807 97.6529C47.3012 97.6865 47.7956 97.2897 48.2978 96.9805C48.8874 96.6637 49.4694 96.2592 49.9638 95.8624C50.2187 95.7516 50.0926 95.3212 49.8299 95.3444Z" fill="#1D262D"/>
        <path d="M47.7545 94.8208C47.0387 94.7073 46.5597 95.2793 45.9778 95.6838C45.1409 96.1991 44.2165 96.722 43.4826 97.4048C43.3152 97.5079 43.4259 97.763 43.6886 97.7399C44.4688 97.5828 45.1383 97.1706 45.8078 96.7584C46.1425 96.5523 46.5648 96.3385 46.8919 96.0447C47.1391 95.8464 47.4584 95.465 47.8086 95.4341C48.0635 95.3234 48.1124 94.8776 47.7545 94.8208Z" fill="#1D262D"/>
        <path d="M45.1307 94.0808C44.644 94.5652 44.0698 95.0573 43.5831 95.5417C43.1762 95.9307 42.5943 96.3352 42.4655 96.8764C42.4732 96.964 42.481 97.0516 42.5685 97.0439C43.1813 96.9899 43.6526 96.3303 44.0594 95.9412C44.5461 95.4568 45.0328 94.9724 45.5118 94.4004C45.759 94.202 45.3779 93.8824 45.1307 94.0808Z" fill="#1D262D"/>
        <path d="M42.9986 93.9156C42.3214 94.2401 41.7549 94.8199 41.2682 95.3043C40.7892 95.8763 39.9524 96.3916 39.7515 97.1157C39.7592 97.2033 39.8545 97.2832 39.942 97.2755C40.5394 97.0462 41.0107 96.3866 41.5051 95.9898C42.0716 95.4101 42.6304 94.7427 43.2999 94.3305C43.3797 94.2352 43.166 93.8125 42.9986 93.9156Z" fill="#1D262D"/>
        <path d="M41.209 93.6316C40.5241 93.8686 40.0529 94.5282 39.4709 94.9327C38.9842 95.4171 38.0521 95.8525 37.8435 96.489C37.7714 96.6719 37.8744 96.8395 38.0495 96.824C38.7498 96.7623 39.3086 96.095 39.803 95.6982C40.3773 95.2061 40.8562 94.634 41.4305 94.1419C41.67 93.8559 41.464 93.5209 41.209 93.6316Z" fill="#1D262D"/>
        <path d="M25.8261 97.2831C26.9514 96.036 28.1643 94.7812 29.202 93.5418C29.4415 93.2558 29.0527 92.8485 28.7257 93.1423C27.5051 94.3095 26.4751 95.6365 25.445 96.9635C25.2056 97.2495 25.5789 97.4815 25.8261 97.2831Z" fill="#1D262D"/>
        <path d="M27.7908 97.5516C28.5092 96.6936 29.1401 95.8433 29.8663 95.0729C30.5925 94.3025 31.4139 93.612 32.2276 92.8338C32.3873 92.6432 32.1813 92.3081 31.9264 92.4189C29.9822 93.3849 28.584 95.5391 27.4973 97.2243C27.3453 97.5026 27.6389 97.8299 27.7908 97.5516Z" fill="#1D262D"/>
        <path d="M29.9177 96.6577C30.0053 96.65 30.0928 96.6422 30.1804 96.6345C30.1958 96.8098 30.2036 96.8974 30.3066 97.0649C30.7778 96.4053 31.5194 95.8101 32.0936 95.318C32.6601 94.7383 33.4095 94.2307 33.6979 93.4989C33.7777 93.4035 33.6747 93.236 33.4996 93.2514C32.7349 93.5837 32.0087 94.3542 31.4422 94.9339C31.1152 95.2276 30.7958 95.609 30.4765 95.9903C30.2371 96.2763 29.9023 96.4824 29.8456 96.8406C29.8611 97.0159 29.9641 97.1834 30.1392 97.168C30.3143 97.1525 30.3941 97.0572 30.3787 96.882C30.3478 96.5315 30.0774 96.467 29.9177 96.6577Z" fill="#1D262D"/>
        <path d="M32.176 97.2533C33.0772 96.4675 33.7957 95.6094 34.7922 94.9035C35.5415 94.396 36.4737 93.9606 36.9372 93.2133C37.0093 93.0304 36.9063 92.8628 36.7312 92.8783C35.8635 93.043 34.9622 93.8289 34.2129 94.3364C33.3039 95.0347 32.4026 95.8205 31.7794 96.7584C31.6275 97.0367 31.9288 97.4517 32.176 97.2533Z" fill="#1D262D"/>
        <path d="M34.2205 97.4265C35.217 96.7206 36.126 96.0223 37.1225 95.3164C37.9517 94.7135 39.0512 94.1751 39.6898 93.4124C39.7619 93.2295 39.6589 93.0619 39.4838 93.0774C38.5208 93.1622 37.532 93.9558 36.6951 94.471C35.611 95.1847 34.7175 96.0582 33.7287 96.8517C33.3939 97.0578 33.8059 97.7279 34.2205 97.4265Z" fill="#1D262D"/>
        <path d="M59.6534 93.6839C59.4371 94.2328 59.2208 94.7816 59.0998 95.4104C58.9633 95.8639 58.8422 96.4927 59.1435 96.9077C59.2465 97.0752 59.5014 96.9645 59.5812 96.8691C59.813 96.4955 59.7667 95.9698 59.8156 95.5239C59.9444 94.9828 60.0731 94.4416 60.2019 93.9004C60.3461 93.5345 59.7976 93.318 59.6534 93.6839Z" fill="#1D262D"/>
        <path d="M61.3118 92.4781C61.1109 93.2022 61.0851 93.9109 60.9718 94.6273C60.9306 95.1608 60.8172 95.8772 61.1185 96.2922C61.2138 96.3721 61.3013 96.3643 61.3811 96.269C61.6927 95.8 61.5666 95.3696 61.5202 94.8439C61.5383 94.0476 61.6516 93.3312 61.7572 92.5272C61.9092 92.2489 61.3761 92.2075 61.3118 92.4781Z" fill="#1D262D"/>
        <path d="M62.692 91.1204C62.4653 92.5532 62.1099 94.5272 62.5837 95.8983C62.6867 96.0658 62.9493 96.0427 63.0214 95.8597C63.1425 95.2309 63.0807 94.5299 63.1065 93.8213C63.1168 92.9373 63.1271 92.0534 63.2327 91.2494C63.2894 90.8912 62.7486 90.7622 62.692 91.1204Z" fill="#1D262D"/>
        <path d="M64.94 89.5976C64.721 91.118 64.206 93.2827 64.6874 94.7414C64.7904 94.9089 65.0531 94.8858 65.1252 94.7028C65.326 93.9787 65.2565 93.1901 65.2823 92.4814C65.2849 91.5099 65.2953 90.6259 65.3854 89.6467C65.3623 89.3838 65.0043 89.327 64.94 89.5976Z" fill="#1D262D"/>
        <path d="M66.4155 88.3197C66.3562 89.6494 66.0008 91.6234 66.6419 92.8914C66.7449 93.059 66.92 93.0435 66.9998 92.9482C67.2084 92.3117 67.1466 91.6107 67.0849 90.9097C67.0077 90.0335 67.018 89.1496 66.9408 88.2734C66.9974 87.9152 66.3846 87.9692 66.4155 88.3197Z" fill="#1D262D"/>
        <path d="M68.2952 87.6243C68.357 88.3253 68.3235 88.9463 68.3852 89.6473C68.4316 90.173 68.3904 90.7065 68.6993 91.2091C68.8023 91.3766 68.9774 91.3611 69.0495 91.1782C69.2736 90.7169 69.132 90.1113 69.0856 89.5856C69.0239 88.8846 68.9698 88.2712 68.8205 87.578C68.7896 87.2275 68.2643 87.2738 68.2952 87.6243Z" fill="#1D262D"/>
        <path d="M69.7861 86.5217C69.7526 87.1427 69.8144 87.8437 69.7809 88.4648C69.8272 88.9905 69.6985 89.5317 70.095 90.0265C70.198 90.194 70.4606 90.1709 70.5328 89.9879C70.7568 89.5267 70.6152 88.9211 70.5689 88.3953C70.5148 87.782 70.453 87.081 70.3114 86.4754C70.2805 86.1249 69.8428 86.1635 69.7861 86.5217Z" fill="#1D262D"/>
        <path d="M71.5552 85.5708C71.6092 86.1842 71.6633 86.7975 71.6375 87.5062C71.6838 88.032 71.555 88.5731 71.9438 88.9804C72.0391 89.0603 72.2219 89.1325 72.3018 89.0371C72.6211 88.6558 72.4872 88.1378 72.4409 87.612C72.3791 86.9111 72.2375 86.3054 72.1757 85.6045C72.0496 85.1741 71.5243 85.2204 71.5552 85.5708Z" fill="#1D262D"/>
        <path d="M73.18 84.9862C73.2263 85.5119 73.2803 86.1253 73.3267 86.651C73.3653 87.0891 73.4039 87.5272 73.6974 87.8546C73.7927 87.9345 73.9678 87.919 74.0399 87.7361C74.2717 87.3625 74.1378 86.8444 74.0992 86.4063C74.0528 85.8806 73.919 85.3626 73.8726 84.8369C73.8417 84.4864 73.1414 84.5481 73.18 84.9862Z" fill="#1D262D"/>
        <path d="M75.6417 83.8863C75.4099 84.26 75.5284 84.6028 75.5593 84.9532C75.6056 85.479 75.6442 85.9171 75.6905 86.4428C75.706 86.6181 75.809 86.7856 76.0793 86.8501C76.1669 86.8423 76.2544 86.8346 76.342 86.8269C76.5171 86.8115 76.5892 86.6285 76.5814 86.5409C76.6227 86.0075 76.5841 85.5693 76.5377 85.0436C76.4991 84.6055 76.4605 84.1674 76.0871 83.9354C75.8966 83.7756 75.7215 83.791 75.6417 83.8863Z" fill="#1D262D"/>
        <path d="M77.8149 83.5181C77.766 83.9639 77.8123 84.4896 77.8509 84.9277C77.8818 85.2782 77.8329 85.724 78.1187 85.9638C78.214 86.0437 78.3891 86.0282 78.4689 85.9329C78.7959 85.6392 78.5822 85.2165 78.5513 84.866C78.5127 84.4279 78.3788 83.9099 78.3402 83.4718C78.3093 83.1213 77.8716 83.1599 77.8149 83.5181Z" fill="#1D262D"/>
        <path d="M79.6149 82.918C79.5891 83.6267 79.4758 84.3431 79.5375 85.0441C79.553 85.2193 79.6483 85.2992 79.7435 85.3791C80.1169 85.6111 80.2534 85.1576 80.31 84.7994C80.3435 84.1783 80.2895 83.5649 80.2277 82.864C80.117 82.6088 79.6715 82.5598 79.6149 82.918Z" fill="#1D262D"/>
        <path d="M81.2629 82.5962C81.3092 83.122 81.3555 83.6477 81.3143 84.1811C81.322 84.2688 81.425 84.4363 81.5203 84.5162C81.6156 84.5961 81.7031 84.5884 81.7829 84.4931C81.8705 84.4853 82.0301 84.2947 82.0224 84.207C82.1435 83.5783 82.0019 82.9726 81.868 82.4546C81.8371 82.1041 81.232 82.2458 81.2629 82.5962Z" fill="#1D262D"/>
        <path d="M83.413 81.9652C83.4516 82.4033 83.4026 82.8491 83.3537 83.295C83.3614 83.3826 83.3768 83.5578 83.4721 83.6377C83.4721 83.6377 83.5597 83.63 83.5674 83.7176C83.6627 83.7975 83.7502 83.7898 83.9176 83.6868L84.0051 83.6791C84.085 83.5837 84.1648 83.4884 84.1493 83.3131C84.1107 82.875 84.0644 82.3493 84.0258 81.9112C83.9949 81.5607 83.3821 81.6147 83.413 81.9652Z" fill="#1D262D"/>
        <path d="M85.4266 81.7878C85.3777 82.2336 85.4085 82.5841 85.3596 83.0299C85.375 83.2052 85.3905 83.3804 85.4858 83.4603L85.581 83.5402C85.6763 83.6201 85.7638 83.6124 85.9312 83.5094L86.0188 83.5016C86.1861 83.3986 86.1707 83.2233 86.163 83.1357C86.1244 82.6976 86.181 82.3394 86.1424 81.9013C86.1836 81.3679 85.4755 81.342 85.4266 81.7878Z" fill="#1D262D"/>
        <path d="M87.1286 82.0793C87.1363 82.1669 87.144 82.2545 87.1595 82.4298C87.1749 82.605 87.2779 82.7725 87.4607 82.8447C87.5483 82.837 87.6358 82.8293 87.8109 82.8139C87.8908 82.7185 88.0504 82.5279 87.9551 82.448C87.9474 82.3603 87.9397 82.2727 87.9243 82.0975C87.8779 81.5717 87.0823 81.5536 87.1286 82.0793Z" fill="#1D262D"/>
        <path d="M34.2948 108.281C31.3748 108.185 28.8461 110.527 29.1163 113.594C29.4433 116.303 32.6619 117.785 35.0747 117.131C37.7501 116.454 39.1818 113.678 38.6798 110.985C38.3812 109.599 36.2543 107.49 34.748 108.418C34.5008 108.616 34.7067 108.951 34.9694 108.928C35.917 108.668 37.449 110.034 37.7812 110.8C38.4995 112.944 37.1553 115.711 34.9022 116.175C32.7443 116.718 29.9866 115.46 29.9455 112.991C29.9044 110.522 31.9618 108.84 34.3411 108.807C34.7943 108.944 34.7402 108.33 34.2948 108.281Z" fill="#1D262D"/>
        <path d="M42.867 101.433C42.0224 101.861 42.0121 102.744 42.0816 103.533C42.0867 104.592 42.0274 105.922 42.805 106.736C44.0667 108.038 47.0588 107.951 48.1764 106.616C48.3361 106.426 48.0425 106.098 47.8829 106.289C46.8065 107.09 45.1354 107.149 43.9432 106.636C43.0291 106.275 42.872 105.494 42.8824 104.61C42.8206 103.909 42.6018 102.428 43.2713 102.015C43.4232 101.737 43.1142 101.234 42.867 101.433Z" fill="#1D262D"/>
        <path d="M70.998 112.287C73.04 110.43 75.7591 111.25 76.8508 113.626C76.9693 113.969 77.5821 113.915 77.5435 113.477C76.9076 110.265 72.7723 109.394 70.6968 111.872C70.4496 112.071 70.7508 112.486 70.998 112.287Z" fill="#1D262D"/>
        <path d="M74.6292 99.4285C73.4007 106.513 86.618 103.317 83.9093 98.6106C83.7986 98.3555 83.3763 98.5693 83.3995 98.8322C83.6157 101.286 81.584 102.259 79.4983 102.62C77.1499 103.003 75.466 101.915 75.3373 99.4544C75.2987 99.0163 74.6781 98.9826 74.6292 99.4285Z" fill="#1D262D"/>
        <path d="M88.0781 101.863C85.825 102.327 84.3391 104.489 84.5399 106.767C84.7484 109.133 87.9542 109.468 89.7618 108.956C91.7446 108.428 92.8879 106.385 92.3601 104.4C91.8478 102.591 89.4093 100.951 87.5605 101.997C87.3931 102.1 87.4163 102.363 87.6866 102.428C89.1183 102.655 90.5191 102.531 91.4306 103.864C92.548 105.531 91.6905 107.815 89.7953 108.335C88.1551 108.744 85.2273 108.561 85.2969 106.347C85.3022 104.404 86.3966 102.806 88.2995 102.374C88.4746 102.358 88.4283 101.833 88.0781 101.863Z" fill="#1D262D"/>
        <path d="M24.2822 141.835C25.8529 140.637 27.2023 138.929 26.7543 136.849C26.3449 135.207 24.6455 133.944 22.9898 134.179C22.8147 134.194 22.7503 134.465 22.8456 134.544C23.9734 135.328 25.4772 135.372 25.799 137.022C26.2161 138.751 25.0187 140.181 23.7827 141.173C23.4556 141.467 23.9551 142.129 24.2822 141.835Z" fill="#1D262D"/>
        <path d="M35.1798 128.336C34.5618 130.333 36.2921 131.947 38.2336 131.952C40.4455 132.022 42.5828 130.244 42.6446 127.943C42.6113 125.562 40.2037 124.273 38.0948 124.37C36.4237 124.429 33.792 126.604 35.1798 128.336C35.3781 128.583 35.8004 128.369 35.6897 128.114C34.8761 125.89 37.8141 125.19 39.2535 125.504C40.7805 125.811 42.1786 126.659 41.8953 128.45C41.4884 131.842 34.899 132.158 35.6253 128.385C35.6021 128.122 35.2442 128.065 35.1798 128.336Z" fill="#1D262D"/>
        <path d="M52.7382 135.354C48.2371 137.34 49.3905 143.42 53.5799 144.905C53.6751 144.985 53.7472 144.802 53.652 144.722C50.2995 142.721 49.1666 137.876 52.9519 135.777C53.2145 135.753 52.9931 135.243 52.7382 135.354Z" fill="#1D262D"/>
        <path d="M37.5379 145.082C35.3131 146.868 34.1671 149.883 35.9824 152.46C37.8929 155.117 41.4515 154.45 43.6763 152.665C45.8136 150.887 46.6326 148.166 44.5855 145.962C42.9351 144.253 38.9285 142.84 37.283 145.193C37.0512 145.567 37.5199 145.878 37.7593 145.592C39.3868 144.036 42.0982 144.769 43.6225 146.047C46.0043 148.045 45.1132 150.949 42.873 152.559C40.7125 154.074 37.3625 154.104 36.1524 151.385C35.1637 149.177 36.1963 146.878 37.8392 145.497C37.9911 145.219 37.7851 144.884 37.5379 145.082Z" fill="#1D262D"/>
        <path d="M24.938 164.295C26.7276 164.578 27.8734 164.566 28.5197 166.893C28.6613 167.498 28.6355 168.207 28.6895 168.821C28.7384 171.377 27.8268 173.047 25.4526 174.139C24.9428 174.361 25.2749 175.126 25.7848 174.904C28.7563 173.583 29.7246 171.555 29.5341 168.393C29.3514 165.318 28.3138 163.556 25.0436 163.49C24.526 163.624 24.4925 164.245 24.938 164.295Z" fill="#1D262D"/>
        <path d="M44.4919 171.931C41.7032 173.325 41.7648 177.028 43.3818 179.358C45.4983 182.351 49.5874 182.697 52.1882 180.172C54.7889 177.647 55.1496 173.73 52.0365 171.443C49.3921 169.469 44.7289 169.615 43.2482 172.836C43.104 173.202 43.5803 173.601 43.8996 173.22C45.5528 170.955 48.5861 170.334 51.0889 171.703C54.5136 173.521 54.3821 178.036 51.4002 180.241C46.2733 184.137 39.4294 175.556 44.8009 172.434C44.9528 172.156 44.7391 171.733 44.4919 171.931Z" fill="#1D262D"/>
        <path d="M54.7923 155.659C52.4027 156.576 51.7589 159.282 52.0549 161.64C52.3046 163.472 53.3628 166.47 55.7189 166.174C55.894 166.158 55.9661 165.975 55.7833 165.903C54.0916 164.728 53.211 163.746 52.9381 161.65C52.6653 159.555 53.2911 157.646 55.1245 156.424C55.539 156.123 55.2223 155.533 54.7923 155.659Z" fill="#1D262D"/>
        <path d="M31.1248 186.443C33.1077 182.913 38.461 183.589 41.1285 185.826C41.4143 186.066 41.8135 185.589 41.5277 185.349C38.5743 182.872 32.7832 182.235 30.7515 186.211C30.5995 186.489 30.9729 186.721 31.1248 186.443Z" fill="#1D262D"/>
        <path d="M78.2906 176.017C77.7034 178.364 78.2544 180.612 80.9426 181.081C83.448 181.479 85.0832 180.01 85.7579 177.655C86.3683 175.57 84.8929 173.846 82.7685 173.768C81.1772 173.731 77.9585 175.251 78.1283 177.179C78.1515 177.442 78.5094 177.499 78.6691 177.308C79.1893 176.203 80.5128 175.203 81.7153 174.832C83.7779 174.209 85.7477 175.536 84.97 177.724C84.4086 179.363 83.3631 180.515 81.5014 180.414C79.1067 180.272 78.4991 178.383 78.8391 176.233C78.888 175.788 78.355 175.746 78.2906 176.017Z" fill="#1D262D"/>
        <path d="M88.1428 163.669C86.8244 165.728 86.7548 167.942 89.0825 169.326C91.0368 170.478 93.6324 169.897 94.6805 167.773C96.9363 163.336 88.8305 159.459 87.7205 163.883C87.584 164.337 88.2123 164.458 88.3565 164.092C90.0922 160.76 95.9784 164.48 93.5346 167.786C92.5046 169.113 90.7536 169.267 89.3632 168.507C87.4166 167.442 87.6046 165.571 88.5162 163.901C88.748 163.528 88.2948 163.391 88.1428 163.669Z" fill="#1D262D"/>
        <path d="M75.369 149.872C74.5192 152.243 74.0659 155.108 76.7438 156.462C79.056 157.671 81.8525 156.365 82.9804 154.146C84.0362 152.11 82.8492 149.654 80.9181 148.765C78.526 147.651 76.1235 147.421 74.7716 150.101C74.5398 150.475 75.096 150.779 75.3355 150.493C75.9895 149.906 76.4376 148.983 77.4007 148.898C78.101 148.837 79.0074 149.11 79.6434 149.319C80.7326 149.664 81.7343 150.017 82.1848 151.126C82.5324 152.066 82.4577 153.221 82.0019 154.056C80.923 155.829 78.3505 156.673 76.5636 155.418C74.7689 154.075 75.1964 151.918 75.7346 150.016C75.8943 149.826 75.5286 149.681 75.369 149.872Z" fill="#1D262D"/>
        <path d="M93.9298 133.225C91.0537 131.624 88.5429 136.172 88.481 138.474C88.4809 141.476 91.4498 144.128 94.3724 143.253C94.5475 143.237 94.5166 142.887 94.3338 142.814C92.1708 142.299 89.8972 141.528 89.4981 139.002C89.1145 136.652 91.1437 133.647 93.6337 133.869C94.1744 133.998 94.3032 133.457 93.9298 133.225Z" fill="#1D262D"/>
        <path d="M74.9528 121.122C74.1339 123.843 75.0247 126.944 77.8546 128.019C80.4063 128.942 83.1229 127.731 84.1324 125.17C85.1341 122.521 83.9549 120.152 81.3954 119.142C78.836 118.131 75.4447 118.695 74.4661 121.607C74.4095 121.965 74.8704 122.189 75.1099 121.903C76.4283 119.844 78.4909 119.221 80.7568 119.904C81.9336 120.242 83.1335 120.843 83.5042 122.046C83.8672 123.162 83.6252 124.42 83.002 125.358C81.9307 127.218 79.6931 127.857 77.6743 126.975C75.4728 126.021 74.8832 123.336 75.3107 121.179C75.5502 120.893 75.1048 120.844 74.9528 121.122Z" fill="#1D262D"/>
        <path d="M92.195 112.538C90.3951 113.139 90.1581 115.455 90.48 117.105C90.8327 119.105 92.1973 120.574 94.1774 121.017C94.5354 121.074 94.744 120.438 94.386 120.381C92.9312 119.891 91.8755 118.924 91.3941 117.466C90.9203 116.095 90.9976 113.968 92.4242 113.136C92.7512 112.843 92.45 112.428 92.195 112.538Z" fill="#1D262D"/>
        <path d="M17.9125 119.615C17.6808 119.988 17.4567 120.449 17.3202 120.903C17.176 121.269 17.0318 121.635 17.1502 121.978C17.158 122.065 17.3408 122.137 17.4206 122.042C17.6678 121.844 17.7245 121.486 17.8687 121.12C18.0052 120.666 18.1417 120.213 18.3734 119.839C18.4301 119.481 18.0644 119.336 17.9125 119.615Z" fill="#1D262D"/>
        <path d="M19.097 120.04C18.9528 120.406 18.8085 120.772 18.6721 121.225C18.5201 121.504 18.3759 121.87 18.4068 122.22C18.4145 122.308 18.5973 122.38 18.6772 122.285C18.9166 121.999 18.9733 121.64 19.0377 121.37C19.1819 121.004 19.2308 120.558 19.3751 120.192C19.3596 120.017 19.1768 119.945 19.097 120.04Z" fill="#1D262D"/>
        <path d="M21.8368 119.092C21.4376 119.569 21.0385 120.046 20.6394 120.522C20.4076 120.896 20.0085 121.373 20.0548 121.898C20.0702 122.074 20.2531 122.146 20.4204 122.043C20.835 121.741 20.9638 121.2 21.1955 120.827C21.4994 120.27 21.811 119.801 22.2101 119.324C22.3698 119.134 22.084 118.894 21.8368 119.092Z" fill="#1D262D"/>
        <path d="M24.8134 118.83C24.0718 119.425 23.4178 120.012 22.859 120.68C22.38 121.252 21.6461 121.935 21.453 122.746C21.4607 122.834 21.5637 123.002 21.7311 122.898C22.313 122.494 22.7611 121.571 23.2401 120.999C23.7988 120.332 24.4452 119.657 25.0992 119.07C25.1791 118.974 24.9808 118.727 24.8134 118.83Z" fill="#1D262D"/>
        <path d="M26.8116 118.477C26.1575 119.065 25.591 119.644 25.1275 120.392C24.7284 120.868 23.9945 121.551 23.961 122.172C23.9687 122.26 24.0794 122.515 24.2468 122.412C24.8365 122.095 25.2047 121.268 25.5961 120.704C26.1549 120.036 26.6262 119.377 27.185 118.709C27.2648 118.614 26.979 118.374 26.8116 118.477Z" fill="#1D262D"/>
        <path d="M29.1754 118.269C28.4261 118.776 27.772 119.364 27.1334 120.126C26.6544 120.698 25.8407 121.477 25.7351 122.281C25.7506 122.456 25.9411 122.616 26.1085 122.513C26.6904 122.108 27.1385 121.186 27.6175 120.614C28.1762 119.946 28.8226 119.271 29.5565 118.588C29.6286 118.405 29.4226 118.07 29.1754 118.269Z" fill="#1D262D"/>
        <path d="M30.9573 118.465C30.3907 119.045 29.8242 119.624 29.353 120.284C29.0414 120.753 28.3951 121.428 28.4491 122.041C28.4646 122.217 28.5598 122.297 28.7272 122.194C29.3246 121.964 29.6929 121.137 30.0044 120.668C30.4757 120.009 30.9546 119.437 31.4259 118.777C31.6731 118.578 31.2843 118.171 30.9573 118.465Z" fill="#1D262D"/>
        <path d="M33.6404 117.875C32.9065 118.558 32.3477 119.226 31.7966 119.981C31.4052 120.545 30.6868 121.403 30.7563 122.191C30.7717 122.367 30.9545 122.439 31.1219 122.336C31.7991 122.011 32.0567 120.929 32.5356 120.357C32.9992 119.61 33.5579 118.942 34.109 118.187C34.1888 118.092 33.8876 117.677 33.6404 117.875Z" fill="#1D262D"/>
        <path d="M36.187 117.739C35.7956 118.303 35.4042 118.868 35.0205 119.52C34.7166 120.076 34.2377 120.648 34.0368 121.372C34.0445 121.46 34.1475 121.628 34.3149 121.525C34.8093 121.128 35.1853 120.388 35.4891 119.832C35.8805 119.267 36.1767 118.623 36.5681 118.059C36.72 117.78 36.3467 117.548 36.187 117.739Z" fill="#1D262D"/>
        <path d="M39.6658 117.168C38.8521 117.946 38.1259 118.716 37.495 119.567C37.0238 120.226 36.2178 121.092 36.1199 121.984C36.1354 122.159 36.3259 122.319 36.4057 122.223C37.1551 121.716 37.5877 120.618 38.1465 119.951C38.7774 119.1 39.416 118.338 40.1422 117.567C40.2941 117.289 39.9053 116.882 39.6658 117.168Z" fill="#1D262D"/>
        <path d="M41.8468 116.887C41.2005 117.562 40.6494 118.317 40.1859 119.064C39.7945 119.629 39.2357 120.296 39.2975 120.997C39.3129 121.172 39.488 121.157 39.5755 121.149C40.1575 120.745 40.4382 119.925 40.8296 119.361C41.2931 118.614 41.7644 117.954 42.3154 117.199C42.5626 117.001 42.094 116.689 41.8468 116.887Z" fill="#1D262D"/>
        <path d="M43.9866 117.14C43.4999 117.625 43.2192 118.444 42.9153 119.001C42.5317 119.653 41.9883 120.495 41.9625 121.204C41.978 121.379 42.1685 121.539 42.2483 121.444C42.9101 120.944 43.3428 119.846 43.8063 119.099C44.1101 118.542 44.8286 117.684 44.4243 117.102C44.3291 117.022 44.1462 116.95 43.9866 117.14Z" fill="#1D262D"/>
        <path d="M48.2044 116.945C47.4499 116.394 46.9297 117.499 46.5383 118.063C45.995 118.906 45.2122 120.035 45.122 121.014C45.1374 121.189 45.3203 121.261 45.4876 121.158C45.9743 120.674 46.3503 119.934 46.6542 119.378C46.8859 119.004 47.6224 117.35 47.9803 117.406C48.243 117.383 48.3949 117.105 48.2044 116.945Z" fill="#1D262D"/>
        <path d="M50.6892 116.108C50.1304 116.775 49.5794 117.53 49.0283 118.285C48.6369 118.85 47.9906 119.525 47.8772 120.241C47.8927 120.416 47.9879 120.496 48.1553 120.393C48.7373 119.989 49.1055 119.162 49.4892 118.51C49.9527 117.762 50.424 117.103 50.8875 116.355C51.1347 116.157 50.8412 115.83 50.6892 116.108Z" fill="#1D262D"/>
        <path d="M52.8934 116.09C52.4221 116.75 52.0385 117.402 51.6548 118.054C51.3509 118.611 50.7998 119.366 50.8539 119.979C50.8693 120.154 51.0521 120.226 51.2195 120.123C51.7217 119.814 51.9148 119.002 52.2187 118.446C52.5946 117.706 52.9783 117.054 53.2667 116.322C53.4264 116.132 53.053 115.9 52.8934 116.09Z" fill="#1D262D"/>
        <path d="M55.6228 116.026C55.1439 116.598 54.6726 117.258 54.2889 117.91C53.9851 118.467 53.3387 119.142 53.4005 119.843C53.4159 120.018 53.5988 120.09 53.7661 119.987C54.2683 119.678 54.5567 118.946 54.773 118.397C55.1567 117.745 55.6202 116.998 56.0915 116.338C56.3309 116.052 55.8546 115.653 55.6228 116.026Z" fill="#1D262D"/>
        <path d="M58.9497 115.733C58.3034 116.408 57.7523 117.163 57.2012 117.918C56.73 118.578 56.1712 119.245 55.803 120.073C55.7231 120.168 55.9137 120.328 55.9935 120.232C56.6476 119.645 57.1986 118.89 57.7574 118.223C58.3162 117.555 58.9625 116.88 59.4261 116.133C59.7454 115.752 59.1969 115.535 58.9497 115.733Z" fill="#1D262D"/>
        <path d="M60.7959 115.659C60.4998 116.303 60.2114 117.035 59.9152 117.679C59.6912 118.14 59.1324 118.808 59.274 119.413C59.2817 119.501 59.377 119.581 59.4645 119.573C60.0697 119.432 60.3504 118.612 60.5667 118.063C60.8551 117.331 61.1512 116.687 61.3521 115.963C61.5762 115.502 60.9401 115.293 60.7959 115.659Z" fill="#1D262D"/>
        <path d="M64.2747 115.087C63.788 115.572 63.5872 116.296 63.1958 116.86C62.8919 117.417 62.3331 118.084 62.2996 118.705C62.3151 118.881 62.5056 119.04 62.673 118.937C63.1751 118.628 63.5433 117.801 63.8549 117.332C64.1511 116.688 64.6223 116.028 64.7356 115.312C64.7125 115.049 64.4344 114.897 64.2747 115.087Z" fill="#1D262D"/>
        <path d="M67.2179 115.446C66.7389 116.018 66.4428 116.662 66.1543 117.394C65.8505 117.951 65.387 118.698 65.5286 119.304C65.544 119.479 65.7268 119.551 65.8942 119.448C66.3963 119.139 66.5019 118.335 66.8058 117.778C67.0942 117.047 67.4779 116.395 67.7663 115.663C67.7432 115.4 67.4574 115.16 67.2179 115.446Z" fill="#1D262D"/>
        <path d="M69.9654 114.586C69.4143 115.341 68.8555 116.008 68.3997 116.843C68.016 117.495 67.3851 118.345 67.5422 119.126C67.5576 119.302 67.7405 119.374 67.8203 119.278C68.4022 118.874 68.5799 117.887 68.9636 117.235C69.4194 116.4 69.8752 115.565 70.3387 114.818C70.5859 114.62 70.1173 114.308 69.9654 114.586Z" fill="#1D262D"/>
        <path d="M73.1094 114.22C72.4631 114.896 71.9197 115.738 71.3687 116.493C70.9773 117.057 70.3232 117.645 70.2974 118.354C70.3129 118.529 70.4957 118.601 70.5755 118.506C71.2527 118.181 71.7008 117.259 72.0922 116.694C72.5558 115.947 73.1145 115.28 73.4828 114.452C73.6424 114.262 73.2691 114.03 73.1094 114.22Z" fill="#1D262D"/>
        <path d="M76.874 113.889C76.2122 114.389 75.6534 115.056 75.1899 115.803C74.7187 116.463 74.0801 117.226 73.7916 117.957C73.6474 118.323 74.1161 118.635 74.3556 118.349C74.9221 117.769 75.2903 116.942 75.7616 116.283C76.2328 115.623 76.8869 115.036 77.2628 114.296C77.4946 113.922 77.1212 113.69 76.874 113.889Z" fill="#1D262D"/>
        <path d="M79.6756 113.642C79.2043 114.302 78.7408 115.049 78.3571 115.701C77.9734 116.353 77.3348 117.115 77.2215 117.832C77.2369 118.007 77.3322 118.087 77.4996 117.984C78.0892 117.667 78.5373 116.745 78.9287 116.18C79.3923 115.433 79.8558 114.686 80.1442 113.954C80.376 113.58 79.9073 113.268 79.6756 113.642Z" fill="#1D262D"/>
        <path d="M82.5724 113.475C82.1012 114.135 81.7175 114.787 81.3338 115.438C81.0299 115.995 80.5587 116.655 80.7956 117.34C80.811 117.515 81.0736 117.492 81.1612 117.485C81.6633 117.175 81.8565 116.364 82.0728 115.815C82.3689 115.171 82.6573 114.439 83.041 113.787C83.193 113.509 82.7243 113.197 82.5724 113.475Z" fill="#1D262D"/>
        <path d="M85.8272 113.365C85.3482 113.937 84.877 114.596 84.398 115.168C84.0864 115.637 83.5276 116.305 83.4941 116.926C83.5096 117.101 83.6924 117.173 83.8598 117.07C84.3619 116.761 84.6503 116.029 84.9542 115.472C85.3379 114.82 85.7293 114.256 86.2005 113.597C86.3679 113.493 85.9868 113.174 85.8272 113.365Z" fill="#1D262D"/>
        <path d="M88.7961 113.015C88.1266 113.427 87.6708 114.262 87.1996 114.921C86.8081 115.486 86.1695 116.248 86.0639 117.052C86.0794 117.228 86.2699 117.388 86.4373 117.284C87.1068 116.872 87.475 116.045 87.8587 115.393C88.33 114.734 88.984 114.146 89.1772 113.334C89.3368 113.144 89.051 112.904 88.7961 113.015Z" fill="#1D262D"/>
        <path d="M91.662 112.497C91.1032 113.165 90.5522 113.919 90.0011 114.674C89.5299 115.334 88.8835 116.009 88.42 116.756C88.2681 117.035 88.6492 117.354 88.8964 117.156C89.5581 116.656 90.0217 115.909 90.4929 115.249C91.0362 114.407 91.4998 113.659 92.0508 112.904C92.3778 112.611 91.9015 112.211 91.662 112.497Z" fill="#1D262D"/>
        <path d="M94.1211 112.369C93.2997 113.059 92.7718 114.077 92.2362 115.007C91.6928 115.85 91.1495 116.693 90.789 117.607C90.7323 117.966 91.1855 118.102 91.3451 117.912C91.9838 117.149 92.4318 116.226 92.9752 115.384C93.5108 114.453 94.237 113.683 94.6773 112.673C94.8292 112.395 94.3683 112.17 94.1211 112.369Z" fill="#1D262D"/>
        <path d="M20.8298 123.684C44.8567 122.009 68.7061 118.317 92.7871 117.255C93.4 117.201 93.315 116.237 92.7022 116.291C80.4866 116.838 68.3405 118.173 56.1866 119.421C44.383 120.637 32.5408 121.416 20.768 122.983C20.3303 123.022 20.392 123.723 20.8298 123.684Z" fill="#1D262D"/>
    </g>
    <defs>
        <clipPath id="clip0_0_1">
            <rect width="150" height="159" fill="white" transform="translate(74.3105 13.168) rotate(-5.03625)"/>
        </clipPath>
        <clipPath id="clip1_0_1">
            <rect width="105.554" height="111.887" fill="white" transform="translate(0 78.5432) rotate(-5.03625)"/>
        </clipPath>
    </defs>
</svg>